NotoSansSymbols-Regular.ufo
<glyph name="seven" format="2">
  <advance width="572"/>
  <unicode hex="0037"/>
  <outline>
    <contour>
      <point x="136" y="0" type="line"/>
      <point x="233" y="0" type="line"/>
      <point x="523" y="646" type="line"/>
      <point x="523" y="714" type="line"/>
      <point x="44" y="714" type="line"/>
      <point x="44" y="634" type="line"/>
      <point x="429" y="634" type="line"/>
    </contour>
  </outline>
</glyph>
<glyph name="D" format="2">
  <advance width="730"/>
  <unicode hex="0044"/>
  <outline>
    <contour>
      <point x="97" y="0" type="line"/>
      <point x="296" y="0" type="line" smooth="yes"/>
      <point x="531" y="0"/>
      <point x="669" y="123"/>
      <point x="669" y="364" type="curve" smooth="yes"/>
      <point x="669" y="593"/>
      <point x="532" y="714"/>
      <point x="317" y="714" type="curve" smooth="yes"/>
      <point x="97" y="714" type="line"/>
    </contour>
    <contour>
      <point x="187" y="77" type="line"/>
      <point x="187" y="637" type="line"/>
      <point x="304" y="637" type="line" smooth="yes"/>
      <point x="476" y="637"/>
      <point x="574" y="551"/>
      <point x="574" y="361" type="curve" smooth="yes"/>
      <point x="574" y="173"/>
      <point x="477" y="77"/>
      <point x="284" y="77" type="curve" smooth="yes"/>
    </contour>
  </outline>
</glyph>
<glyph name="F" format="2">
  <advance width="519"/>
  <unicode hex="0046"/>
  <outline>
    <contour>
      <point x="97" y="0" type="line"/>
      <point x="187" y="0" type="line"/>
      <point x="187" y="303" type="line"/>
      <point x="477" y="303" type="line"/>
      <point x="477" y="382" type="line"/>
      <point x="187" y="382" type="line"/>
      <point x="187" y="635" type="line"/>
      <point x="496" y="635" type="line"/>
      <point x="496" y="714" type="line"/>
      <point x="97" y="714" type="line"/>
    </contour>
  </outline>
</glyph>
<glyph name="H" format="2">
  <advance width="741"/>
  <unicode hex="0048"/>
  <outline>
    <contour>
      <point x="97" y="0" type="line"/>
      <point x="187" y="0" type="line"/>
      <point x="187" y="333" type="line"/>
      <point x="553" y="333" type="line"/>
      <point x="553" y="0" type="line"/>
      <point x="643" y="0" type="line"/>
      <point x="643" y="714" type="line"/>
      <point x="553" y="714" type="line"/>
      <point x="553" y="412" type="line"/>
      <point x="187" y="412" type="line"/>
      <point x="187" y="714" type="line"/>
      <point x="97" y="714" type="line"/>
    </contour>
  </outline>
</glyph>
<glyph name="I" format="2">
  <advance width="339"/>
  <unicode hex="0049"/>
  <outline>
    <contour>
      <point x="40" y="0" type="line"/>
      <point x="298" y="0" type="line"/>
      <point x="298" y="52" type="line"/>
      <point x="214" y="71" type="line"/>
      <point x="214" y="642" type="line"/>
      <point x="298" y="662" type="line"/>
      <point x="298" y="714" type="line"/>
      <point x="40" y="714" type="line"/>
      <point x="40" y="662" type="line"/>
      <point x="124" y="642" type="line"/>
      <point x="124" y="71" type="line"/>
      <point x="40" y="52" type="line"/>
    </contour>
  </outline>
</glyph>
<glyph name="L" format="2">
  <advance width="524"/>
  <unicode hex="004C"/>
  <outline>
    <contour>
      <point x="97" y="0" type="line"/>
      <point x="499" y="0" type="line"/>
      <point x="499" y="80" type="line"/>
      <point x="187" y="80" type="line"/>
      <point x="187" y="714" type="line"/>
      <point x="97" y="714" type="line"/>
    </contour>
  </outline>
</glyph>
<glyph name="T" format="2">
  <advance width="556"/>
  <unicode hex="0054"/>
  <outline>
    <contour>
      <point x="233" y="0" type="line"/>
      <point x="323" y="0" type="line"/>
      <point x="323" y="635" type="line"/>
      <point x="545" y="635" type="line"/>
      <point x="545" y="714" type="line"/>
      <point x="10" y="714" type="line"/>
      <point x="10" y="635" type="line"/>
      <point x="233" y="635" type="line"/>
    </contour>
  </outline>
</glyph>
<glyph name="X" format="2">
  <advance width="586"/>
  <unicode hex="0058"/>
  <outline>
    <contour>
      <point x="4" y="0" type="line"/>
      <point x="99" y="0" type="line"/>
      <point x="291" y="310" type="line"/>
      <point x="480" y="0" type="line"/>
      <point x="582" y="0" type="line"/>
      <point x="344" y="374" type="line"/>
      <point x="565" y="714" type="line"/>
      <point x="470" y="714" type="line"/>
      <point x="294" y="434" type="line"/>
      <point x="119" y="714" type="line"/>
      <point x="19" y="714" type="line"/>
      <point x="241" y="372" type="line"/>
    </contour>
  </outline>
</glyph>
<glyph name="Y" format="2">
  <advance width="566"/>
  <unicode hex="0059"/>
  <outline>
    <contour>
      <point x="238" y="0" type="line"/>
      <point x="328" y="0" type="line"/>
      <point x="328" y="277" type="line"/>
      <point x="566" y="714" type="line"/>
      <point x="469" y="714" type="line"/>
      <point x="283" y="363" type="line"/>
      <point x="98" y="714" type="line"/>
      <point x="0" y="714" type="line"/>
      <point x="238" y="273" type="line"/>
    </contour>
  </outline>
</glyph>
<glyph name="Z" format="2">
  <advance width="572"/>
  <unicode hex="005A"/>
  <outline>
    <contour>
      <point x="38" y="0" type="line"/>
      <point x="533" y="0" type="line"/>
      <point x="533" y="80" type="line"/>
      <point x="147" y="80" type="line"/>
      <point x="523" y="646" type="line"/>
      <point x="523" y="714" type="line"/>
      <point x="50" y="714" type="line"/>
      <point x="50" y="634" type="line"/>
      <point x="414" y="634" type="line"/>
      <point x="38" y="68" type="line"/>
    </contour>
  </outline>
</glyph>
<glyph name="i" format="2">
  <advance width="258"/>
  <unicode hex="0069"/>
  <outline>
    <contour>
      <point x="85" y="0" type="line"/>
      <point x="173" y="0" type="line"/>
      <point x="173" y="536" type="line"/>
      <point x="85" y="536" type="line"/>
    </contour>
    <contour>
      <point x="130" y="625" type="curve" smooth="yes"/>
      <point x="157" y="625"/>
      <point x="181" y="643"/>
      <point x="181" y="681" type="curve" smooth="yes"/>
      <point x="181" y="720"/>
      <point x="157" y="737"/>
      <point x="130" y="737" type="curve" smooth="yes"/>
      <point x="101" y="737"/>
      <point x="78" y="720"/>
      <point x="78" y="681" type="curve" smooth="yes"/>
      <point x="78" y="643"/>
      <point x="101" y="625"/>
    </contour>
  </outline>
</glyph>
<glyph name="k" format="2">
  <advance width="534"/>
  <unicode hex="006B"/>
  <outline>
    <contour>
      <point x="85" y="0" type="line"/>
      <point x="172" y="0" type="line"/>
      <point x="172" y="197" type="line"/>
      <point x="233" y="250" type="line"/>
      <point x="419" y="0" type="line"/>
      <point x="525" y="0" type="line"/>
      <point x="293" y="307" type="line"/>
      <point x="510" y="536" type="line"/>
      <point x="407" y="536" type="line"/>
      <point x="236" y="355" type="line" smooth="yes"/>
      <point x="218" y="335"/>
      <point x="184" y="292"/>
      <point x="172" y="276" type="curve"/>
      <point x="168" y="276" type="line"/>
      <point x="169" y="301"/>
      <point x="172" y="342"/>
      <point x="172" y="363" type="curve" smooth="yes"/>
      <point x="172" y="760" type="line"/>
      <point x="85" y="760" type="line"/>
    </contour>
  </outline>
</glyph>
<glyph name="x" format="2">
  <advance width="529"/>
  <unicode hex="0078"/>
  <outline>
    <contour>
      <point x="18" y="0" type="line"/>
      <point x="117" y="0" type="line"/>
      <point x="265" y="214" type="line"/>
      <point x="411" y="0" type="line"/>
      <point x="511" y="0" type="line"/>
      <point x="316" y="274" type="line"/>
      <point x="501" y="536" type="line"/>
      <point x="402" y="536" type="line"/>
      <point x="265" y="334" type="line"/>
      <point x="127" y="536" type="line"/>
      <point x="27" y="536" type="line"/>
      <point x="212" y="274" type="line"/>
    </contour>
  </outline>
</glyph>
<glyph name="z" format="2">
  <advance width="470"/>
  <unicode hex="007A"/>
  <outline>
    <contour>
      <point x="39" y="0" type="line"/>
      <point x="431" y="0" type="line"/>
      <point x="431" y="68" type="line"/>
      <point x="140" y="68" type="line"/>
      <point x="424" y="470" type="line"/>
      <point x="424" y="536" type="line"/>
      <point x="56" y="536" type="line"/>
      <point x="56" y="468" type="line"/>
      <point x="327" y="468" type="line"/>
      <point x="39" y="58" type="line"/>
    </contour>
  </outline>
</glyph>
<glyph name="enclosingsquarecomb" format="2">
  <unicode hex="20DE"/>
  <note>
uni20DE
</note>
  <outline>
    <contour>
      <point x="-660" y="-292" type="line"/>
      <point x="660" y="-292" type="line"/>
      <point x="660" y="1028" type="line"/>
      <point x="-660" y="1028" type="line"/>
    </contour>
    <contour>
      <point x="-598" y="-230" type="line"/>
      <point x="-598" y="966" type="line"/>
      <point x="598" y="966" type="line"/>
      <point x="598" y="-230" type="line"/>
    </contour>
  </outline>
</glyph>
<glyph name="enclosingcirclebackslashcomb" format="2">
  <unicode hex="20E0"/>
  <note>
uni20E0
</note>
  <outline>
    <contour>
      <point x="414" y="-100" type="line"/>
      <point x="459" y="-55" type="line"/>
      <point x="-413" y="816" type="line"/>
      <point x="-458" y="771" type="line"/>
    </contour>
    <contour>
      <point x="0" y="-292" type="curve" smooth="yes"/>
      <point x="359" y="-292"/>
      <point x="650" y="-1"/>
      <point x="650" y="358" type="curve" smooth="yes"/>
      <point x="650" y="717"/>
      <point x="359" y="1008"/>
      <point x="0" y="1008" type="curve" smooth="yes"/>
      <point x="-359" y="1008"/>
      <point x="-650" y="717"/>
      <point x="-650" y="358" type="curve" smooth="yes"/>
      <point x="-650" y="-1"/>
      <point x="-359" y="-292"/>
    </contour>
    <contour>
      <point x="0" y="-230" type="curve" smooth="yes"/>
      <point x="-325" y="-230"/>
      <point x="-588" y="33"/>
      <point x="-588" y="358" type="curve" smooth="yes"/>
      <point x="-588" y="683"/>
      <point x="-325" y="946"/>
      <point x="0" y="946" type="curve" smooth="yes"/>
      <point x="325" y="946"/>
      <point x="588" y="683"/>
      <point x="588" y="358" type="curve" smooth="yes"/>
      <point x="588" y="33"/>
      <point x="325" y="-230"/>
    </contour>
  </outline>
</glyph>
<glyph name="enclosingscreencomb" format="2">
  <unicode hex="20E2"/>
  <note>
uni20E2
</note>
  <outline>
    <contour>
      <point x="-1" y="-293" type="curve" smooth="yes"/>
      <point x="387" y="-293"/>
      <point x="782" y="-257"/>
      <point x="975" y="-208" type="curve"/>
      <point x="1043" y="2"/>
      <point x="1067" y="154"/>
      <point x="1067" y="387" type="curve" smooth="yes"/>
      <point x="1067" y="620"/>
      <point x="1043" y="773"/>
      <point x="975" y="984" type="curve"/>
      <point x="782" y="1033"/>
      <point x="385" y="1069"/>
      <point x="-2" y="1069" type="curve" smooth="yes"/>
      <point x="-389" y="1069"/>
      <point x="-784" y="1033"/>
      <point x="-977" y="984" type="curve"/>
      <point x="-1042" y="777"/>
      <point x="-1067" y="615"/>
      <point x="-1067" y="387" type="curve" smooth="yes"/>
      <point x="-1067" y="160"/>
      <point x="-1043" y="2"/>
      <point x="-977" y="-208" type="curve"/>
      <point x="-789" y="-257"/>
      <point x="-390" y="-293"/>
    </contour>
    <contour>
      <point x="-1" y="-231" type="curve" smooth="yes"/>
      <point x="-344" y="-231"/>
      <point x="-776" y="-193"/>
      <point x="-930" y="-155" type="curve"/>
      <point x="-977" y="-34"/>
      <point x="-1005" y="163"/>
      <point x="-1005" y="387" type="curve" smooth="yes"/>
      <point x="-1005" y="618"/>
      <point x="-979" y="799"/>
      <point x="-930" y="931" type="curve"/>
      <point x="-743" y="973"/>
      <point x="-341" y="1007"/>
      <point x="-1" y="1007" type="curve" smooth="yes"/>
      <point x="347" y="1007"/>
      <point x="747" y="973"/>
      <point x="931" y="931" type="curve"/>
      <point x="983" y="773"/>
      <point x="1005" y="596"/>
      <point x="1005" y="387" type="curve" smooth="yes"/>
      <point x="1005" y="166"/>
      <point x="980" y="-15"/>
      <point x="931" y="-155" type="curve"/>
      <point x="774" y="-193"/>
      <point x="347" y="-231"/>
    </contour>
  </outline>
</glyph>
<glyph name="enclosingkeycapcomb" format="2">
  <unicode hex="20E3"/>
  <note>
uni20E3
</note>
  <outline>
    <contour>
      <point x="-335" y="-10" type="curve" smooth="yes"/>
      <point x="336" y="-10" type="line" smooth="yes"/>
      <point x="388" y="-10"/>
      <point x="422" y="24"/>
      <point x="422" y="76" type="curve" smooth="yes"/>
      <point x="422" y="746" type="line" smooth="yes"/>
      <point x="422" y="798"/>
      <point x="388" y="832"/>
      <point x="336" y="832" type="curve" smooth="yes"/>
      <point x="-335" y="832" type="line" smooth="yes"/>
      <point x="-387" y="832"/>
      <point x="-422" y="798"/>
      <point x="-422" y="746" type="curve" smooth="yes"/>
      <point x="-422" y="76" type="line" smooth="yes"/>
      <point x="-422" y="24"/>
      <point x="-387" y="-10"/>
    </contour>
    <contour>
      <point x="-197" y="122" type="line" smooth="yes"/>
      <point x="-246" y="122"/>
      <point x="-265" y="141"/>
      <point x="-265" y="190" type="curve" smooth="yes"/>
      <point x="-265" y="631" type="line" smooth="yes"/>
      <point x="-265" y="680"/>
      <point x="-246" y="700"/>
      <point x="-197" y="700" type="curve" smooth="yes"/>
      <point x="198" y="700" type="line" smooth="yes"/>
      <point x="249" y="700"/>
      <point x="266" y="682"/>
      <point x="266" y="631" type="curve" smooth="yes"/>
      <point x="266" y="190" type="line" smooth="yes"/>
      <point x="266" y="139"/>
      <point x="249" y="122"/>
      <point x="198" y="122" type="curve" smooth="yes"/>
    </contour>
    <contour>
      <point x="398" y="52" type="line"/>
      <point x="314" y="93" type="line"/>
      <point x="314" y="678" type="line" smooth="yes"/>
      <point x="314" y="725"/>
      <point x="292" y="748"/>
      <point x="247" y="748" type="curve" smooth="yes"/>
      <point x="-282" y="748" type="line"/>
      <point x="-355" y="808" type="line"/>
      <point x="327" y="808" type="line" smooth="yes"/>
      <point x="370" y="808"/>
      <point x="398" y="776"/>
      <point x="398" y="733" type="curve" smooth="yes"/>
    </contour>
  </outline>
</glyph>
<glyph name="enclosingupwardpointingtrianglecomb" format="2">
  <unicode hex="20E4"/>
  <note>
uni20E4
</note>
  <outline>
    <contour>
      <point x="-963" y="-193" type="line"/>
      <point x="963" y="-193" type="line"/>
      <point x="0" y="1471" type="line"/>
    </contour>
    <contour>
      <point x="-855" y="-131" type="line"/>
      <point x="0" y="1349" type="line"/>
      <point x="855" y="-131" type="line"/>
    </contour>
  </outline>
</glyph>
<glyph name="Two-roman" format="2">
  <advance width="678"/>
  <unicode hex="2161"/>
  <outline>
    <contour>
      <point x="40" y="0" type="line"/>
      <point x="298" y="0" type="line"/>
      <point x="298" y="52" type="line"/>
      <point x="214" y="71" type="line"/>
      <point x="214" y="642" type="line"/>
      <point x="298" y="662" type="line"/>
      <point x="298" y="714" type="line"/>
      <point x="40" y="714" type="line"/>
      <point x="40" y="662" type="line"/>
      <point x="124" y="642" type="line"/>
      <point x="124" y="71" type="line"/>
      <point x="40" y="52" type="line"/>
    </contour>
    <contour>
      <point x="379" y="0" type="line"/>
      <point x="637" y="0" type="line"/>
      <point x="637" y="52" type="line"/>
      <point x="553" y="71" type="line"/>
      <point x="553" y="642" type="line"/>
      <point x="637" y="662" type="line"/>
      <point x="637" y="714" type="line"/>
      <point x="379" y="714" type="line"/>
      <point x="379" y="662" type="line"/>
      <point x="463" y="642" type="line"/>
      <point x="463" y="71" type="line"/>
      <point x="379" y="52" type="line"/>
    </contour>
  </outline>
</glyph>
<glyph name="Three-roman" format="2">
  <advance width="1017"/>
  <unicode hex="2162"/>
  <outline>
    <contour>
      <point x="718" y="0" type="line"/>
      <point x="976" y="0" type="line"/>
      <point x="976" y="52" type="line"/>
      <point x="892" y="71" type="line"/>
      <point x="892" y="642" type="line"/>
      <point x="976" y="662" type="line"/>
      <point x="976" y="714" type="line"/>
      <point x="718" y="714" type="line"/>
      <point x="718" y="662" type="line"/>
      <point x="802" y="642" type="line"/>
      <point x="802" y="71" type="line"/>
      <point x="718" y="52" type="line"/>
    </contour>
    <contour>
      <point x="40" y="0" type="line"/>
      <point x="298" y="0" type="line"/>
      <point x="298" y="52" type="line"/>
      <point x="214" y="71" type="line"/>
      <point x="214" y="642" type="line"/>
      <point x="298" y="662" type="line"/>
      <point x="298" y="714" type="line"/>
      <point x="40" y="714" type="line"/>
      <point x="40" y="662" type="line"/>
      <point x="124" y="642" type="line"/>
      <point x="124" y="71" type="line"/>
      <point x="40" y="52" type="line"/>
    </contour>
    <contour>
      <point x="379" y="0" type="line"/>
      <point x="637" y="0" type="line"/>
      <point x="637" y="52" type="line"/>
      <point x="553" y="71" type="line"/>
      <point x="553" y="642" type="line"/>
      <point x="637" y="662" type="line"/>
      <point x="637" y="714" type="line"/>
      <point x="379" y="714" type="line"/>
      <point x="379" y="662" type="line"/>
      <point x="463" y="642" type="line"/>
      <point x="463" y="71" type="line"/>
      <point x="379" y="52" type="line"/>
    </contour>
  </outline>
</glyph>
<glyph name="Four-roman" format="2">
  <advance width="939"/>
  <unicode hex="2163"/>
  <outline>
    <contour>
      <point x="594" y="0" type="line"/>
      <point x="684" y="0" type="line"/>
      <point x="939" y="714" type="line"/>
      <point x="844" y="714" type="line"/>
      <point x="684" y="258" type="line" smooth="yes"/>
      <point x="663" y="198"/>
      <point x="648" y="147"/>
      <point x="639" y="100" type="curve"/>
      <point x="629" y="147"/>
      <point x="615" y="197"/>
      <point x="594" y="256" type="curve" smooth="yes"/>
      <point x="433" y="714" type="line"/>
      <point x="339" y="714" type="line"/>
    </contour>
    <contour>
      <point x="40" y="0" type="line"/>
      <point x="298" y="0" type="line"/>
      <point x="298" y="52" type="line"/>
      <point x="214" y="71" type="line"/>
      <point x="214" y="642" type="line"/>
      <point x="298" y="662" type="line"/>
      <point x="298" y="714" type="line"/>
      <point x="40" y="714" type="line"/>
      <point x="40" y="662" type="line"/>
      <point x="124" y="642" type="line"/>
      <point x="124" y="71" type="line"/>
      <point x="40" y="52" type="line"/>
    </contour>
  </outline>
</glyph>
<glyph name="Five-roman" format="2">
  <advance width="600"/>
  <unicode hex="2164"/>
  <outline>
    <contour>
      <point x="255" y="0" type="line"/>
      <point x="345" y="0" type="line"/>
      <point x="600" y="714" type="line"/>
      <point x="505" y="714" type="line"/>
      <point x="345" y="258" type="line" smooth="yes"/>
      <point x="324" y="198"/>
      <point x="309" y="147"/>
      <point x="300" y="100" type="curve"/>
      <point x="290" y="147"/>
      <point x="276" y="197"/>
      <point x="255" y="256" type="curve" smooth="yes"/>
      <point x="94" y="714" type="line"/>
      <point x="0" y="714" type="line"/>
    </contour>
  </outline>
</glyph>
<glyph name="Eight-roman" format="2">
  <advance width="1617"/>
  <unicode hex="2167"/>
  <outline>
    <contour>
      <point x="255" y="0" type="line"/>
      <point x="345" y="0" type="line"/>
      <point x="600" y="714" type="line"/>
      <point x="505" y="714" type="line"/>
      <point x="345" y="258" type="line" smooth="yes"/>
      <point x="324" y="198"/>
      <point x="309" y="147"/>
      <point x="300" y="100" type="curve"/>
      <point x="290" y="147"/>
      <point x="276" y="197"/>
      <point x="255" y="256" type="curve" smooth="yes"/>
      <point x="94" y="714" type="line"/>
      <point x="0" y="714" type="line"/>
    </contour>
    <contour>
      <point x="640" y="0" type="line"/>
      <point x="898" y="0" type="line"/>
      <point x="898" y="52" type="line"/>
      <point x="814" y="71" type="line"/>
      <point x="814" y="642" type="line"/>
      <point x="898" y="662" type="line"/>
      <point x="898" y="714" type="line"/>
      <point x="640" y="714" type="line"/>
      <point x="640" y="662" type="line"/>
      <point x="724" y="642" type="line"/>
      <point x="724" y="71" type="line"/>
      <point x="640" y="52" type="line"/>
    </contour>
    <contour>
      <point x="979" y="0" type="line"/>
      <point x="1237" y="0" type="line"/>
      <point x="1237" y="52" type="line"/>
      <point x="1153" y="71" type="line"/>
      <point x="1153" y="642" type="line"/>
      <point x="1237" y="662" type="line"/>
      <point x="1237" y="714" type="line"/>
      <point x="979" y="714" type="line"/>
      <point x="979" y="662" type="line"/>
      <point x="1063" y="642" type="line"/>
      <point x="1063" y="71" type="line"/>
      <point x="979" y="52" type="line"/>
    </contour>
    <contour>
      <point x="1318" y="0" type="line"/>
      <point x="1576" y="0" type="line"/>
      <point x="1576" y="52" type="line"/>
      <point x="1492" y="71" type="line"/>
      <point x="1492" y="642" type="line"/>
      <point x="1576" y="662" type="line"/>
      <point x="1576" y="714" type="line"/>
      <point x="1318" y="714" type="line"/>
      <point x="1318" y="662" type="line"/>
      <point x="1402" y="642" type="line"/>
      <point x="1402" y="71" type="line"/>
      <point x="1318" y="52" type="line"/>
    </contour>
  </outline>
</glyph>
<glyph name="Nine-roman" format="2">
  <advance width="925"/>
  <unicode hex="2168"/>
  <outline>
    <contour>
      <point x="343" y="0" type="line"/>
      <point x="438" y="0" type="line"/>
      <point x="630" y="310" type="line"/>
      <point x="819" y="0" type="line"/>
      <point x="921" y="0" type="line"/>
      <point x="683" y="374" type="line"/>
      <point x="904" y="714" type="line"/>
      <point x="809" y="714" type="line"/>
      <point x="633" y="434" type="line"/>
      <point x="458" y="714" type="line"/>
      <point x="358" y="714" type="line"/>
      <point x="580" y="372" type="line"/>
    </contour>
    <contour>
      <point x="40" y="0" type="line"/>
      <point x="298" y="0" type="line"/>
      <point x="298" y="52" type="line"/>
      <point x="214" y="71" type="line"/>
      <point x="214" y="642" type="line"/>
      <point x="298" y="662" type="line"/>
      <point x="298" y="714" type="line"/>
      <point x="40" y="714" type="line"/>
      <point x="40" y="662" type="line"/>
      <point x="124" y="642" type="line"/>
      <point x="124" y="71" type="line"/>
      <point x="40" y="52" type="line"/>
    </contour>
  </outline>
</glyph>
<glyph name="Twelve-roman" format="2">
  <advance width="1264"/>
  <unicode hex="216B"/>
  <outline>
    <contour>
      <point x="4" y="0" type="line"/>
      <point x="99" y="0" type="line"/>
      <point x="291" y="310" type="line"/>
      <point x="480" y="0" type="line"/>
      <point x="582" y="0" type="line"/>
      <point x="344" y="374" type="line"/>
      <point x="565" y="714" type="line"/>
      <point x="470" y="714" type="line"/>
      <point x="294" y="434" type="line"/>
      <point x="119" y="714" type="line"/>
      <point x="19" y="714" type="line"/>
      <point x="241" y="372" type="line"/>
    </contour>
    <contour>
      <point x="626" y="0" type="line"/>
      <point x="884" y="0" type="line"/>
      <point x="884" y="52" type="line"/>
      <point x="800" y="71" type="line"/>
      <point x="800" y="642" type="line"/>
      <point x="884" y="662" type="line"/>
      <point x="884" y="714" type="line"/>
      <point x="626" y="714" type="line"/>
      <point x="626" y="662" type="line"/>
      <point x="710" y="642" type="line"/>
      <point x="710" y="71" type="line"/>
      <point x="626" y="52" type="line"/>
    </contour>
    <contour>
      <point x="965" y="0" type="line"/>
      <point x="1223" y="0" type="line"/>
      <point x="1223" y="52" type="line"/>
      <point x="1139" y="71" type="line"/>
      <point x="1139" y="642" type="line"/>
      <point x="1223" y="662" type="line"/>
      <point x="1223" y="714" type="line"/>
      <point x="965" y="714" type="line"/>
      <point x="965" y="662" type="line"/>
      <point x="1049" y="642" type="line"/>
      <point x="1049" y="71" type="line"/>
      <point x="965" y="52" type="line"/>
    </contour>
  </outline>
</glyph>
<glyph name="one-roman" format="2">
  <advance width="258"/>
  <unicode hex="2170"/>
  <outline>
    <contour>
      <point x="85" y="0" type="line"/>
      <point x="173" y="0" type="line"/>
      <point x="173" y="536" type="line"/>
      <point x="85" y="536" type="line"/>
    </contour>
    <contour>
      <point x="130" y="614" type="curve" smooth="yes"/>
      <point x="157" y="614"/>
      <point x="181" y="632"/>
      <point x="181" y="670" type="curve" smooth="yes"/>
      <point x="181" y="709"/>
      <point x="157" y="726"/>
      <point x="130" y="726" type="curve" smooth="yes"/>
      <point x="101" y="726"/>
      <point x="78" y="709"/>
      <point x="78" y="670" type="curve" smooth="yes"/>
      <point x="78" y="632"/>
      <point x="101" y="614"/>
    </contour>
  </outline>
</glyph>
<glyph name="two-roman" format="2">
  <advance width="516"/>
  <unicode hex="2171"/>
  <outline>
    <contour>
      <point x="343" y="0" type="line"/>
      <point x="431" y="0" type="line"/>
      <point x="431" y="536" type="line"/>
      <point x="343" y="536" type="line"/>
    </contour>
    <contour>
      <point x="85" y="0" type="line"/>
      <point x="173" y="0" type="line"/>
      <point x="173" y="536" type="line"/>
      <point x="85" y="536" type="line"/>
    </contour>
    <contour>
      <point x="130" y="614" type="curve" smooth="yes"/>
      <point x="157" y="614"/>
      <point x="181" y="632"/>
      <point x="181" y="670" type="curve" smooth="yes"/>
      <point x="181" y="709"/>
      <point x="157" y="726"/>
      <point x="130" y="726" type="curve" smooth="yes"/>
      <point x="101" y="726"/>
      <point x="78" y="709"/>
      <point x="78" y="670" type="curve" smooth="yes"/>
      <point x="78" y="632"/>
      <point x="101" y="614"/>
    </contour>
    <contour>
      <point x="388" y="614" type="curve" smooth="yes"/>
      <point x="415" y="614"/>
      <point x="439" y="632"/>
      <point x="439" y="670" type="curve" smooth="yes"/>
      <point x="439" y="709"/>
      <point x="415" y="726"/>
      <point x="388" y="726" type="curve" smooth="yes"/>
      <point x="359" y="726"/>
      <point x="336" y="709"/>
      <point x="336" y="670" type="curve" smooth="yes"/>
      <point x="336" y="632"/>
      <point x="359" y="614"/>
    </contour>
  </outline>
</glyph>
<glyph name="four-roman" format="2">
  <advance width="766"/>
  <unicode hex="2173"/>
  <outline>
    <contour>
      <point x="461" y="0" type="line"/>
      <point x="562" y="0" type="line"/>
      <point x="766" y="536" type="line"/>
      <point x="672" y="536" type="line"/>
      <point x="558" y="220" type="line" smooth="yes"/>
      <point x="543" y="177"/>
      <point x="520" y="111"/>
      <point x="513" y="78" type="curve"/>
      <point x="509" y="78" type="line"/>
      <point x="503" y="111"/>
      <point x="482" y="176"/>
      <point x="466" y="220" type="curve" smooth="yes"/>
      <point x="352" y="536" type="line"/>
      <point x="258" y="536" type="line"/>
    </contour>
    <contour>
      <point x="85" y="0" type="line"/>
      <point x="173" y="0" type="line"/>
      <point x="173" y="536" type="line"/>
      <point x="85" y="536" type="line"/>
    </contour>
    <contour>
      <point x="130" y="614" type="curve" smooth="yes"/>
      <point x="157" y="614"/>
      <point x="181" y="632"/>
      <point x="181" y="670" type="curve" smooth="yes"/>
      <point x="181" y="709"/>
      <point x="157" y="726"/>
      <point x="130" y="726" type="curve" smooth="yes"/>
      <point x="101" y="726"/>
      <point x="78" y="709"/>
      <point x="78" y="670" type="curve" smooth="yes"/>
      <point x="78" y="632"/>
      <point x="101" y="614"/>
    </contour>
  </outline>
</glyph>
<glyph name="eight-roman" format="2">
  <advance width="1282"/>
  <unicode hex="2177"/>
  <outline>
    <contour>
      <point x="203" y="0" type="line"/>
      <point x="304" y="0" type="line"/>
      <point x="508" y="536" type="line"/>
      <point x="414" y="536" type="line"/>
      <point x="300" y="220" type="line" smooth="yes"/>
      <point x="285" y="177"/>
      <point x="263" y="111"/>
      <point x="255" y="78" type="curve"/>
      <point x="251" y="78" type="line"/>
      <point x="245" y="111"/>
      <point x="224" y="176"/>
      <point x="208" y="220" type="curve" smooth="yes"/>
      <point x="94" y="536" type="line"/>
      <point x="0" y="536" type="line"/>
    </contour>
    <contour>
      <point x="593" y="0" type="line"/>
      <point x="681" y="0" type="line"/>
      <point x="681" y="536" type="line"/>
      <point x="593" y="536" type="line"/>
    </contour>
    <contour>
      <point x="851" y="0" type="line"/>
      <point x="938" y="0" type="line"/>
      <point x="938" y="536" type="line"/>
      <point x="851" y="536" type="line"/>
    </contour>
    <contour>
      <point x="1108" y="0" type="line"/>
      <point x="1196" y="0" type="line"/>
      <point x="1196" y="536" type="line"/>
      <point x="1108" y="536" type="line"/>
    </contour>
    <contour>
      <point x="638" y="614" type="curve" smooth="yes"/>
      <point x="665" y="614"/>
      <point x="689" y="632"/>
      <point x="689" y="670" type="curve" smooth="yes"/>
      <point x="689" y="709"/>
      <point x="665" y="726"/>
      <point x="638" y="726" type="curve" smooth="yes"/>
      <point x="609" y="726"/>
      <point x="586" y="709"/>
      <point x="586" y="670" type="curve" smooth="yes"/>
      <point x="586" y="632"/>
      <point x="609" y="614"/>
    </contour>
    <contour>
      <point x="896" y="614" type="curve" smooth="yes"/>
      <point x="923" y="614"/>
      <point x="947" y="632"/>
      <point x="947" y="670" type="curve" smooth="yes"/>
      <point x="947" y="709"/>
      <point x="923" y="726"/>
      <point x="896" y="726" type="curve" smooth="yes"/>
      <point x="867" y="726"/>
      <point x="844" y="709"/>
      <point x="844" y="670" type="curve" smooth="yes"/>
      <point x="844" y="632"/>
      <point x="867" y="614"/>
    </contour>
    <contour>
      <point x="1153" y="614" type="curve" smooth="yes"/>
      <point x="1181" y="614"/>
      <point x="1205" y="632"/>
      <point x="1205" y="670" type="curve" smooth="yes"/>
      <point x="1205" y="709"/>
      <point x="1181" y="726"/>
      <point x="1153" y="726" type="curve" smooth="yes"/>
      <point x="1125" y="726"/>
      <point x="1102" y="709"/>
      <point x="1102" y="670" type="curve" smooth="yes"/>
      <point x="1102" y="632"/>
      <point x="1125" y="614"/>
    </contour>
  </outline>
</glyph>
<glyph name="nine-roman" format="2">
  <advance width="787"/>
  <unicode hex="2178"/>
  <outline>
    <contour>
      <point x="276" y="0" type="line"/>
      <point x="375" y="0" type="line"/>
      <point x="523" y="214" type="line"/>
      <point x="669" y="0" type="line"/>
      <point x="769" y="0" type="line"/>
      <point x="574" y="274" type="line"/>
      <point x="759" y="536" type="line"/>
      <point x="660" y="536" type="line"/>
      <point x="523" y="334" type="line"/>
      <point x="385" y="536" type="line"/>
      <point x="285" y="536" type="line"/>
      <point x="470" y="274" type="line"/>
    </contour>
    <contour>
      <point x="85" y="0" type="line"/>
      <point x="173" y="0" type="line"/>
      <point x="173" y="536" type="line"/>
      <point x="85" y="536" type="line"/>
    </contour>
    <contour>
      <point x="130" y="614" type="curve" smooth="yes"/>
      <point x="157" y="614"/>
      <point x="181" y="632"/>
      <point x="181" y="670" type="curve" smooth="yes"/>
      <point x="181" y="709"/>
      <point x="157" y="726"/>
      <point x="130" y="726" type="curve" smooth="yes"/>
      <point x="101" y="726"/>
      <point x="78" y="709"/>
      <point x="78" y="670" type="curve" smooth="yes"/>
      <point x="78" y="632"/>
      <point x="101" y="614"/>
    </contour>
  </outline>
</glyph>
<glyph name="twelve-roman" format="2">
  <advance width="1045"/>
  <unicode hex="217B"/>
  <outline>
    <contour>
      <point x="18" y="0" type="line"/>
      <point x="117" y="0" type="line"/>
      <point x="265" y="214" type="line"/>
      <point x="411" y="0" type="line"/>
      <point x="511" y="0" type="line"/>
      <point x="316" y="274" type="line"/>
      <point x="501" y="536" type="line"/>
      <point x="402" y="536" type="line"/>
      <point x="265" y="334" type="line"/>
      <point x="127" y="536" type="line"/>
      <point x="27" y="536" type="line"/>
      <point x="212" y="274" type="line"/>
    </contour>
    <contour>
      <point x="614" y="0" type="line"/>
      <point x="702" y="0" type="line"/>
      <point x="702" y="536" type="line"/>
      <point x="614" y="536" type="line"/>
    </contour>
    <contour>
      <point x="872" y="0" type="line"/>
      <point x="959" y="0" type="line"/>
      <point x="959" y="536" type="line"/>
      <point x="872" y="536" type="line"/>
    </contour>
    <contour>
      <point x="659" y="614" type="curve" smooth="yes"/>
      <point x="686" y="614"/>
      <point x="710" y="632"/>
      <point x="710" y="670" type="curve" smooth="yes"/>
      <point x="710" y="709"/>
      <point x="686" y="726"/>
      <point x="659" y="726" type="curve" smooth="yes"/>
      <point x="630" y="726"/>
      <point x="607" y="709"/>
      <point x="607" y="670" type="curve" smooth="yes"/>
      <point x="607" y="632"/>
      <point x="630" y="614"/>
    </contour>
    <contour>
      <point x="917" y="614" type="curve" smooth="yes"/>
      <point x="944" y="614"/>
      <point x="968" y="632"/>
      <point x="968" y="670" type="curve" smooth="yes"/>
      <point x="968" y="709"/>
      <point x="944" y="726"/>
      <point x="917" y="726" type="curve" smooth="yes"/>
      <point x="888" y="726"/>
      <point x="865" y="709"/>
      <point x="865" y="670" type="curve" smooth="yes"/>
      <point x="865" y="632"/>
      <point x="888" y="614"/>
    </contour>
  </outline>
</glyph>
<glyph name="Onethousandcd-roman" format="2">
  <advance width="1161"/>
  <unicode hex="2180"/>
  <outline>
    <contour>
      <point x="423" y="0" type="curve" smooth="yes"/>
      <point x="738" y="0" type="line" smooth="yes"/>
      <point x="974" y="0"/>
      <point x="1113" y="124"/>
      <point x="1113" y="367" type="curve" smooth="yes"/>
      <point x="1113" y="597"/>
      <point x="975" y="719"/>
      <point x="759" y="719" type="curve" smooth="yes"/>
      <point x="402" y="719" type="line" smooth="yes"/>
      <point x="186" y="719"/>
      <point x="48" y="597"/>
      <point x="48" y="367" type="curve" smooth="yes"/>
      <point x="48" y="124"/>
      <point x="187" y="0"/>
    </contour>
    <contour>
      <point x="431" y="87" type="line" smooth="yes"/>
      <point x="244" y="87"/>
      <point x="149" y="181"/>
      <point x="149" y="364" type="curve" smooth="yes"/>
      <point x="149" y="548"/>
      <point x="245" y="632"/>
      <point x="412" y="632" type="curve" smooth="yes"/>
      <point x="532" y="632" type="line"/>
      <point x="532" y="87" type="line"/>
    </contour>
    <contour>
      <point x="629" y="87" type="line"/>
      <point x="629" y="632" type="line"/>
      <point x="749" y="632" type="line" smooth="yes"/>
      <point x="917" y="632"/>
      <point x="1012" y="548"/>
      <point x="1012" y="364" type="curve" smooth="yes"/>
      <point x="1012" y="181"/>
      <point x="917" y="87"/>
      <point x="730" y="87" type="curve" smooth="yes"/>
    </contour>
  </outline>
</glyph>
<glyph name="Fivethousand-roman" format="2">
  <advance width="707"/>
  <unicode hex="2181"/>
  <outline>
    <contour>
      <point x="77" y="0" type="line"/>
      <point x="284" y="0" type="line" smooth="yes"/>
      <point x="520" y="0"/>
      <point x="659" y="125"/>
      <point x="659" y="367" type="curve" smooth="yes"/>
      <point x="659" y="598"/>
      <point x="521" y="720"/>
      <point x="305" y="720" type="curve" smooth="yes"/>
      <point x="77" y="720" type="line"/>
    </contour>
    <contour>
      <point x="175" y="205" type="line"/>
      <point x="175" y="516" type="line"/>
      <point x="234" y="516" type="line" smooth="yes"/>
      <point x="332" y="516"/>
      <point x="387" y="468"/>
      <point x="387" y="363" type="curve" smooth="yes"/>
      <point x="387" y="258"/>
      <point x="332" y="205"/>
      <point x="224" y="205" type="curve" smooth="yes"/>
    </contour>
    <contour>
      <point x="175" y="87" type="line"/>
      <point x="175" y="155" type="line"/>
      <point x="243" y="155" type="line" smooth="yes"/>
      <point x="380" y="155"/>
      <point x="460" y="226"/>
      <point x="460" y="364" type="curve" smooth="yes"/>
      <point x="460" y="496"/>
      <point x="380" y="565"/>
      <point x="255" y="565" type="curve" smooth="yes"/>
      <point x="175" y="565" type="line"/>
      <point x="175" y="633" type="line"/>
      <point x="295" y="633" type="line" smooth="yes"/>
      <point x="462" y="633"/>
      <point x="558" y="549"/>
      <point x="558" y="364" type="curve" smooth="yes"/>
      <point x="558" y="181"/>
      <point x="463" y="87"/>
      <point x="276" y="87" type="curve" smooth="yes"/>
    </contour>
  </outline>
</glyph>
<glyph name="Tenthousand-roman" format="2">
  <advance width="1161"/>
  <unicode hex="2182"/>
  <outline>
    <contour>
      <point x="423" y="0" type="curve" smooth="yes"/>
      <point x="738" y="0" type="line" smooth="yes"/>
      <point x="974" y="0"/>
      <point x="1113" y="124"/>
      <point x="1113" y="367" type="curve" smooth="yes"/>
      <point x="1113" y="597"/>
      <point x="975" y="719"/>
      <point x="759" y="719" type="curve" smooth="yes"/>
      <point x="402" y="719" type="line" smooth="yes"/>
      <point x="186" y="719"/>
      <point x="48" y="597"/>
      <point x="48" y="367" type="curve" smooth="yes"/>
      <point x="48" y="124"/>
      <point x="187" y="0"/>
    </contour>
    <contour>
      <point x="431" y="87" type="line" smooth="yes"/>
      <point x="244" y="87"/>
      <point x="149" y="181"/>
      <point x="149" y="364" type="curve" smooth="yes"/>
      <point x="149" y="548"/>
      <point x="245" y="632"/>
      <point x="412" y="632" type="curve" smooth="yes"/>
      <point x="532" y="632" type="line"/>
      <point x="532" y="565" type="line"/>
      <point x="452" y="565" type="line" smooth="yes"/>
      <point x="327" y="565"/>
      <point x="247" y="495"/>
      <point x="247" y="364" type="curve" smooth="yes"/>
      <point x="247" y="226"/>
      <point x="327" y="155"/>
      <point x="464" y="155" type="curve" smooth="yes"/>
      <point x="532" y="155" type="line"/>
      <point x="532" y="87" type="line"/>
    </contour>
    <contour>
      <point x="483" y="204" type="line" smooth="yes"/>
      <point x="375" y="204"/>
      <point x="320" y="258"/>
      <point x="320" y="362" type="curve" smooth="yes"/>
      <point x="320" y="467"/>
      <point x="375" y="515"/>
      <point x="473" y="515" type="curve" smooth="yes"/>
      <point x="532" y="515" type="line"/>
      <point x="532" y="204" type="line"/>
    </contour>
    <contour>
      <point x="629" y="204" type="line"/>
      <point x="629" y="515" type="line"/>
      <point x="688" y="515" type="line" smooth="yes"/>
      <point x="786" y="515"/>
      <point x="841" y="467"/>
      <point x="841" y="362" type="curve" smooth="yes"/>
      <point x="841" y="258"/>
      <point x="786" y="204"/>
      <point x="678" y="204" type="curve" smooth="yes"/>
    </contour>
    <contour>
      <point x="629" y="87" type="line"/>
      <point x="629" y="155" type="line"/>
      <point x="697" y="155" type="line" smooth="yes"/>
      <point x="834" y="155"/>
      <point x="915" y="226"/>
      <point x="915" y="364" type="curve" smooth="yes"/>
      <point x="915" y="495"/>
      <point x="834" y="565"/>
      <point x="709" y="565" type="curve" smooth="yes"/>
      <point x="629" y="565" type="line"/>
      <point x="629" y="632" type="line"/>
      <point x="749" y="632" type="line" smooth="yes"/>
      <point x="917" y="632"/>
      <point x="1012" y="548"/>
      <point x="1012" y="364" type="curve" smooth="yes"/>
      <point x="1012" y="181"/>
      <point x="917" y="87"/>
      <point x="730" y="87" type="curve" smooth="yes"/>
    </contour>
  </outline>
</glyph>
<glyph name="Onehundredreversed-roman" format="2">
  <advance width="642"/>
  <unicode hex="2183"/>
  <outline>
    <contour>
      <point x="257" y="-20" type="curve" smooth="yes"/>
      <point x="470" y="-20"/>
      <point x="596" y="134"/>
      <point x="596" y="358" type="curve" smooth="yes"/>
      <point x="596" y="590"/>
      <point x="483" y="738"/>
      <point x="257" y="738" type="curve" smooth="yes"/>
      <point x="167" y="738"/>
      <point x="93" y="722"/>
      <point x="38" y="694" type="curve"/>
      <point x="76" y="613" type="line"/>
      <point x="122" y="634"/>
      <point x="176" y="653"/>
      <point x="242" y="653" type="curve" smooth="yes"/>
      <point x="410" y="653"/>
      <point x="495" y="540"/>
      <point x="495" y="359" type="curve" smooth="yes"/>
      <point x="495" y="176"/>
      <point x="398" y="65"/>
      <point x="242" y="65" type="curve" smooth="yes"/>
      <point x="179" y="65"/>
      <point x="124" y="77"/>
      <point x="67" y="94" type="curve"/>
      <point x="67" y="10" type="line"/>
      <point x="122" y="-11"/>
      <point x="175" y="-20"/>
    </contour>
  </outline>
</glyph>
<glyph name="sixlateform-roman" format="2">
  <advance width="642"/>
  <unicode hex="2185"/>
  <outline>
    <contour>
      <point x="403" y="-258" type="line"/>
      <point x="496" y="-258" type="line"/>
      <point x="496" y="79" type="line"/>
      <point x="468" y="69"/>
      <point x="438" y="66"/>
      <point x="404" y="66" type="curve" smooth="yes"/>
      <point x="223" y="66"/>
      <point x="147" y="177"/>
      <point x="147" y="358" type="curve" smooth="yes"/>
      <point x="147" y="542"/>
      <point x="245" y="653"/>
      <point x="407" y="653" type="curve" smooth="yes"/>
      <point x="476" y="653"/>
      <point x="531" y="634"/>
      <point x="578" y="613" type="curve"/>
      <point x="618" y="694" type="line"/>
      <point x="561" y="721"/>
      <point x="487" y="738"/>
      <point x="410" y="738" type="curve" smooth="yes"/>
      <point x="179" y="738"/>
      <point x="46" y="582"/>
      <point x="46" y="359" type="curve" smooth="yes"/>
      <point x="46" y="139"/>
      <point x="147" y="-20"/>
      <point x="403" y="-20" type="curve"/>
    </contour>
  </outline>
</glyph>
<glyph name="fiftyearlyform-roman" format="2">
  <advance width="547"/>
  <unicode hex="2186"/>
  <outline>
    <contour>
      <point x="268" y="-69" type="line"/>
      <point x="279" y="-69" type="line"/>
      <point x="518" y="148" type="line"/>
      <point x="518" y="261" type="line"/>
      <point x="313" y="77" type="line"/>
      <point x="322" y="53" type="line"/>
      <point x="322" y="719" type="line"/>
      <point x="225" y="719" type="line"/>
      <point x="225" y="53" type="line"/>
      <point x="234" y="77" type="line"/>
      <point x="29" y="261" type="line"/>
      <point x="29" y="148" type="line"/>
    </contour>
  </outline>
</glyph>
<glyph name="fiftythousand-roman" format="2">
  <advance width="707"/>
  <unicode hex="2187"/>
  <outline>
    <contour>
      <point x="77" y="0" type="line"/>
      <point x="284" y="0" type="line" smooth="yes"/>
      <point x="520" y="0"/>
      <point x="659" y="124"/>
      <point x="659" y="367" type="curve" smooth="yes"/>
      <point x="659" y="597"/>
      <point x="521" y="719"/>
      <point x="305" y="719" type="curve" smooth="yes"/>
      <point x="77" y="719" type="line"/>
    </contour>
    <contour>
      <point x="175" y="243" type="line"/>
      <point x="175" y="477" type="line"/>
      <point x="207" y="477" type="line" smooth="yes"/>
      <point x="279" y="477"/>
      <point x="320" y="441"/>
      <point x="320" y="361" type="curve" smooth="yes"/>
      <point x="320" y="283"/>
      <point x="279" y="243"/>
      <point x="199" y="243" type="curve" smooth="yes"/>
    </contour>
    <contour>
      <point x="175" y="174" type="line"/>
      <point x="175" y="205" type="line"/>
      <point x="222" y="205" type="line" smooth="yes"/>
      <point x="323" y="205"/>
      <point x="383" y="258"/>
      <point x="383" y="363" type="curve" smooth="yes"/>
      <point x="383" y="462"/>
      <point x="324" y="514"/>
      <point x="230" y="514" type="curve" smooth="yes"/>
      <point x="175" y="514" type="line"/>
      <point x="175" y="545" type="line"/>
      <point x="252" y="545" type="line" smooth="yes"/>
      <point x="366" y="545"/>
      <point x="431" y="488"/>
      <point x="431" y="363" type="curve" smooth="yes"/>
      <point x="431" y="238"/>
      <point x="366" y="174"/>
      <point x="239" y="174" type="curve" smooth="yes"/>
    </contour>
    <contour>
      <point x="175" y="87" type="line"/>
      <point x="175" y="115" type="line"/>
      <point x="249" y="115" type="line" smooth="yes"/>
      <point x="410" y="115"/>
      <point x="504" y="200"/>
      <point x="504" y="365" type="curve" smooth="yes"/>
      <point x="504" y="521"/>
      <point x="411" y="604"/>
      <point x="263" y="604" type="curve" smooth="yes"/>
      <point x="175" y="604" type="line"/>
      <point x="175" y="632" type="line"/>
      <point x="295" y="632" type="line" smooth="yes"/>
      <point x="462" y="632"/>
      <point x="558" y="548"/>
      <point x="558" y="364" type="curve" smooth="yes"/>
      <point x="558" y="181"/>
      <point x="463" y="87"/>
      <point x="276" y="87" type="curve" smooth="yes"/>
    </contour>
  </outline>
</glyph>
<glyph name="Onehundredthousand-roman" format="2">
  <advance width="1162"/>
  <unicode hex="2188"/>
  <outline>
    <contour>
      <point x="423" y="0" type="curve" smooth="yes"/>
      <point x="739" y="0" type="line" smooth="yes"/>
      <point x="975" y="0"/>
      <point x="1114" y="124"/>
      <point x="1114" y="367" type="curve" smooth="yes"/>
      <point x="1114" y="597"/>
      <point x="976" y="719"/>
      <point x="760" y="719" type="curve" smooth="yes"/>
      <point x="402" y="719" type="line" smooth="yes"/>
      <point x="186" y="719"/>
      <point x="48" y="597"/>
      <point x="48" y="367" type="curve" smooth="yes"/>
      <point x="48" y="124"/>
      <point x="187" y="0"/>
    </contour>
    <contour>
      <point x="431" y="87" type="line" smooth="yes"/>
      <point x="244" y="87"/>
      <point x="149" y="181"/>
      <point x="149" y="364" type="curve" smooth="yes"/>
      <point x="149" y="548"/>
      <point x="245" y="632"/>
      <point x="412" y="632" type="curve" smooth="yes"/>
      <point x="532" y="632" type="line"/>
      <point x="532" y="604" type="line"/>
      <point x="444" y="604" type="line" smooth="yes"/>
      <point x="296" y="604"/>
      <point x="203" y="521"/>
      <point x="203" y="365" type="curve" smooth="yes"/>
      <point x="203" y="200"/>
      <point x="297" y="115"/>
      <point x="458" y="115" type="curve" smooth="yes"/>
      <point x="532" y="115" type="line"/>
      <point x="532" y="87" type="line"/>
    </contour>
    <contour>
      <point x="468" y="174" type="line" smooth="yes"/>
      <point x="341" y="174"/>
      <point x="276" y="238"/>
      <point x="276" y="363" type="curve" smooth="yes"/>
      <point x="276" y="488"/>
      <point x="341" y="545"/>
      <point x="455" y="545" type="curve" smooth="yes"/>
      <point x="532" y="545" type="line"/>
      <point x="532" y="514" type="line"/>
      <point x="477" y="514" type="line" smooth="yes"/>
      <point x="383" y="514"/>
      <point x="324" y="462"/>
      <point x="324" y="363" type="curve" smooth="yes"/>
      <point x="324" y="258"/>
      <point x="384" y="205"/>
      <point x="485" y="205" type="curve" smooth="yes"/>
      <point x="532" y="205" type="line"/>
      <point x="532" y="174" type="line"/>
    </contour>
    <contour>
      <point x="508" y="243" type="line" smooth="yes"/>
      <point x="428" y="243"/>
      <point x="387" y="283"/>
      <point x="387" y="361" type="curve" smooth="yes"/>
      <point x="387" y="441"/>
      <point x="428" y="477"/>
      <point x="500" y="477" type="curve" smooth="yes"/>
      <point x="532" y="477" type="line"/>
      <point x="532" y="243" type="line"/>
    </contour>
    <contour>
      <point x="630" y="243" type="line"/>
      <point x="630" y="477" type="line"/>
      <point x="662" y="477" type="line" smooth="yes"/>
      <point x="734" y="477"/>
      <point x="775" y="441"/>
      <point x="775" y="361" type="curve" smooth="yes"/>
      <point x="775" y="283"/>
      <point x="734" y="243"/>
      <point x="654" y="243" type="curve" smooth="yes"/>
    </contour>
    <contour>
      <point x="630" y="174" type="line"/>
      <point x="630" y="205" type="line"/>
      <point x="677" y="205" type="line" smooth="yes"/>
      <point x="778" y="205"/>
      <point x="838" y="258"/>
      <point x="838" y="363" type="curve" smooth="yes"/>
      <point x="838" y="462"/>
      <point x="779" y="514"/>
      <point x="686" y="514" type="curve" smooth="yes"/>
      <point x="630" y="514" type="line"/>
      <point x="630" y="545" type="line"/>
      <point x="707" y="545" type="line" smooth="yes"/>
      <point x="821" y="545"/>
      <point x="886" y="488"/>
      <point x="886" y="363" type="curve" smooth="yes"/>
      <point x="886" y="238"/>
      <point x="821" y="174"/>
      <point x="694" y="174" type="curve" smooth="yes"/>
    </contour>
    <contour>
      <point x="630" y="87" type="line"/>
      <point x="630" y="115" type="line"/>
      <point x="704" y="115" type="line" smooth="yes"/>
      <point x="865" y="115"/>
      <point x="959" y="200"/>
      <point x="959" y="365" type="curve" smooth="yes"/>
      <point x="959" y="521"/>
      <point x="866" y="604"/>
      <point x="718" y="604" type="curve" smooth="yes"/>
      <point x="630" y="604" type="line"/>
      <point x="630" y="632" type="line"/>
      <point x="750" y="632" type="line" smooth="yes"/>
      <point x="917" y="632"/>
      <point x="1013" y="548"/>
      <point x="1013" y="364" type="curve" smooth="yes"/>
      <point x="1013" y="181"/>
      <point x="918" y="87"/>
      <point x="731" y="87" type="curve" smooth="yes"/>
    </contour>
  </outline>
</glyph>
<glyph name="twoTurned" format="2">
  <advance width="582"/>
  <unicode hex="218A"/>
  <outline>
    <contour>
      <point x="304" y="-30" type="curve" smooth="yes"/>
      <point x="403" y="-30"/>
      <point x="474" y="7"/>
      <point x="531" y="55" type="curve"/>
      <point x="483" y="134" type="line"/>
      <point x="427" y="78"/>
      <point x="376" y="55"/>
      <point x="311" y="55" type="curve" smooth="yes"/>
      <point x="228" y="55"/>
      <point x="179" y="96"/>
      <point x="179" y="180" type="curve" smooth="yes"/>
      <point x="179" y="274"/>
      <point x="236" y="349"/>
      <point x="348" y="462" type="curve" smooth="yes"/>
      <point x="540" y="655" type="line"/>
      <point x="540" y="729" type="line"/>
      <point x="57" y="729" type="line"/>
      <point x="57" y="644" type="line"/>
      <point x="418" y="644" type="line"/>
      <point x="266" y="493" type="line" smooth="yes"/>
      <point x="152" y="380"/>
      <point x="79" y="292"/>
      <point x="79" y="174" type="curve" smooth="yes"/>
      <point x="79" y="47"/>
      <point x="165" y="-30"/>
    </contour>
  </outline>
</glyph>
<glyph name="threeTurned" format="2">
  <advance width="639"/>
  <unicode hex="218B"/>
  <outline>
    <contour>
      <point x="321" y="-30" type="curve" smooth="yes"/>
      <point x="430" y="-30"/>
      <point x="502" y="10"/>
      <point x="554" y="50" type="curve"/>
      <point x="510" y="112" type="line"/>
      <point x="457" y="76"/>
      <point x="402" y="53"/>
      <point x="332" y="53" type="curve" smooth="yes"/>
      <point x="243" y="53"/>
      <point x="195" y="95"/>
      <point x="195" y="166" type="curve" smooth="yes"/>
      <point x="195" y="246"/>
      <point x="258" y="304"/>
      <point x="376" y="304" type="curve" smooth="yes"/>
      <point x="448" y="304" type="line"/>
      <point x="449" y="390" type="line"/>
      <point x="378" y="390" type="line" smooth="yes"/>
      <point x="249" y="390"/>
      <point x="173" y="427"/>
      <point x="173" y="525" type="curve" smooth="yes"/>
      <point x="173" y="609"/>
      <point x="229" y="666"/>
      <point x="356" y="666" type="curve" smooth="yes"/>
      <point x="426" y="666"/>
      <point x="499" y="649"/>
      <point x="561" y="619" type="curve"/>
      <point x="562" y="708" type="line"/>
      <point x="501" y="738"/>
      <point x="427" y="748"/>
      <point x="358" y="748" type="curve" smooth="yes"/>
      <point x="157" y="748"/>
      <point x="72" y="647"/>
      <point x="72" y="528" type="curve" smooth="yes"/>
      <point x="72" y="433"/>
      <point x="129" y="358"/>
      <point x="244" y="343" type="curve"/>
      <point x="244" y="339" type="line"/>
      <point x="160" y="319"/>
      <point x="94" y="249"/>
      <point x="94" y="151" type="curve" smooth="yes"/>
      <point x="94" y="47"/>
      <point x="169" y="-30"/>
    </contour>
  </outline>
</glyph>
<glyph name="leftArrow" format="2">
  <advance width="1000"/>
  <unicode hex="2190"/>
  <note>
arrowleft
</note>
  <outline>
    <contour>
      <point x="286" y="225" type="curve"/>
      <point x="321" y="225" type="line"/>
      <point x="299" y="271"/>
      <point x="278" y="305"/>
      <point x="258" y="327" type="curve"/>
      <point x="258" y="357" type="line"/>
      <point x="278" y="379"/>
      <point x="299" y="413"/>
      <point x="321" y="459" type="curve"/>
      <point x="286" y="459" type="line"/>
      <point x="244" y="410"/>
      <point x="200" y="374"/>
      <point x="154" y="351" type="curve"/>
      <point x="154" y="333" type="line"/>
      <point x="200" y="310"/>
      <point x="244" y="274"/>
    </contour>
    <contour>
      <point x="253" y="321" type="line"/>
      <point x="846" y="321" type="line"/>
      <point x="846" y="363" type="line"/>
      <point x="253" y="363" type="line"/>
    </contour>
  </outline>
</glyph>
<glyph name="rightArrow" format="2">
  <advance width="1000"/>
  <unicode hex="2192"/>
  <note>
arrowright
</note>
  <outline>
    <contour>
      <point x="679" y="225" type="curve"/>
      <point x="714" y="225" type="line"/>
      <point x="756" y="274"/>
      <point x="800" y="310"/>
      <point x="846" y="333" type="curve"/>
      <point x="846" y="351" type="line"/>
      <point x="800" y="374"/>
      <point x="756" y="410"/>
      <point x="714" y="459" type="curve"/>
      <point x="679" y="459" type="line"/>
      <point x="699" y="417"/>
      <point x="718" y="385"/>
      <point x="737" y="363" type="curve"/>
      <point x="154" y="363" type="line"/>
      <point x="154" y="321" type="line"/>
      <point x="737" y="321" type="line"/>
      <point x="718" y="299"/>
      <point x="699" y="267"/>
    </contour>
  </outline>
</glyph>
<glyph name="downArrow" format="2">
  <advance width="500"/>
  <unicode hex="2193"/>
  <note>
arrowdown
</note>
  <outline>
    <contour>
      <point x="241" y="0" type="curve"/>
      <point x="259" y="0" type="line"/>
      <point x="282" y="47"/>
      <point x="318" y="91"/>
      <point x="367" y="132" type="curve"/>
      <point x="367" y="167" type="line"/>
      <point x="325" y="147"/>
      <point x="293" y="128"/>
      <point x="271" y="109" type="curve"/>
      <point x="271" y="692" type="line"/>
      <point x="229" y="692" type="line"/>
      <point x="229" y="109" type="line"/>
      <point x="207" y="128"/>
      <point x="175" y="147"/>
      <point x="133" y="167" type="curve"/>
      <point x="133" y="132" type="line"/>
      <point x="182" y="91"/>
      <point x="218" y="47"/>
    </contour>
  </outline>
</glyph>
<glyph name="leftRightArrow" format="2">
  <advance width="1000"/>
  <unicode hex="2194"/>
  <note>
arrowboth
</note>
  <outline>
    <contour>
      <point x="286" y="225" type="curve"/>
      <point x="321" y="225" type="line"/>
      <point x="301" y="267"/>
      <point x="282" y="299"/>
      <point x="263" y="321" type="curve"/>
      <point x="737" y="321" type="line"/>
      <point x="718" y="299"/>
      <point x="699" y="267"/>
      <point x="679" y="225" type="curve"/>
      <point x="714" y="225" type="line"/>
      <point x="756" y="274"/>
      <point x="800" y="310"/>
      <point x="846" y="333" type="curve"/>
      <point x="846" y="351" type="line"/>
      <point x="800" y="374"/>
      <point x="756" y="410"/>
      <point x="714" y="459" type="curve"/>
      <point x="679" y="459" type="line"/>
      <point x="699" y="417"/>
      <point x="718" y="385"/>
      <point x="737" y="363" type="curve"/>
      <point x="263" y="363" type="line"/>
      <point x="282" y="385"/>
      <point x="301" y="417"/>
      <point x="321" y="459" type="curve"/>
      <point x="286" y="459" type="line"/>
      <point x="244" y="410"/>
      <point x="200" y="374"/>
      <point x="154" y="351" type="curve"/>
      <point x="154" y="333" type="line"/>
      <point x="200" y="310"/>
      <point x="244" y="274"/>
    </contour>
  </outline>
</glyph>
<glyph name="northWestArrow" format="2">
  <advance width="750"/>
  <unicode hex="2196"/>
  <note>
uni2196
</note>
  <outline>
    <contour>
      <point x="600" y="86" type="line"/>
      <point x="630" y="116" type="line"/>
      <point x="218" y="528" type="line"/>
      <point x="247" y="531"/>
      <point x="283" y="540"/>
      <point x="327" y="555" type="curve"/>
      <point x="302" y="580" type="line"/>
      <point x="238" y="575"/>
      <point x="181" y="581"/>
      <point x="132" y="597" type="curve"/>
      <point x="119" y="584" type="line"/>
      <point x="136" y="536"/>
      <point x="141" y="479"/>
      <point x="136" y="415" type="curve"/>
      <point x="161" y="390" type="line"/>
      <point x="177" y="434"/>
      <point x="186" y="470"/>
      <point x="188" y="499" type="curve"/>
    </contour>
  </outline>
</glyph>
<glyph name="northEastArrow" format="2">
  <advance width="750"/>
  <unicode hex="2197"/>
  <note>
uni2197
</note>
  <outline>
    <contour>
      <point x="150" y="86" type="line"/>
      <point x="562" y="499" type="line"/>
      <point x="564" y="470"/>
      <point x="573" y="434"/>
      <point x="589" y="390" type="curve"/>
      <point x="614" y="415" type="line"/>
      <point x="609" y="479"/>
      <point x="614" y="536"/>
      <point x="631" y="584" type="curve"/>
      <point x="618" y="597" type="line"/>
      <point x="569" y="581"/>
      <point x="512" y="575"/>
      <point x="448" y="580" type="curve"/>
      <point x="423" y="555" type="line"/>
      <point x="467" y="540"/>
      <point x="503" y="531"/>
      <point x="532" y="528" type="curve"/>
      <point x="120" y="116" type="line"/>
    </contour>
  </outline>
</glyph>
<glyph name="southEastArrow" format="2">
  <advance width="750"/>
  <unicode hex="2198"/>
  <note>
uni2198
</note>
  <outline>
    <contour>
      <point x="618" y="86" type="curve"/>
      <point x="631" y="99" type="line"/>
      <point x="614" y="147"/>
      <point x="609" y="204"/>
      <point x="614" y="268" type="curve"/>
      <point x="589" y="293" type="line"/>
      <point x="573" y="249"/>
      <point x="564" y="213"/>
      <point x="562" y="184" type="curve"/>
      <point x="150" y="597" type="line"/>
      <point x="120" y="567" type="line"/>
      <point x="532" y="155" type="line"/>
      <point x="503" y="152"/>
      <point x="467" y="143"/>
      <point x="423" y="128" type="curve"/>
      <point x="448" y="103" type="line"/>
      <point x="512" y="108"/>
      <point x="569" y="102"/>
    </contour>
  </outline>
</glyph>
<glyph name="southWestArrow" format="2">
  <advance width="750"/>
  <unicode hex="2199"/>
  <note>
uni2199
</note>
  <outline>
    <contour>
      <point x="132" y="86" type="line"/>
      <point x="181" y="102"/>
      <point x="238" y="108"/>
      <point x="302" y="103" type="curve"/>
      <point x="327" y="128" type="line"/>
      <point x="283" y="143"/>
      <point x="247" y="152"/>
      <point x="218" y="155" type="curve"/>
      <point x="630" y="567" type="line"/>
      <point x="600" y="597" type="line"/>
      <point x="188" y="184" type="line"/>
      <point x="186" y="213"/>
      <point x="177" y="249"/>
      <point x="161" y="293" type="curve"/>
      <point x="136" y="268" type="line"/>
      <point x="141" y="204"/>
      <point x="136" y="147"/>
      <point x="119" y="99" type="curve"/>
    </contour>
  </outline>
</glyph>
<glyph name="diameterSign" format="2">
  <advance width="571"/>
  <unicode hex="2300"/>
  <note>
uni2300
</note>
  <outline>
    <contour>
      <point x="97" y="116" type="line"/>
      <point x="147" y="166" type="line"/>
      <point x="187" y="137"/>
      <point x="232" y="122"/>
      <point x="283" y="122" type="curve" smooth="yes"/>
      <point x="410" y="122"/>
      <point x="515" y="227"/>
      <point x="515" y="354" type="curve" smooth="yes"/>
      <point x="515" y="404"/>
      <point x="500" y="449"/>
      <point x="470" y="490" type="curve"/>
      <point x="520" y="540" type="line"/>
      <point x="482" y="583" type="line"/>
      <point x="431" y="532" type="line"/>
      <point x="388" y="568"/>
      <point x="338" y="586"/>
      <point x="283" y="586" type="curve" smooth="yes"/>
      <point x="156" y="586"/>
      <point x="51" y="481"/>
      <point x="51" y="354" type="curve" smooth="yes"/>
      <point x="51" y="297"/>
      <point x="69" y="248"/>
      <point x="105" y="205" type="curve"/>
      <point x="58" y="158" type="line"/>
    </contour>
    <contour>
      <point x="149" y="249" type="line"/>
      <point x="125" y="280"/>
      <point x="114" y="315"/>
      <point x="114" y="354" type="curve" smooth="yes"/>
      <point x="114" y="448"/>
      <point x="189" y="523"/>
      <point x="283" y="523" type="curve" smooth="yes"/>
      <point x="321" y="523"/>
      <point x="355" y="511"/>
      <point x="387" y="487" type="curve"/>
    </contour>
    <contour>
      <point x="283" y="185" type="curve" smooth="yes"/>
      <point x="249" y="185"/>
      <point x="218" y="194"/>
      <point x="192" y="211" type="curve"/>
      <point x="426" y="445" type="line"/>
      <point x="443" y="417"/>
      <point x="452" y="387"/>
      <point x="452" y="354" type="curve" smooth="yes"/>
      <point x="452" y="259"/>
      <point x="375" y="185"/>
    </contour>
  </outline>
</glyph>
<glyph name="electricArrow" format="2">
  <advance width="579"/>
  <unicode hex="2301"/>
  <note>
uni2301
</note>
  <outline>
    <contour>
      <point x="316" y="201" type="line"/>
      <point x="316" y="392" type="line"/>
      <point x="528" y="243" type="line"/>
      <point x="528" y="315" type="line"/>
      <point x="263" y="500" type="line"/>
      <point x="263" y="311" type="line"/>
      <point x="51" y="460" type="line"/>
      <point x="51" y="388" type="line"/>
    </contour>
  </outline>
</glyph>
<glyph name="house" format="2">
  <advance width="716"/>
  <unicode hex="2302"/>
  <note>
house
</note>
  <outline>
    <contour>
      <point x="51" y="0" type="line"/>
      <point x="665" y="0" type="line"/>
      <point x="665" y="425" type="line"/>
      <point x="358" y="713" type="line"/>
      <point x="51" y="425" type="line"/>
    </contour>
    <contour>
      <point x="122" y="71" type="line"/>
      <point x="122" y="402" type="line"/>
      <point x="358" y="623" type="line"/>
      <point x="594" y="402" type="line"/>
      <point x="594" y="71" type="line"/>
    </contour>
  </outline>
</glyph>
<glyph name="control" format="2">
  <advance width="512"/>
  <unicode hex="2303"/>
  <note>
uni2303
</note>
  <outline>
    <contour>
      <point x="51" y="409" type="line"/>
      <point x="132" y="409" type="line"/>
      <point x="256" y="655" type="line"/>
      <point x="380" y="409" type="line"/>
      <point x="461" y="409" type="line"/>
      <point x="266" y="785" type="line"/>
      <point x="246" y="785" type="line"/>
    </contour>
  </outline>
</glyph>
<glyph name="downArrowHead" format="2">
  <advance width="512"/>
  <unicode hex="2304"/>
  <note>
uni2304
</note>
  <outline>
    <contour>
      <point x="246" y="-94" type="line"/>
      <point x="266" y="-94" type="line"/>
      <point x="461" y="282" type="line"/>
      <point x="380" y="282" type="line"/>
      <point x="256" y="36" type="line"/>
      <point x="132" y="282" type="line"/>
      <point x="51" y="282" type="line"/>
    </contour>
  </outline>
</glyph>
<glyph name="perspective" format="2">
  <advance width="560"/>
  <unicode hex="2306"/>
  <note>
uni2306
</note>
  <outline>
    <contour>
      <point x="76" y="0" type="line"/>
      <point x="157" y="0" type="line"/>
      <point x="281" y="246" type="line"/>
      <point x="405" y="0" type="line"/>
      <point x="486" y="0" type="line"/>
      <point x="291" y="376" type="line"/>
      <point x="271" y="376" type="line"/>
    </contour>
    <contour>
      <point x="51" y="449" type="line"/>
      <point x="509" y="449" type="line"/>
      <point x="509" y="520" type="line"/>
      <point x="51" y="520" type="line"/>
    </contour>
    <contour>
      <point x="51" y="608" type="line"/>
      <point x="509" y="608" type="line"/>
      <point x="509" y="679" type="line"/>
      <point x="51" y="679" type="line"/>
    </contour>
  </outline>
</glyph>
<glyph name="wavyLine" format="2">
  <advance width="333"/>
  <unicode hex="2307"/>
  <note>
uni2307
</note>
  <outline>
    <contour>
      <point x="246" y="-100" type="curve"/>
      <point x="283" y="-42" type="line"/>
      <point x="251" y="-24"/>
      <point x="210" y="1"/>
      <point x="181" y="23" type="curve" smooth="yes"/>
      <point x="142" y="53"/>
      <point x="135" y="69"/>
      <point x="135" y="80" type="curve" smooth="yes"/>
      <point x="135" y="91"/>
      <point x="142" y="103"/>
      <point x="168" y="126" type="curve" smooth="yes"/>
      <point x="222" y="173" type="line" smooth="yes"/>
      <point x="261" y="207"/>
      <point x="272" y="230"/>
      <point x="272" y="261" type="curve" smooth="yes"/>
      <point x="272" y="292"/>
      <point x="261" y="315"/>
      <point x="222" y="349" type="curve" smooth="yes"/>
      <point x="168" y="396" type="line" smooth="yes"/>
      <point x="142" y="419"/>
      <point x="135" y="431"/>
      <point x="135" y="441" type="curve" smooth="yes"/>
      <point x="135" y="451"/>
      <point x="142" y="463"/>
      <point x="168" y="486" type="curve" smooth="yes"/>
      <point x="222" y="533" type="line" smooth="yes"/>
      <point x="261" y="567"/>
      <point x="272" y="590"/>
      <point x="272" y="621" type="curve" smooth="yes"/>
      <point x="272" y="652"/>
      <point x="260" y="678"/>
      <point x="221" y="712" type="curve" smooth="yes"/>
      <point x="182" y="746"/>
      <point x="124" y="781"/>
      <point x="89" y="804" type="curve"/>
      <point x="50" y="746" type="line"/>
      <point x="82" y="727"/>
      <point x="132" y="695"/>
      <point x="168" y="664" type="curve" smooth="yes"/>
      <point x="192" y="643"/>
      <point x="199" y="631"/>
      <point x="199" y="621" type="curve" smooth="yes"/>
      <point x="199" y="611"/>
      <point x="192" y="599"/>
      <point x="166" y="576" type="curve" smooth="yes"/>
      <point x="112" y="529" type="line" smooth="yes"/>
      <point x="73" y="495"/>
      <point x="62" y="472"/>
      <point x="62" y="441" type="curve" smooth="yes"/>
      <point x="62" y="410"/>
      <point x="73" y="387"/>
      <point x="112" y="353" type="curve" smooth="yes"/>
      <point x="166" y="306" type="line" smooth="yes"/>
      <point x="192" y="283"/>
      <point x="199" y="271"/>
      <point x="199" y="261" type="curve" smooth="yes"/>
      <point x="199" y="251"/>
      <point x="192" y="239"/>
      <point x="166" y="216" type="curve" smooth="yes"/>
      <point x="112" y="169" type="line" smooth="yes"/>
      <point x="73" y="135"/>
      <point x="62" y="108"/>
      <point x="62" y="79" type="curve" smooth="yes"/>
      <point x="62" y="46"/>
      <point x="77" y="20"/>
      <point x="109" y="-8" type="curve" smooth="yes"/>
      <point x="139" y="-34"/>
      <point x="198" y="-75"/>
    </contour>
  </outline>
</glyph>
<glyph name="leftCeiling" format="2">
  <advance width="404"/>
  <unicode hex="2308"/>
  <note>
uni2308
</note>
  <outline>
    <contour>
      <point x="51" y="-80" type="line"/>
      <point x="122" y="-80" type="line"/>
      <point x="122" y="730" type="line"/>
      <point x="353" y="730" type="line"/>
      <point x="353" y="794" type="line"/>
      <point x="51" y="794" type="line"/>
    </contour>
  </outline>
</glyph>
<glyph name="rightCeiling" format="2">
  <advance width="404"/>
  <unicode hex="2309"/>
  <note>
uni2309
</note>
  <outline>
    <contour>
      <point x="282" y="-80" type="line"/>
      <point x="353" y="-80" type="line"/>
      <point x="353" y="794" type="line"/>
      <point x="51" y="794" type="line"/>
      <point x="51" y="730" type="line"/>
      <point x="282" y="730" type="line"/>
    </contour>
  </outline>
</glyph>
<glyph name="bottomRightCrop" format="2">
  <advance width="522"/>
  <unicode hex="230C"/>
  <note>
uni230C
</note>
  <outline>
    <contour>
      <point x="182" y="0" type="line"/>
      <point x="431" y="0" type="line"/>
      <point x="431" y="71" type="line"/>
      <point x="182" y="71" type="line"/>
    </contour>
    <contour>
      <point x="91" y="-297" type="line"/>
      <point x="162" y="-297" type="line"/>
      <point x="162" y="-48" type="line"/>
      <point x="91" y="-48" type="line"/>
    </contour>
  </outline>
</glyph>
<glyph name="bottomLeftCrop" format="2">
  <advance width="482"/>
  <unicode hex="230D"/>
  <note>
uni230D
</note>
  <outline>
    <contour>
      <point x="71" y="0" type="line"/>
      <point x="320" y="0" type="line"/>
      <point x="320" y="71" type="line"/>
      <point x="71" y="71" type="line"/>
    </contour>
    <contour>
      <point x="340" y="-297" type="line"/>
      <point x="411" y="-297" type="line"/>
      <point x="411" y="-48" type="line"/>
      <point x="340" y="-48" type="line"/>
    </contour>
  </outline>
</glyph>
<glyph name="topRightCrop" format="2">
  <advance width="522"/>
  <unicode hex="230E"/>
  <note>
uni230E
</note>
  <outline>
    <contour>
      <point x="91" y="762" type="line"/>
      <point x="162" y="762" type="line"/>
      <point x="162" y="1011" type="line"/>
      <point x="91" y="1011" type="line"/>
    </contour>
    <contour>
      <point x="182" y="643" type="line"/>
      <point x="431" y="643" type="line"/>
      <point x="431" y="714" type="line"/>
      <point x="182" y="714" type="line"/>
    </contour>
  </outline>
</glyph>
<glyph name="topLeftCrop" format="2">
  <advance width="522"/>
  <unicode hex="230F"/>
  <note>
uni230F
</note>
  <outline>
    <contour>
      <point x="360" y="762" type="line"/>
      <point x="431" y="762" type="line"/>
      <point x="431" y="1011" type="line"/>
      <point x="360" y="1011" type="line"/>
    </contour>
    <contour>
      <point x="91" y="643" type="line"/>
      <point x="340" y="643" type="line"/>
      <point x="340" y="714" type="line"/>
      <point x="91" y="714" type="line"/>
    </contour>
  </outline>
</glyph>
<glyph name="squareLozenge" format="2">
  <advance width="516"/>
  <unicode hex="2311"/>
  <note>
uni2311
</note>
  <outline>
    <contour>
      <point x="51" y="133" type="curve"/>
      <point x="127" y="174"/>
      <point x="196" y="195"/>
      <point x="258" y="195" type="curve" smooth="yes"/>
      <point x="320" y="195"/>
      <point x="389" y="174"/>
      <point x="465" y="133" type="curve"/>
      <point x="443" y="182"/>
      <point x="418" y="285"/>
      <point x="418" y="355" type="curve" smooth="yes"/>
      <point x="418" y="423"/>
      <point x="441" y="525"/>
      <point x="465" y="577" type="curve"/>
      <point x="398" y="538"/>
      <point x="322" y="515"/>
      <point x="258" y="515" type="curve" smooth="yes"/>
      <point x="194" y="515"/>
      <point x="120" y="538"/>
      <point x="51" y="577" type="curve"/>
      <point x="76" y="520"/>
      <point x="98" y="423"/>
      <point x="98" y="355" type="curve" smooth="yes"/>
      <point x="98" y="285"/>
      <point x="74" y="184"/>
    </contour>
    <contour>
      <point x="141" y="237" type="curve"/>
      <point x="153" y="261"/>
      <point x="161" y="308"/>
      <point x="161" y="355" type="curve" smooth="yes"/>
      <point x="161" y="403"/>
      <point x="153" y="448"/>
      <point x="141" y="473" type="curve"/>
      <point x="165" y="463"/>
      <point x="210" y="452"/>
      <point x="258" y="452" type="curve" smooth="yes"/>
      <point x="306" y="452"/>
      <point x="351" y="463"/>
      <point x="375" y="473" type="curve"/>
      <point x="365" y="454"/>
      <point x="355" y="405"/>
      <point x="355" y="355" type="curve" smooth="yes"/>
      <point x="355" y="308"/>
      <point x="365" y="256"/>
      <point x="375" y="237" type="curve"/>
      <point x="351" y="247"/>
      <point x="306" y="258"/>
      <point x="258" y="258" type="curve" smooth="yes"/>
      <point x="210" y="258"/>
      <point x="165" y="247"/>
    </contour>
  </outline>
</glyph>
<glyph name="arc" format="2">
  <advance width="844"/>
  <unicode hex="2312"/>
  <note>
uni2312
</note>
  <outline>
    <contour>
      <point x="51" y="112" type="curve"/>
      <point x="122" y="112" type="line"/>
      <point x="122" y="278"/>
      <point x="257" y="412"/>
      <point x="422" y="412" type="curve" smooth="yes"/>
      <point x="589" y="412"/>
      <point x="722" y="278"/>
      <point x="722" y="112" type="curve"/>
      <point x="793" y="112" type="line"/>
      <point x="793" y="318"/>
      <point x="626" y="483"/>
      <point x="422" y="483" type="curve" smooth="yes"/>
      <point x="216" y="483"/>
      <point x="51" y="316"/>
    </contour>
  </outline>
</glyph>
<glyph name="segment" format="2">
  <advance width="844"/>
  <unicode hex="2313"/>
  <note>
uni2313
</note>
  <outline>
    <contour>
      <point x="51" y="112" type="curve"/>
      <point x="793" y="112" type="line"/>
      <point x="793" y="318"/>
      <point x="626" y="483"/>
      <point x="422" y="483" type="curve" smooth="yes"/>
      <point x="216" y="483"/>
      <point x="51" y="316"/>
    </contour>
    <contour>
      <point x="128" y="175" type="line"/>
      <point x="157" y="311"/>
      <point x="280" y="412"/>
      <point x="422" y="412" type="curve" smooth="yes"/>
      <point x="562" y="412"/>
      <point x="686" y="312"/>
      <point x="715" y="175" type="curve"/>
    </contour>
  </outline>
</glyph>
<glyph name="sector" format="2">
  <advance width="564"/>
  <unicode hex="2314"/>
  <note>
uni2314
</note>
  <outline>
    <contour>
      <point x="282" y="112" type="line"/>
      <point x="539" y="380" type="line"/>
      <point x="472" y="444"/>
      <point x="383" y="483"/>
      <point x="282" y="483" type="curve" smooth="yes"/>
      <point x="181" y="483"/>
      <point x="92" y="444"/>
      <point x="25" y="380" type="curve"/>
    </contour>
    <contour>
      <point x="282" y="200" type="line"/>
      <point x="125" y="368" type="line"/>
      <point x="171" y="396"/>
      <point x="224" y="412"/>
      <point x="282" y="412" type="curve" smooth="yes"/>
      <point x="340" y="412"/>
      <point x="393" y="396"/>
      <point x="439" y="368" type="curve"/>
    </contour>
  </outline>
</glyph>
<glyph name="telephoneRecorder" format="2">
  <advance width="634"/>
  <unicode hex="2315"/>
  <note>
uni2315
</note>
  <outline>
    <contour>
      <point x="90" y="43" type="line"/>
      <point x="215" y="166" type="line"/>
      <point x="255" y="137"/>
      <point x="300" y="122"/>
      <point x="351" y="122" type="curve" smooth="yes"/>
      <point x="478" y="122"/>
      <point x="583" y="227"/>
      <point x="583" y="354" type="curve" smooth="yes"/>
      <point x="583" y="481"/>
      <point x="478" y="586"/>
      <point x="351" y="586" type="curve" smooth="yes"/>
      <point x="224" y="586"/>
      <point x="119" y="481"/>
      <point x="119" y="354" type="curve" smooth="yes"/>
      <point x="119" y="298"/>
      <point x="137" y="249"/>
      <point x="173" y="205" type="curve"/>
      <point x="51" y="85" type="line"/>
    </contour>
    <contour>
      <point x="351" y="185" type="curve" smooth="yes"/>
      <point x="257" y="185"/>
      <point x="182" y="260"/>
      <point x="182" y="354" type="curve" smooth="yes"/>
      <point x="182" y="448"/>
      <point x="257" y="523"/>
      <point x="351" y="523" type="curve" smooth="yes"/>
      <point x="444" y="523"/>
      <point x="520" y="448"/>
      <point x="520" y="354" type="curve" smooth="yes"/>
      <point x="520" y="259"/>
      <point x="443" y="185"/>
    </contour>
  </outline>
</glyph>
<glyph name="viewdataSquare" format="2">
  <advance width="823"/>
  <unicode hex="2317"/>
  <note>
uni2317
</note>
  <outline>
    <contour>
      <point x="51" y="111" type="line"/>
      <point x="772" y="111" type="line"/>
      <point x="772" y="180" type="line"/>
      <point x="51" y="180" type="line"/>
    </contour>
    <contour>
      <point x="51" y="535" type="line"/>
      <point x="772" y="535" type="line"/>
      <point x="772" y="604" type="line"/>
      <point x="51" y="604" type="line"/>
    </contour>
    <contour>
      <point x="165" y="-3" type="line"/>
      <point x="234" y="-3" type="line"/>
      <point x="234" y="718" type="line"/>
      <point x="165" y="718" type="line"/>
    </contour>
    <contour>
      <point x="589" y="-3" type="line"/>
      <point x="658" y="-3" type="line"/>
      <point x="658" y="718" type="line"/>
      <point x="589" y="718" type="line"/>
    </contour>
  </outline>
</glyph>
<glyph name="topLeftCorner" format="2">
  <advance width="442"/>
  <unicode hex="231C"/>
  <note>
uni231C
</note>
  <outline>
    <contour>
      <point x="51" y="346" type="line"/>
      <point x="122" y="346" type="line"/>
      <point x="122" y="643" type="line"/>
      <point x="391" y="643" type="line"/>
      <point x="391" y="714" type="line"/>
      <point x="51" y="714" type="line"/>
    </contour>
  </outline>
</glyph>
<glyph name="topRightcorner" format="2">
  <advance width="442"/>
  <unicode hex="231D"/>
  <note>
uni231D
</note>
  <outline>
    <contour>
      <point x="320" y="346" type="line"/>
      <point x="391" y="346" type="line"/>
      <point x="391" y="714" type="line"/>
      <point x="51" y="714" type="line"/>
      <point x="51" y="643" type="line"/>
      <point x="320" y="643" type="line"/>
    </contour>
  </outline>
</glyph>
<glyph name="bottomRightCorner" format="2">
  <advance width="442"/>
  <unicode hex="231F"/>
  <note>
uni231F
</note>
  <outline>
    <contour>
      <point x="51" y="0" type="line"/>
      <point x="391" y="0" type="line"/>
      <point x="391" y="368" type="line"/>
      <point x="320" y="368" type="line"/>
      <point x="320" y="71" type="line"/>
      <point x="51" y="71" type="line"/>
    </contour>
  </outline>
</glyph>
<glyph name="frown" format="2">
  <advance width="951"/>
  <unicode hex="2322"/>
  <note>
uni2322
</note>
  <outline>
    <contour>
      <point x="51" y="208" type="curve"/>
      <point x="144" y="208" type="line"/>
      <point x="232" y="296"/>
      <point x="352" y="344"/>
      <point x="475" y="344" type="curve" smooth="yes"/>
      <point x="598" y="344"/>
      <point x="716" y="296"/>
      <point x="806" y="208" type="curve"/>
      <point x="900" y="208" type="line"/>
      <point x="798" y="337"/>
      <point x="643" y="415"/>
      <point x="475" y="415" type="curve" smooth="yes"/>
      <point x="309" y="415"/>
      <point x="152" y="337"/>
    </contour>
  </outline>
</glyph>
<glyph name="smile" format="2">
  <advance width="951"/>
  <unicode hex="2323"/>
  <note>
uni2323
</note>
  <outline>
    <contour>
      <point x="475" y="96" type="curve" smooth="yes"/>
      <point x="643" y="96"/>
      <point x="798" y="173"/>
      <point x="900" y="303" type="curve"/>
      <point x="806" y="303" type="line"/>
      <point x="720" y="217"/>
      <point x="602" y="167"/>
      <point x="475" y="167" type="curve" smooth="yes"/>
      <point x="348" y="167"/>
      <point x="228" y="217"/>
      <point x="144" y="303" type="curve"/>
      <point x="51" y="303" type="line"/>
      <point x="153" y="172"/>
      <point x="309" y="96"/>
    </contour>
  </outline>
</glyph>
<glyph name="angleLeft" format="2">
  <advance width="292"/>
  <unicode hex="2329"/>
  <note>
angleleft
</note>
  <outline>
    <contour>
      <point x="166" y="-200" type="line"/>
      <point x="241" y="-200" type="line"/>
      <point x="100" y="277" type="line"/>
      <point x="241" y="754" type="line"/>
      <point x="166" y="754" type="line"/>
      <point x="25" y="277" type="line"/>
    </contour>
  </outline>
</glyph>
<glyph name="angleRight" format="2">
  <advance width="292"/>
  <unicode hex="232A"/>
  <note>
angleright
</note>
  <outline>
    <contour>
      <point x="51" y="-200" type="line"/>
      <point x="126" y="-200" type="line"/>
      <point x="267" y="277" type="line"/>
      <point x="126" y="754" type="line"/>
      <point x="51" y="754" type="line"/>
      <point x="192" y="277" type="line"/>
    </contour>
  </outline>
</glyph>
<glyph name="benzenering" format="2">
  <advance width="788"/>
  <unicode hex="232C"/>
  <note>
uni232C
</note>
  <outline>
    <contour>
      <point x="394" y="-1" type="line"/>
      <point x="737" y="168" type="line"/>
      <point x="737" y="610" type="line"/>
      <point x="394" y="779" type="line"/>
      <point x="51" y="610" type="line"/>
      <point x="51" y="168" type="line"/>
    </contour>
    <contour>
      <point x="173" y="234" type="line"/>
      <point x="216" y="234" type="line"/>
      <point x="216" y="544" type="line"/>
      <point x="173" y="544" type="line"/>
    </contour>
    <contour>
      <point x="403" y="138" type="line"/>
      <point x="622" y="246" type="line"/>
      <point x="602" y="285" type="line"/>
      <point x="384" y="177" type="line"/>
    </contour>
    <contour>
      <point x="394" y="74" type="line"/>
      <point x="119" y="208" type="line"/>
      <point x="119" y="570" type="line"/>
      <point x="394" y="704" type="line"/>
      <point x="669" y="570" type="line"/>
      <point x="669" y="208" type="line"/>
    </contour>
    <contour>
      <point x="602" y="493" type="line"/>
      <point x="622" y="532" type="line"/>
      <point x="403" y="640" type="line"/>
      <point x="384" y="601" type="line"/>
    </contour>
  </outline>
</glyph>
<glyph name="cylindricity" format="2">
  <advance width="925"/>
  <unicode hex="232D"/>
  <note>
uni232D
</note>
  <outline>
    <contour>
      <point x="111" y="41" type="line"/>
      <point x="259" y="294" type="line"/>
      <point x="286" y="206"/>
      <point x="368" y="144"/>
      <point x="462" y="144" type="curve" smooth="yes"/>
      <point x="478" y="144"/>
      <point x="493" y="146"/>
      <point x="507" y="149" type="curve"/>
      <point x="465" y="76" type="line"/>
      <point x="525" y="41" type="line"/>
      <point x="874" y="638" type="line"/>
      <point x="813" y="673" type="line"/>
      <point x="664" y="418" type="line"/>
      <point x="638" y="506"/>
      <point x="556" y="568"/>
      <point x="462" y="568" type="curve" smooth="yes"/>
      <point x="446" y="568"/>
      <point x="431" y="566"/>
      <point x="416" y="563" type="curve"/>
      <point x="460" y="638" type="line"/>
      <point x="399" y="673" type="line"/>
      <point x="51" y="76" type="line"/>
    </contour>
    <contour>
      <point x="462" y="213" type="curve" smooth="yes"/>
      <point x="382" y="213"/>
      <point x="319" y="276"/>
      <point x="319" y="356" type="curve" smooth="yes"/>
      <point x="319" y="436"/>
      <point x="384" y="499"/>
      <point x="462" y="499" type="curve" smooth="yes"/>
      <point x="540" y="499"/>
      <point x="605" y="434"/>
      <point x="605" y="356" type="curve" smooth="yes"/>
      <point x="605" y="278"/>
      <point x="542" y="213"/>
    </contour>
  </outline>
</glyph>
<glyph name="allAroundProfile" format="2">
  <advance width="710"/>
  <unicode hex="232E"/>
  <note>
uni232E
</note>
  <outline>
    <contour>
      <point x="208" y="49" type="line"/>
      <point x="145" y="111" type="line"/>
      <point x="206" y="173" type="line"/>
      <point x="245" y="145"/>
      <point x="288" y="131"/>
      <point x="335" y="131" type="curve" smooth="yes"/>
      <point x="446" y="131"/>
      <point x="542" y="219"/>
      <point x="552" y="328" type="curve"/>
      <point x="659" y="328" type="line"/>
      <point x="659" y="371" type="line"/>
      <point x="552" y="371" type="line"/>
      <point x="541" y="480"/>
      <point x="447" y="567"/>
      <point x="335" y="567" type="curve" smooth="yes"/>
      <point x="216" y="567"/>
      <point x="117" y="469"/>
      <point x="117" y="349" type="curve" smooth="yes"/>
      <point x="117" y="292"/>
      <point x="136" y="244"/>
      <point x="174" y="202" type="curve"/>
      <point x="114" y="141" type="line"/>
      <point x="51" y="202" type="line"/>
      <point x="59" y="55" type="line"/>
    </contour>
    <contour>
      <point x="335" y="181" type="curve" smooth="yes"/>
      <point x="300" y="181"/>
      <point x="269" y="190"/>
      <point x="241" y="209" type="curve"/>
      <point x="358" y="328" type="line"/>
      <point x="502" y="328" type="line"/>
      <point x="492" y="245"/>
      <point x="420" y="181"/>
    </contour>
    <contour>
      <point x="209" y="237" type="line"/>
      <point x="181" y="270"/>
      <point x="167" y="307"/>
      <point x="167" y="349" type="curve" smooth="yes"/>
      <point x="167" y="441"/>
      <point x="242" y="517"/>
      <point x="335" y="517" type="curve" smooth="yes"/>
      <point x="419" y="517"/>
      <point x="492" y="453"/>
      <point x="502" y="371" type="curve"/>
      <point x="341" y="371" type="line"/>
    </contour>
  </outline>
</glyph>
<glyph name="symmetry" format="2">
  <advance width="572"/>
  <unicode hex="232F"/>
  <note>
uni232F
</note>
  <outline>
    <contour>
      <point x="50" y="317" type="line"/>
      <point x="521" y="317" type="line"/>
      <point x="521" y="388" type="line"/>
      <point x="50" y="388" type="line"/>
    </contour>
    <contour>
      <point x="140" y="177" type="line"/>
      <point x="431" y="177" type="line"/>
      <point x="431" y="248" type="line"/>
      <point x="140" y="248" type="line"/>
    </contour>
    <contour>
      <point x="140" y="457" type="line"/>
      <point x="431" y="457" type="line"/>
      <point x="431" y="528" type="line"/>
      <point x="140" y="528" type="line"/>
    </contour>
  </outline>
</glyph>
<glyph name="totalRunout" format="2">
  <advance width="809"/>
  <unicode hex="2330"/>
  <note>
uni2330
</note>
  <outline>
    <contour>
      <point x="51" y="0" type="line"/>
      <point x="501" y="0" type="line"/>
      <point x="682" y="607" type="line"/>
      <point x="758" y="581" type="line"/>
      <point x="681" y="710" type="line"/>
      <point x="541" y="656" type="line"/>
      <point x="615" y="631" type="line"/>
      <point x="450" y="71" type="line"/>
      <point x="145" y="71" type="line"/>
      <point x="304" y="607" type="line"/>
      <point x="380" y="581" type="line"/>
      <point x="303" y="710" type="line"/>
      <point x="163" y="656" type="line"/>
      <point x="237" y="631" type="line"/>
    </contour>
  </outline>
</glyph>
<glyph name="dimensionOrigin" format="2">
  <advance width="810"/>
  <unicode hex="2331"/>
  <note>
uni2331
</note>
  <outline>
    <contour>
      <point x="269" y="130" type="curve" smooth="yes"/>
      <point x="390" y="130"/>
      <point x="488" y="228"/>
      <point x="488" y="349" type="curve" smooth="yes"/>
      <point x="488" y="470"/>
      <point x="390" y="568"/>
      <point x="269" y="568" type="curve" smooth="yes"/>
      <point x="148" y="568"/>
      <point x="50" y="470"/>
      <point x="50" y="349" type="curve" smooth="yes"/>
      <point x="50" y="228"/>
      <point x="148" y="130"/>
    </contour>
    <contour>
      <point x="269" y="180" type="curve" smooth="yes"/>
      <point x="176" y="180"/>
      <point x="100" y="256"/>
      <point x="100" y="349" type="curve" smooth="yes"/>
      <point x="100" y="442"/>
      <point x="176" y="518"/>
      <point x="269" y="518" type="curve" smooth="yes"/>
      <point x="362" y="518"/>
      <point x="438" y="442"/>
      <point x="438" y="349" type="curve" smooth="yes"/>
      <point x="438" y="256"/>
      <point x="362" y="180"/>
    </contour>
    <contour>
      <point x="245" y="0" type="line"/>
      <point x="293" y="0" type="line"/>
      <point x="293" y="714" type="line"/>
      <point x="245" y="714" type="line"/>
    </contour>
    <contour>
      <point x="282" y="328" type="line"/>
      <point x="671" y="328" type="line"/>
      <point x="671" y="371" type="line"/>
      <point x="282" y="371" type="line"/>
    </contour>
    <contour>
      <point x="660" y="241" type="line"/>
      <point x="759" y="350" type="line"/>
      <point x="660" y="459" type="line"/>
    </contour>
  </outline>
</glyph>
<glyph name="conicalTaper" format="2">
  <advance width="872"/>
  <unicode hex="2332"/>
  <note>
uni2332
</note>
  <outline>
    <contour>
      <point x="51" y="-44" type="line"/>
      <point x="821" y="282" type="line"/>
      <point x="821" y="314" type="line"/>
      <point x="51" y="640" type="line"/>
    </contour>
    <contour>
      <point x="122" y="55" type="line"/>
      <point x="122" y="264" type="line"/>
      <point x="610" y="264" type="line"/>
    </contour>
    <contour>
      <point x="122" y="333" type="line"/>
      <point x="122" y="541" type="line"/>
      <point x="608" y="333" type="line"/>
    </contour>
  </outline>
</glyph>
<glyph name="slope" format="2">
  <advance width="872"/>
  <unicode hex="2333"/>
  <note>
uni2333
</note>
  <outline>
    <contour>
      <point x="51" y="264" type="line"/>
      <point x="821" y="264" type="line"/>
      <point x="821" y="282" type="line"/>
      <point x="51" y="640" type="line"/>
    </contour>
    <contour>
      <point x="122" y="333" type="line"/>
      <point x="122" y="541" type="line"/>
      <point x="561" y="333" type="line"/>
    </contour>
  </outline>
</glyph>
<glyph name="counterbore" format="2">
  <advance width="715"/>
  <unicode hex="2334"/>
  <note>
uni2334
</note>
  <outline>
    <contour>
      <point x="51" y="0" type="line"/>
      <point x="664" y="0" type="line"/>
      <point x="664" y="354" type="line"/>
      <point x="592" y="354" type="line"/>
      <point x="592" y="71" type="line"/>
      <point x="123" y="71" type="line"/>
      <point x="123" y="354" type="line"/>
      <point x="51" y="354" type="line"/>
    </contour>
  </outline>
</glyph>
<glyph name="countersink" format="2">
  <advance width="976"/>
  <unicode hex="2335"/>
  <note>
uni2335
</note>
  <outline>
    <contour>
      <point x="488" y="-22" type="line"/>
      <point x="925" y="354" type="line"/>
      <point x="814" y="354" type="line"/>
      <point x="488" y="72" type="line"/>
      <point x="162" y="354" type="line"/>
      <point x="51" y="354" type="line"/>
    </contour>
  </outline>
</glyph>
<glyph name="insertionsymbol" format="2">
  <advance width="812"/>
  <unicode hex="2380"/>
  <note>
uni2380
</note>
  <outline>
    <contour>
      <point x="406" y="-33" type="line"/>
      <point x="761" y="372" type="line"/>
      <point x="669" y="372" type="line"/>
      <point x="406" y="73" type="line"/>
      <point x="143" y="372" type="line"/>
      <point x="51" y="372" type="line"/>
    </contour>
    <contour>
      <point x="375" y="404" type="curve" smooth="yes"/>
      <point x="339" y="404"/>
      <point x="321" y="420"/>
      <point x="321" y="452" type="curve" smooth="yes"/>
      <point x="321" y="493"/>
      <point x="349" y="509"/>
      <point x="423" y="512" type="curve" smooth="yes"/>
      <point x="471" y="514" type="line"/>
      <point x="471" y="491" type="line" smooth="yes"/>
      <point x="471" y="433"/>
      <point x="439" y="404"/>
    </contour>
    <contour>
      <point x="360" y="353" type="curve" smooth="yes"/>
      <point x="410" y="353"/>
      <point x="452" y="373"/>
      <point x="485" y="413" type="curve"/>
      <point x="468" y="422" type="line"/>
      <point x="486" y="359" type="line"/>
      <point x="533" y="359" type="line"/>
      <point x="533" y="579" type="line" smooth="yes"/>
      <point x="533" y="659"/>
      <point x="488" y="692"/>
      <point x="402" y="692" type="curve" smooth="yes"/>
      <point x="357" y="692"/>
      <point x="316" y="682"/>
      <point x="277" y="663" type="curve"/>
      <point x="299" y="614" type="line"/>
      <point x="334" y="631"/>
      <point x="368" y="640"/>
      <point x="400" y="640" type="curve" smooth="yes"/>
      <point x="444" y="640"/>
      <point x="471" y="621"/>
      <point x="471" y="581" type="curve" smooth="yes"/>
      <point x="471" y="559" type="line"/>
      <point x="415" y="557" type="line" smooth="yes"/>
      <point x="308" y="553"/>
      <point x="257" y="519"/>
      <point x="257" y="452" type="curve" smooth="yes"/>
      <point x="257" y="384"/>
      <point x="297" y="353"/>
    </contour>
  </outline>
</glyph>
<glyph name="continuousunderlinesymbol" format="2">
  <advance width="812"/>
  <unicode hex="2381"/>
  <note>
uni2381
</note>
  <outline>
    <contour>
      <point x="173" y="353" type="curve" smooth="yes"/>
      <point x="223" y="353"/>
      <point x="265" y="373"/>
      <point x="298" y="413" type="curve"/>
      <point x="281" y="422" type="line"/>
      <point x="299" y="359" type="line"/>
      <point x="346" y="359" type="line"/>
      <point x="346" y="579" type="line" smooth="yes"/>
      <point x="346" y="659"/>
      <point x="301" y="692"/>
      <point x="215" y="692" type="curve" smooth="yes"/>
      <point x="170" y="692"/>
      <point x="129" y="682"/>
      <point x="90" y="663" type="curve"/>
      <point x="112" y="614" type="line"/>
      <point x="147" y="631"/>
      <point x="181" y="640"/>
      <point x="213" y="640" type="curve" smooth="yes"/>
      <point x="257" y="640"/>
      <point x="284" y="621"/>
      <point x="284" y="581" type="curve" smooth="yes"/>
      <point x="284" y="559" type="line"/>
      <point x="228" y="557" type="line" smooth="yes"/>
      <point x="121" y="553"/>
      <point x="70" y="519"/>
      <point x="70" y="452" type="curve" smooth="yes"/>
      <point x="70" y="384"/>
      <point x="110" y="353"/>
    </contour>
    <contour>
      <point x="60" y="219" type="line"/>
      <point x="751" y="219" type="line"/>
      <point x="751" y="290" type="line"/>
      <point x="60" y="290" type="line"/>
    </contour>
    <contour>
      <point x="188" y="404" type="curve" smooth="yes"/>
      <point x="152" y="404"/>
      <point x="134" y="420"/>
      <point x="134" y="452" type="curve" smooth="yes"/>
      <point x="134" y="493"/>
      <point x="162" y="509"/>
      <point x="236" y="512" type="curve" smooth="yes"/>
      <point x="284" y="514" type="line"/>
      <point x="284" y="491" type="line" smooth="yes"/>
      <point x="284" y="433"/>
      <point x="252" y="404"/>
    </contour>
    <contour>
      <point x="438" y="339" type="curve" smooth="yes"/>
      <point x="460" y="339"/>
      <point x="477" y="356"/>
      <point x="477" y="378" type="curve" smooth="yes"/>
      <point x="477" y="400"/>
      <point x="460" y="417"/>
      <point x="438" y="417" type="curve" smooth="yes"/>
      <point x="416" y="417"/>
      <point x="399" y="400"/>
      <point x="399" y="378" type="curve" smooth="yes"/>
      <point x="399" y="356"/>
      <point x="416" y="339"/>
    </contour>
    <contour>
      <point x="575" y="339" type="curve" smooth="yes"/>
      <point x="597" y="339"/>
      <point x="614" y="356"/>
      <point x="614" y="378" type="curve" smooth="yes"/>
      <point x="614" y="400"/>
      <point x="597" y="417"/>
      <point x="575" y="417" type="curve" smooth="yes"/>
      <point x="553" y="417"/>
      <point x="536" y="400"/>
      <point x="536" y="378" type="curve" smooth="yes"/>
      <point x="536" y="356"/>
      <point x="553" y="339"/>
    </contour>
    <contour>
      <point x="712" y="339" type="curve" smooth="yes"/>
      <point x="734" y="339"/>
      <point x="751" y="356"/>
      <point x="751" y="378" type="curve" smooth="yes"/>
      <point x="751" y="400"/>
      <point x="734" y="417"/>
      <point x="712" y="417" type="curve" smooth="yes"/>
      <point x="690" y="417"/>
      <point x="673" y="400"/>
      <point x="673" y="378" type="curve" smooth="yes"/>
      <point x="673" y="356"/>
      <point x="690" y="339"/>
    </contour>
  </outline>
</glyph>
<glyph name="discontinuousunderlinesymbol" format="2">
  <advance width="812"/>
  <unicode hex="2382"/>
  <note>
uni2382
</note>
  <outline>
    <contour>
      <point x="561" y="353" type="curve" smooth="yes"/>
      <point x="611" y="353"/>
      <point x="652" y="373"/>
      <point x="686" y="413" type="curve"/>
      <point x="668" y="422" type="line"/>
      <point x="687" y="359" type="line"/>
      <point x="734" y="359" type="line"/>
      <point x="734" y="579" type="line" smooth="yes"/>
      <point x="734" y="657"/>
      <point x="691" y="692"/>
      <point x="603" y="692" type="curve" smooth="yes"/>
      <point x="559" y="692"/>
      <point x="517" y="682"/>
      <point x="478" y="663" type="curve"/>
      <point x="500" y="614" type="line"/>
      <point x="535" y="631"/>
      <point x="569" y="640"/>
      <point x="601" y="640" type="curve" smooth="yes"/>
      <point x="646" y="640"/>
      <point x="672" y="620"/>
      <point x="672" y="581" type="curve" smooth="yes"/>
      <point x="672" y="559" type="line"/>
      <point x="616" y="557" type="line" smooth="yes"/>
      <point x="508" y="553"/>
      <point x="458" y="519"/>
      <point x="458" y="452" type="curve" smooth="yes"/>
      <point x="458" y="384"/>
      <point x="498" y="353"/>
    </contour>
    <contour>
      <point x="77" y="219" type="line"/>
      <point x="364" y="219" type="line"/>
      <point x="364" y="290" type="line"/>
      <point x="77" y="290" type="line"/>
    </contour>
    <contour>
      <point x="205" y="404" type="curve" smooth="yes"/>
      <point x="169" y="404"/>
      <point x="151" y="420"/>
      <point x="151" y="452" type="curve" smooth="yes"/>
      <point x="151" y="493"/>
      <point x="179" y="509"/>
      <point x="253" y="512" type="curve" smooth="yes"/>
      <point x="301" y="514" type="line"/>
      <point x="301" y="491" type="line" smooth="yes"/>
      <point x="301" y="433"/>
      <point x="269" y="404"/>
    </contour>
    <contour>
      <point x="190" y="353" type="curve" smooth="yes"/>
      <point x="240" y="353"/>
      <point x="282" y="373"/>
      <point x="315" y="413" type="curve"/>
      <point x="298" y="422" type="line"/>
      <point x="316" y="359" type="line"/>
      <point x="363" y="359" type="line"/>
      <point x="363" y="579" type="line" smooth="yes"/>
      <point x="363" y="657"/>
      <point x="320" y="692"/>
      <point x="232" y="692" type="curve" smooth="yes"/>
      <point x="188" y="692"/>
      <point x="146" y="682"/>
      <point x="107" y="663" type="curve"/>
      <point x="129" y="614" type="line"/>
      <point x="165" y="631"/>
      <point x="198" y="640"/>
      <point x="230" y="640" type="curve" smooth="yes"/>
      <point x="275" y="640"/>
      <point x="301" y="620"/>
      <point x="301" y="581" type="curve" smooth="yes"/>
      <point x="301" y="559" type="line"/>
      <point x="245" y="557" type="line" smooth="yes"/>
      <point x="138" y="553"/>
      <point x="87" y="519"/>
      <point x="87" y="452" type="curve" smooth="yes"/>
      <point x="87" y="384"/>
      <point x="127" y="353"/>
    </contour>
    <contour>
      <point x="448" y="219" type="line"/>
      <point x="735" y="219" type="line"/>
      <point x="735" y="290" type="line"/>
      <point x="448" y="290" type="line"/>
    </contour>
    <contour>
      <point x="576" y="404" type="curve" smooth="yes"/>
      <point x="540" y="404"/>
      <point x="522" y="420"/>
      <point x="522" y="452" type="curve" smooth="yes"/>
      <point x="522" y="493"/>
      <point x="550" y="509"/>
      <point x="624" y="512" type="curve" smooth="yes"/>
      <point x="672" y="514" type="line"/>
      <point x="672" y="491" type="line" smooth="yes"/>
      <point x="672" y="433"/>
      <point x="640" y="404"/>
    </contour>
  </outline>
</glyph>
<glyph name="emphasissymbol" format="2">
  <advance width="812"/>
  <unicode hex="2383"/>
  <note>
uni2383
</note>
  <outline>
    <contour>
      <point x="365" y="187" type="curve" smooth="yes"/>
      <point x="416" y="187"/>
      <point x="457" y="207"/>
      <point x="490" y="247" type="curve"/>
      <point x="473" y="256" type="line"/>
      <point x="492" y="193" type="line"/>
      <point x="539" y="193" type="line"/>
      <point x="539" y="413" type="line" smooth="yes"/>
      <point x="539" y="491"/>
      <point x="496" y="526"/>
      <point x="407" y="526" type="curve" smooth="yes"/>
      <point x="363" y="526"/>
      <point x="321" y="516"/>
      <point x="282" y="497" type="curve"/>
      <point x="305" y="448" type="line"/>
      <point x="339" y="465"/>
      <point x="373" y="474"/>
      <point x="405" y="474" type="curve" smooth="yes"/>
      <point x="450" y="474"/>
      <point x="477" y="455"/>
      <point x="477" y="415" type="curve" smooth="yes"/>
      <point x="477" y="393" type="line"/>
      <point x="420" y="391" type="line" smooth="yes"/>
      <point x="313" y="387"/>
      <point x="263" y="353"/>
      <point x="263" y="286" type="curve" smooth="yes"/>
      <point x="263" y="219"/>
      <point x="302" y="187"/>
    </contour>
    <contour>
      <point x="78" y="156" type="line"/>
      <point x="226" y="217" type="line"/>
      <point x="226" y="280" type="line"/>
      <point x="52" y="214" type="line"/>
    </contour>
    <contour>
      <point x="39" y="322" type="line"/>
      <point x="226" y="322" type="line"/>
      <point x="226" y="385" type="line"/>
      <point x="39" y="385" type="line"/>
    </contour>
    <contour>
      <point x="226" y="427" type="line"/>
      <point x="226" y="490" type="line"/>
      <point x="78" y="556" type="line"/>
      <point x="52" y="499" type="line"/>
    </contour>
    <contour>
      <point x="380" y="238" type="curve" smooth="yes"/>
      <point x="345" y="238"/>
      <point x="327" y="254"/>
      <point x="327" y="286" type="curve" smooth="yes"/>
      <point x="327" y="326"/>
      <point x="355" y="343"/>
      <point x="428" y="346" type="curve" smooth="yes"/>
      <point x="477" y="348" type="line"/>
      <point x="477" y="325" type="line" smooth="yes"/>
      <point x="477" y="267"/>
      <point x="444" y="238"/>
    </contour>
    <contour>
      <point x="733" y="156" type="line"/>
      <point x="758" y="214" type="line"/>
      <point x="586" y="280" type="line"/>
      <point x="586" y="217" type="line"/>
    </contour>
    <contour>
      <point x="586" y="322" type="line"/>
      <point x="773" y="322" type="line"/>
      <point x="773" y="385" type="line"/>
      <point x="586" y="385" type="line"/>
    </contour>
    <contour>
      <point x="586" y="427" type="line"/>
      <point x="758" y="499" type="line"/>
      <point x="733" y="556" type="line"/>
      <point x="586" y="490" type="line"/>
    </contour>
  </outline>
</glyph>
<glyph name="compositionsymbol" format="2">
  <advance width="1173"/>
  <unicode hex="2384"/>
  <note>
uni2384
</note>
  <outline>
    <contour>
      <point x="51" y="0" type="line"/>
      <point x="765" y="0" type="line" smooth="yes"/>
      <point x="962" y="0"/>
      <point x="1122" y="160"/>
      <point x="1122" y="357" type="curve" smooth="yes"/>
      <point x="1122" y="555"/>
      <point x="962" y="714"/>
      <point x="765" y="714" type="curve" smooth="yes"/>
      <point x="51" y="714" type="line"/>
    </contour>
    <contour>
      <point x="122" y="71" type="line"/>
      <point x="122" y="643" type="line"/>
      <point x="551" y="643" type="line"/>
      <point x="460" y="575"/>
      <point x="408" y="470"/>
      <point x="408" y="357" type="curve" smooth="yes"/>
      <point x="408" y="243"/>
      <point x="461" y="137"/>
      <point x="551" y="71" type="curve"/>
    </contour>
    <contour>
      <point x="729" y="73" type="line"/>
      <point x="587" y="90"/>
      <point x="479" y="213"/>
      <point x="479" y="357" type="curve" smooth="yes"/>
      <point x="479" y="502"/>
      <point x="588" y="624"/>
      <point x="729" y="641" type="curve"/>
    </contour>
    <contour>
      <point x="800" y="73" type="curve"/>
      <point x="800" y="641" type="line"/>
      <point x="942" y="622"/>
      <point x="1051" y="501"/>
      <point x="1051" y="357" type="curve" smooth="yes"/>
      <point x="1051" y="214"/>
      <point x="943" y="90"/>
    </contour>
  </outline>
</glyph>
<glyph name="whitesquarecentreverticalline" format="2">
  <advance width="805"/>
  <unicode hex="2385"/>
  <note>
uni2385
</note>
  <outline>
    <contour>
      <point x="501" y="0" type="line"/>
      <point x="754" y="0" type="line"/>
      <point x="754" y="714" type="line"/>
      <point x="501" y="714" type="line"/>
      <point x="501" y="643" type="line"/>
      <point x="683" y="643" type="line"/>
      <point x="683" y="71" type="line"/>
      <point x="501" y="71" type="line"/>
    </contour>
    <contour>
      <point x="51" y="0" type="line"/>
      <point x="304" y="0" type="line"/>
      <point x="304" y="71" type="line"/>
      <point x="122" y="71" type="line"/>
      <point x="122" y="643" type="line"/>
      <point x="304" y="643" type="line"/>
      <point x="304" y="714" type="line"/>
      <point x="51" y="714" type="line"/>
    </contour>
    <contour>
      <point x="368" y="-165" type="line"/>
      <point x="437" y="-165" type="line"/>
      <point x="437" y="835" type="line"/>
      <point x="368" y="835" type="line"/>
    </contour>
  </outline>
</glyph>
<glyph name="entersymbol" format="2">
  <advance width="817"/>
  <unicode hex="2386"/>
  <note>
uni2386
</note>
  <outline>
    <contour>
      <point x="401" y="-9" type="line"/>
      <point x="766" y="356" type="line"/>
      <point x="401" y="721" type="line"/>
      <point x="156" y="476" type="line"/>
      <point x="257" y="476" type="line"/>
      <point x="401" y="620" type="line"/>
      <point x="665" y="356" type="line"/>
      <point x="401" y="92" type="line"/>
      <point x="257" y="236" type="line"/>
      <point x="156" y="236" type="line"/>
    </contour>
    <contour>
      <point x="398" y="255" type="line"/>
      <point x="398" y="320" type="line"/>
      <point x="88" y="320" type="line"/>
      <point x="88" y="392" type="line"/>
      <point x="398" y="392" type="line"/>
      <point x="398" y="457" type="line"/>
      <point x="496" y="356" type="line"/>
    </contour>
    <contour>
      <point x="364" y="165" type="line"/>
      <point x="549" y="356" type="line"/>
      <point x="364" y="547" type="line"/>
      <point x="364" y="429" type="line"/>
      <point x="51" y="429" type="line"/>
      <point x="51" y="283" type="line"/>
      <point x="364" y="283" type="line"/>
    </contour>
  </outline>
</glyph>
<glyph name="alternativekeysymbol" format="2">
  <advance width="1053"/>
  <unicode hex="2387"/>
  <note>
uni2387
</note>
  <outline>
    <contour>
      <point x="51" y="114" type="line"/>
      <point x="408" y="114" type="line"/>
      <point x="527" y="373" type="line"/>
      <point x="691" y="373" type="line"/>
      <point x="691" y="245" type="line"/>
      <point x="1002" y="409" type="line"/>
      <point x="691" y="573" type="line"/>
      <point x="691" y="444" type="line"/>
      <point x="473" y="444" type="line"/>
      <point x="355" y="185" type="line"/>
      <point x="51" y="185" type="line"/>
    </contour>
    <contour>
      <point x="524" y="114" type="line"/>
      <point x="992" y="114" type="line"/>
      <point x="992" y="185" type="line"/>
      <point x="524" y="185" type="line"/>
    </contour>
    <contour>
      <point x="747" y="335" type="line"/>
      <point x="747" y="483" type="line"/>
      <point x="896" y="409" type="line"/>
    </contour>
  </outline>
</glyph>
<glyph name="helmsymbol" format="2">
  <advance width="961"/>
  <unicode hex="2388"/>
  <note>
uni2388
</note>
  <outline>
    <contour>
      <point x="87" y="74" type="line"/>
      <point x="906" y="547" type="line"/>
      <point x="871" y="608" type="line"/>
      <point x="52" y="135" type="line"/>
    </contour>
    <contour>
      <point x="871" y="74" type="line"/>
      <point x="906" y="135" type="line"/>
      <point x="87" y="608" type="line"/>
      <point x="52" y="547" type="line"/>
    </contour>
    <contour>
      <point x="479" y="6" type="curve" smooth="yes"/>
      <point x="664" y="6"/>
      <point x="814" y="156"/>
      <point x="814" y="341" type="curve" smooth="yes"/>
      <point x="814" y="526"/>
      <point x="664" y="676"/>
      <point x="479" y="676" type="curve" smooth="yes"/>
      <point x="294" y="676"/>
      <point x="144" y="526"/>
      <point x="144" y="341" type="curve" smooth="yes"/>
      <point x="144" y="156"/>
      <point x="294" y="6"/>
    </contour>
    <contour>
      <point x="479" y="77" type="curve" smooth="yes"/>
      <point x="333" y="77"/>
      <point x="215" y="195"/>
      <point x="215" y="341" type="curve" smooth="yes"/>
      <point x="215" y="487"/>
      <point x="333" y="605"/>
      <point x="479" y="605" type="curve" smooth="yes"/>
      <point x="625" y="605"/>
      <point x="743" y="487"/>
      <point x="743" y="341" type="curve" smooth="yes"/>
      <point x="743" y="195"/>
      <point x="625" y="77"/>
    </contour>
    <contour>
      <point x="444" y="-132" type="line"/>
      <point x="514" y="-132" type="line"/>
      <point x="514" y="814" type="line"/>
      <point x="444" y="814" type="line"/>
    </contour>
  </outline>
</glyph>
<glyph name="horizontalbarnotchCircled" format="2">
  <advance width="772"/>
  <unicode hex="2389"/>
  <note>
uni2389
</note>
  <outline>
    <contour>
      <point x="386" y="6" type="curve" smooth="yes"/>
      <point x="572" y="6"/>
      <point x="721" y="156"/>
      <point x="721" y="341" type="curve" smooth="yes"/>
      <point x="721" y="526"/>
      <point x="571" y="676"/>
      <point x="386" y="676" type="curve" smooth="yes"/>
      <point x="202" y="676"/>
      <point x="51" y="525"/>
      <point x="51" y="341" type="curve" smooth="yes"/>
      <point x="51" y="156"/>
      <point x="202" y="6"/>
    </contour>
    <contour>
      <point x="382" y="77" type="line"/>
      <point x="251" y="79"/>
      <point x="140" y="177"/>
      <point x="124" y="309" type="curve"/>
      <point x="270" y="309" type="line"/>
    </contour>
    <contour>
      <point x="390" y="77" type="curve"/>
      <point x="502" y="309" type="line"/>
      <point x="648" y="309" type="line"/>
      <point x="632" y="177"/>
      <point x="521" y="79"/>
    </contour>
    <contour>
      <point x="386" y="201" type="line"/>
      <point x="306" y="373" type="line"/>
      <point x="124" y="373" type="line"/>
      <point x="140" y="505"/>
      <point x="252" y="605"/>
      <point x="386" y="605" type="curve" smooth="yes"/>
      <point x="521" y="605"/>
      <point x="632" y="503"/>
      <point x="648" y="373" type="curve"/>
      <point x="466" y="373" type="line"/>
    </contour>
  </outline>
</glyph>
<glyph name="downCircledTriangle" format="2">
  <advance width="772"/>
  <unicode hex="238A"/>
  <note>
uni238A
</note>
  <outline>
    <contour>
      <point x="386" y="6" type="curve" smooth="yes"/>
      <point x="572" y="6"/>
      <point x="721" y="156"/>
      <point x="721" y="341" type="curve" smooth="yes"/>
      <point x="721" y="526"/>
      <point x="571" y="676"/>
      <point x="386" y="676" type="curve" smooth="yes"/>
      <point x="202" y="676"/>
      <point x="51" y="525"/>
      <point x="51" y="341" type="curve" smooth="yes"/>
      <point x="51" y="156"/>
      <point x="202" y="6"/>
    </contour>
    <contour>
      <point x="374" y="77" type="line"/>
      <point x="234" y="83"/>
      <point x="122" y="200"/>
      <point x="122" y="341" type="curve" smooth="yes"/>
      <point x="122" y="379"/>
      <point x="129" y="414"/>
      <point x="143" y="445" type="curve"/>
    </contour>
    <contour>
      <point x="385" y="178" type="line"/>
      <point x="231" y="424" type="line"/>
      <point x="539" y="424" type="line"/>
    </contour>
    <contour>
      <point x="395" y="77" type="curve"/>
      <point x="628" y="447" type="line"/>
      <point x="643" y="414"/>
      <point x="650" y="379"/>
      <point x="650" y="341" type="curve" smooth="yes"/>
      <point x="650" y="198"/>
      <point x="538" y="83"/>
    </contour>
    <contour>
      <point x="164" y="484" type="line"/>
      <point x="211" y="559"/>
      <point x="294" y="605"/>
      <point x="386" y="605" type="curve" smooth="yes"/>
      <point x="478" y="605"/>
      <point x="559" y="560"/>
      <point x="608" y="484" type="curve"/>
    </contour>
  </outline>
</glyph>
<glyph name="brokenCircleNorthWestArrow" format="2">
  <advance width="774"/>
  <unicode hex="238B"/>
  <note>
uni238B
</note>
  <outline>
    <contour>
      <point x="388" y="6" type="curve" smooth="yes"/>
      <point x="571" y="6"/>
      <point x="723" y="155"/>
      <point x="723" y="341" type="curve" smooth="yes"/>
      <point x="723" y="526"/>
      <point x="573" y="676"/>
      <point x="388" y="676" type="curve"/>
      <point x="388" y="605" type="line"/>
      <point x="536" y="605"/>
      <point x="652" y="488"/>
      <point x="652" y="341" type="curve" smooth="yes"/>
      <point x="652" y="194"/>
      <point x="535" y="77"/>
      <point x="388" y="77" type="curve" smooth="yes"/>
      <point x="242" y="77"/>
      <point x="124" y="194"/>
      <point x="124" y="341" type="curve"/>
      <point x="53" y="341" type="line"/>
      <point x="53" y="158"/>
      <point x="202" y="6"/>
    </contour>
    <contour>
      <point x="439" y="233" type="line"/>
      <point x="490" y="283" type="line"/>
      <point x="219" y="559" type="line"/>
      <point x="286" y="627" type="line"/>
      <point x="51" y="681" type="line"/>
      <point x="100" y="441" type="line"/>
      <point x="168" y="509" type="line"/>
    </contour>
    <contour>
      <point x="129" y="528" type="line"/>
      <point x="109" y="622" type="line"/>
      <point x="200" y="599" type="line"/>
    </contour>
  </outline>
</glyph>
<glyph name="undosymbol" format="2">
  <advance width="888"/>
  <unicode hex="238C"/>
  <note>
uni238C
</note>
  <outline>
    <contour>
      <point x="709" y="54" type="curve" smooth="yes"/>
      <point x="780" y="54"/>
      <point x="837" y="111"/>
      <point x="837" y="182" type="curve" smooth="yes"/>
      <point x="837" y="241"/>
      <point x="797" y="292"/>
      <point x="739" y="306" type="curve"/>
      <point x="739" y="332" type="line" smooth="yes"/>
      <point x="739" y="486"/>
      <point x="615" y="610"/>
      <point x="461" y="610" type="curve" smooth="yes"/>
      <point x="387" y="610"/>
      <point x="320" y="581"/>
      <point x="270" y="534" type="curve"/>
      <point x="203" y="576" type="line"/>
      <point x="189" y="339" type="line"/>
      <point x="393" y="460" type="line"/>
      <point x="323" y="502" type="line"/>
      <point x="363" y="535"/>
      <point x="409" y="551"/>
      <point x="461" y="551" type="curve" smooth="yes"/>
      <point x="582" y="551"/>
      <point x="680" y="454"/>
      <point x="680" y="332" type="curve" smooth="yes"/>
      <point x="680" y="307" type="line"/>
      <point x="624" y="295"/>
      <point x="581" y="243"/>
      <point x="581" y="182" type="curve" smooth="yes"/>
      <point x="581" y="111"/>
      <point x="638" y="54"/>
    </contour>
    <contour>
      <point x="179" y="54" type="curve" smooth="yes"/>
      <point x="250" y="54"/>
      <point x="307" y="111"/>
      <point x="307" y="182" type="curve" smooth="yes"/>
      <point x="307" y="253"/>
      <point x="250" y="310"/>
      <point x="179" y="310" type="curve" smooth="yes"/>
      <point x="108" y="310"/>
      <point x="51" y="254"/>
      <point x="51" y="182" type="curve" smooth="yes"/>
      <point x="51" y="110"/>
      <point x="108" y="54"/>
    </contour>
    <contour>
      <point x="179" y="110" type="curve" smooth="yes"/>
      <point x="139" y="110"/>
      <point x="107" y="142"/>
      <point x="107" y="182" type="curve" smooth="yes"/>
      <point x="107" y="222"/>
      <point x="139" y="254"/>
      <point x="179" y="254" type="curve" smooth="yes"/>
      <point x="219" y="254"/>
      <point x="251" y="222"/>
      <point x="251" y="182" type="curve" smooth="yes"/>
      <point x="251" y="142"/>
      <point x="219" y="110"/>
    </contour>
    <contour>
      <point x="230" y="408" type="line"/>
      <point x="237" y="507" type="line"/>
      <point x="318" y="459" type="line"/>
    </contour>
    <contour>
      <point x="709" y="110" type="curve" smooth="yes"/>
      <point x="669" y="110"/>
      <point x="637" y="142"/>
      <point x="637" y="182" type="curve" smooth="yes"/>
      <point x="637" y="222"/>
      <point x="669" y="254"/>
      <point x="709" y="254" type="curve" smooth="yes"/>
      <point x="749" y="254"/>
      <point x="781" y="222"/>
      <point x="781" y="182" type="curve" smooth="yes"/>
      <point x="781" y="142"/>
      <point x="749" y="110"/>
    </contour>
  </outline>
</glyph>
<glyph name="monostablesymbol" format="2">
  <advance width="814"/>
  <unicode hex="238D"/>
  <note>
uni238D
</note>
  <outline>
    <contour>
      <point x="51" y="0" type="line"/>
      <point x="272" y="0" type="line"/>
      <point x="272" y="643" type="line"/>
      <point x="542" y="643" type="line"/>
      <point x="542" y="0" type="line"/>
      <point x="763" y="0" type="line"/>
      <point x="763" y="71" type="line"/>
      <point x="613" y="71" type="line"/>
      <point x="613" y="714" type="line"/>
      <point x="201" y="714" type="line"/>
      <point x="201" y="71" type="line"/>
      <point x="51" y="71" type="line"/>
    </contour>
  </outline>
</glyph>
<glyph name="hysteresissymbol" format="2">
  <advance width="686"/>
  <unicode hex="238E"/>
  <note>
uni238E
</note>
  <outline>
    <contour>
      <point x="51" y="0" type="line"/>
      <point x="390" y="0" type="line" smooth="yes"/>
      <point x="488" y="0"/>
      <point x="549" y="67"/>
      <point x="549" y="172" type="curve" smooth="yes"/>
      <point x="549" y="535" type="line" smooth="yes"/>
      <point x="549" y="617"/>
      <point x="574" y="665"/>
      <point x="635" y="686" type="curve"/>
      <point x="635" y="714" type="line"/>
      <point x="296" y="714" type="line" smooth="yes"/>
      <point x="198" y="714"/>
      <point x="137" y="647"/>
      <point x="137" y="542" type="curve" smooth="yes"/>
      <point x="137" y="179" type="line" smooth="yes"/>
      <point x="137" y="97"/>
      <point x="112" y="49"/>
      <point x="51" y="28" type="curve"/>
    </contour>
    <contour>
      <point x="176" y="71" type="line"/>
      <point x="176" y="74" type="line"/>
      <point x="197" y="94"/>
      <point x="208" y="129"/>
      <point x="208" y="179" type="curve" smooth="yes"/>
      <point x="208" y="542" type="line" smooth="yes"/>
      <point x="208" y="606"/>
      <point x="242" y="643"/>
      <point x="296" y="643" type="curve" smooth="yes"/>
      <point x="510" y="643" type="line"/>
      <point x="510" y="640" type="line"/>
      <point x="489" y="621"/>
      <point x="478" y="586"/>
      <point x="478" y="535" type="curve" smooth="yes"/>
      <point x="478" y="172" type="line" smooth="yes"/>
      <point x="478" y="107"/>
      <point x="444" y="71"/>
      <point x="390" y="71" type="curve" smooth="yes"/>
    </contour>
  </outline>
</glyph>
<glyph name="openCircuitOutputHType" format="2">
  <advance width="862"/>
  <unicode hex="238F"/>
  <note>
uni238F
</note>
  <outline>
    <contour>
      <point x="431" y="0" type="line"/>
      <point x="811" y="380" type="line"/>
      <point x="502" y="689" type="line"/>
      <point x="811" y="689" type="line"/>
      <point x="811" y="760" type="line"/>
      <point x="51" y="760" type="line"/>
      <point x="51" y="689" type="line"/>
      <point x="360" y="689" type="line"/>
      <point x="51" y="380" type="line"/>
    </contour>
    <contour>
      <point x="431" y="102" type="line"/>
      <point x="153" y="380" type="line"/>
      <point x="431" y="658" type="line"/>
      <point x="709" y="380" type="line"/>
    </contour>
  </outline>
</glyph>
<glyph name="passivePullUpOutputsymbol" format="2">
  <advance width="862"/>
  <unicode hex="2392"/>
  <note>
uni2392
</note>
  <outline>
    <contour>
      <point x="51" y="0" type="line"/>
      <point x="811" y="0" type="line"/>
      <point x="811" y="71" type="line"/>
      <point x="502" y="71" type="line"/>
      <point x="811" y="380" type="line"/>
      <point x="431" y="760" type="line"/>
      <point x="51" y="380" type="line"/>
      <point x="360" y="71" type="line"/>
      <point x="51" y="71" type="line"/>
    </contour>
    <contour>
      <point x="431" y="102" type="line"/>
      <point x="188" y="345" type="line"/>
      <point x="674" y="345" type="line"/>
    </contour>
    <contour>
      <point x="189" y="416" type="line"/>
      <point x="431" y="658" type="line"/>
      <point x="673" y="416" type="line"/>
    </contour>
  </outline>
</glyph>
<glyph name="directcurrentsymbolformtwo" format="2">
  <advance width="802"/>
  <unicode hex="2393"/>
  <note>
uni2393
</note>
  <outline>
    <contour>
      <point x="51" y="416" type="line"/>
      <point x="751" y="416" type="line"/>
      <point x="751" y="487" type="line"/>
      <point x="51" y="487" type="line"/>
    </contour>
    <contour>
      <point x="51" y="274" type="line"/>
      <point x="244" y="274" type="line"/>
      <point x="244" y="345" type="line"/>
      <point x="51" y="345" type="line"/>
    </contour>
    <contour>
      <point x="304" y="274" type="line"/>
      <point x="497" y="274" type="line"/>
      <point x="497" y="345" type="line"/>
      <point x="304" y="345" type="line"/>
    </contour>
    <contour>
      <point x="558" y="274" type="line"/>
      <point x="751" y="274" type="line"/>
      <point x="751" y="345" type="line"/>
      <point x="558" y="345" type="line"/>
    </contour>
  </outline>
</glyph>
<glyph name="softwareFunctionsymbol" format="2">
  <advance width="828"/>
  <unicode hex="2394"/>
  <note>
uni2394
</note>
  <outline>
    <contour>
      <point x="231" y="44" type="line"/>
      <point x="597" y="44" type="line"/>
      <point x="777" y="357" type="line"/>
      <point x="597" y="670" type="line"/>
      <point x="231" y="670" type="line"/>
      <point x="51" y="357" type="line"/>
    </contour>
    <contour>
      <point x="279" y="103" type="line"/>
      <point x="130" y="357" type="line"/>
      <point x="279" y="611" type="line"/>
      <point x="549" y="611" type="line"/>
      <point x="698" y="357" type="line"/>
      <point x="549" y="103" type="line"/>
    </contour>
  </outline>
</glyph>
<glyph name="decimalseparatorkeysymbol" format="2">
  <advance width="470"/>
  <unicode hex="2396"/>
  <note>
uni2396
</note>
  <outline>
    <contour>
      <point x="51" y="0" type="line"/>
      <point x="419" y="714" type="line"/>
      <point x="51" y="714" type="line"/>
    </contour>
  </outline>
</glyph>
<glyph name="previouspage" format="2">
  <advance width="931"/>
  <unicode hex="2397"/>
  <note>
uni2397
</note>
  <outline>
    <contour>
      <point x="363" y="0" type="line"/>
      <point x="880" y="0" type="line"/>
      <point x="880" y="590" type="line"/>
      <point x="568" y="590" type="line"/>
      <point x="568" y="702" type="line"/>
      <point x="430" y="702" type="line"/>
      <point x="430" y="644" type="line"/>
      <point x="510" y="644" type="line"/>
      <point x="510" y="590" type="line"/>
      <point x="363" y="590" type="line"/>
      <point x="363" y="457" type="line"/>
      <point x="324" y="457" type="line"/>
      <point x="324" y="563" type="line"/>
      <point x="158" y="391" type="line"/>
      <point x="324" y="219" type="line"/>
      <point x="324" y="325" type="line"/>
      <point x="363" y="325" type="line"/>
      <point x="363" y="170" type="line"/>
      <point x="238" y="170" type="line"/>
      <point x="238" y="112" type="line"/>
      <point x="363" y="112" type="line"/>
    </contour>
    <contour>
      <point x="51" y="112" type="line"/>
      <point x="190" y="112" type="line"/>
      <point x="190" y="170" type="line"/>
      <point x="109" y="170" type="line"/>
      <point x="109" y="192" type="line"/>
      <point x="51" y="192" type="line"/>
    </contour>
    <contour>
      <point x="51" y="240" type="line"/>
      <point x="109" y="240" type="line"/>
      <point x="109" y="381" type="line"/>
      <point x="51" y="381" type="line"/>
    </contour>
    <contour>
      <point x="51" y="429" type="line"/>
      <point x="109" y="429" type="line"/>
      <point x="109" y="572" type="line"/>
      <point x="51" y="572" type="line"/>
    </contour>
    <contour>
      <point x="51" y="620" type="line"/>
      <point x="109" y="620" type="line"/>
      <point x="109" y="644" type="line"/>
      <point x="190" y="644" type="line"/>
      <point x="190" y="702" type="line"/>
      <point x="51" y="702" type="line"/>
    </contour>
    <contour>
      <point x="294" y="300" type="line"/>
      <point x="206" y="391" type="line"/>
      <point x="294" y="482" type="line"/>
      <point x="294" y="423" type="line"/>
      <point x="573" y="423" type="line"/>
      <point x="573" y="359" type="line"/>
      <point x="294" y="359" type="line"/>
    </contour>
    <contour>
      <point x="422" y="58" type="line"/>
      <point x="422" y="325" type="line"/>
      <point x="606" y="325" type="line"/>
      <point x="606" y="457" type="line"/>
      <point x="422" y="457" type="line"/>
      <point x="422" y="532" type="line"/>
      <point x="822" y="532" type="line"/>
      <point x="822" y="58" type="line"/>
    </contour>
    <contour>
      <point x="238" y="644" type="line"/>
      <point x="382" y="644" type="line"/>
      <point x="382" y="702" type="line"/>
      <point x="238" y="702" type="line"/>
    </contour>
  </outline>
</glyph>
<glyph name="nextpage" format="2">
  <advance width="931"/>
  <unicode hex="2398"/>
  <note>
uni2398
</note>
  <outline>
    <contour>
      <point x="51" y="112" type="line"/>
      <point x="315" y="112" type="line"/>
      <point x="315" y="170" type="line"/>
      <point x="110" y="170" type="line"/>
      <point x="110" y="644" type="line"/>
      <point x="510" y="644" type="line"/>
      <point x="510" y="617" type="line"/>
      <point x="568" y="617" type="line"/>
      <point x="568" y="702" type="line"/>
      <point x="51" y="702" type="line"/>
    </contour>
    <contour>
      <point x="363" y="0" type="line"/>
      <point x="502" y="0" type="line"/>
      <point x="502" y="58" type="line"/>
      <point x="421" y="58" type="line"/>
      <point x="421" y="80" type="line"/>
      <point x="363" y="80" type="line"/>
    </contour>
    <contour>
      <point x="550" y="0" type="line"/>
      <point x="694" y="0" type="line"/>
      <point x="694" y="58" type="line"/>
      <point x="550" y="58" type="line"/>
    </contour>
    <contour>
      <point x="542" y="220" type="line"/>
      <point x="542" y="279" type="line"/>
      <point x="263" y="279" type="line"/>
      <point x="263" y="343" type="line"/>
      <point x="542" y="343" type="line"/>
      <point x="542" y="402" type="line"/>
      <point x="630" y="311" type="line"/>
    </contour>
    <contour>
      <point x="363" y="128" type="line"/>
      <point x="421" y="128" type="line"/>
      <point x="421" y="245" type="line"/>
      <point x="512" y="245" type="line"/>
      <point x="512" y="139" type="line"/>
      <point x="678" y="311" type="line"/>
      <point x="512" y="483" type="line"/>
      <point x="512" y="377" type="line"/>
      <point x="421" y="377" type="line"/>
      <point x="421" y="460" type="line"/>
      <point x="363" y="460" type="line"/>
      <point x="363" y="377" type="line"/>
      <point x="230" y="377" type="line"/>
      <point x="230" y="245" type="line"/>
      <point x="363" y="245" type="line"/>
    </contour>
    <contour>
      <point x="742" y="0" type="line"/>
      <point x="880" y="0" type="line"/>
      <point x="880" y="80" type="line"/>
      <point x="822" y="80" type="line"/>
      <point x="822" y="58" type="line"/>
      <point x="742" y="58" type="line"/>
    </contour>
    <contour>
      <point x="363" y="508" type="line"/>
      <point x="421" y="508" type="line"/>
      <point x="421" y="532" type="line"/>
      <point x="502" y="532" type="line"/>
      <point x="502" y="590" type="line"/>
      <point x="363" y="590" type="line"/>
    </contour>
    <contour>
      <point x="822" y="128" type="line"/>
      <point x="880" y="128" type="line"/>
      <point x="880" y="269" type="line"/>
      <point x="822" y="269" type="line"/>
    </contour>
    <contour>
      <point x="550" y="532" type="line"/>
      <point x="694" y="532" type="line"/>
      <point x="694" y="590" type="line"/>
      <point x="550" y="590" type="line"/>
    </contour>
    <contour>
      <point x="822" y="317" type="line"/>
      <point x="880" y="317" type="line"/>
      <point x="880" y="460" type="line"/>
      <point x="822" y="460" type="line"/>
    </contour>
    <contour>
      <point x="822" y="508" type="line"/>
      <point x="880" y="508" type="line"/>
      <point x="880" y="590" type="line"/>
      <point x="742" y="590" type="line"/>
      <point x="742" y="532" type="line"/>
      <point x="822" y="532" type="line"/>
    </contour>
  </outline>
</glyph>
<glyph name="printscreensymbol" format="2">
  <advance width="1064"/>
  <unicode hex="2399"/>
  <note>
uni2399
</note>
  <outline>
    <contour>
      <point x="532" y="-16" type="curve" smooth="yes"/>
      <point x="706" y="-16"/>
      <point x="878" y="-1"/>
      <point x="972" y="22" type="curve"/>
      <point x="1003" y="118"/>
      <point x="1013" y="181"/>
      <point x="1013" y="291" type="curve" smooth="yes"/>
      <point x="1013" y="396"/>
      <point x="1002" y="465"/>
      <point x="972" y="560" type="curve"/>
      <point x="930" y="569"/>
      <point x="874" y="578"/>
      <point x="804" y="585" type="curve"/>
      <point x="804" y="940" type="line"/>
      <point x="468" y="940" type="line"/>
      <point x="261" y="742" type="line"/>
      <point x="261" y="586" type="line"/>
      <point x="192" y="579"/>
      <point x="136" y="570"/>
      <point x="92" y="560" type="curve"/>
      <point x="62" y="468"/>
      <point x="51" y="397"/>
      <point x="51" y="291" type="curve" smooth="yes"/>
      <point x="51" y="183"/>
      <point x="61" y="119"/>
      <point x="92" y="22" type="curve"/>
      <point x="184" y="-1"/>
      <point x="361" y="-16"/>
    </contour>
    <contour>
      <point x="532" y="55" type="curve" smooth="yes"/>
      <point x="409" y="55"/>
      <point x="229" y="66"/>
      <point x="151" y="84" type="curve"/>
      <point x="132" y="136"/>
      <point x="122" y="205"/>
      <point x="122" y="291" type="curve" smooth="yes"/>
      <point x="122" y="377"/>
      <point x="132" y="446"/>
      <point x="151" y="498" type="curve"/>
      <point x="177" y="503"/>
      <point x="213" y="509"/>
      <point x="261" y="514" type="curve"/>
      <point x="261" y="250" type="line"/>
      <point x="804" y="250" type="line"/>
      <point x="804" y="514" type="line"/>
      <point x="849" y="509"/>
      <point x="885" y="503"/>
      <point x="913" y="498" type="curve"/>
      <point x="932" y="446"/>
      <point x="942" y="377"/>
      <point x="942" y="291" type="curve" smooth="yes"/>
      <point x="942" y="205"/>
      <point x="932" y="136"/>
      <point x="913" y="84" type="curve"/>
      <point x="831" y="66"/>
      <point x="653" y="55"/>
    </contour>
    <contour>
      <point x="331" y="320" type="line"/>
      <point x="331" y="664" type="line"/>
      <point x="533" y="664" type="line"/>
      <point x="533" y="870" type="line"/>
      <point x="734" y="870" type="line"/>
      <point x="734" y="320" type="line"/>
    </contour>
    <contour>
      <point x="332" y="730" type="line"/>
      <point x="467" y="859" type="line"/>
      <point x="467" y="730" type="line"/>
    </contour>
  </outline>
</glyph>
<glyph name="clearscreensymbol" format="2">
  <advance width="1064"/>
  <unicode hex="239A"/>
  <note>
uni239A
</note>
  <outline>
    <contour>
      <point x="532" y="-16" type="curve" smooth="yes"/>
      <point x="706" y="-16"/>
      <point x="878" y="-1"/>
      <point x="972" y="22" type="curve"/>
      <point x="1003" y="118"/>
      <point x="1013" y="181"/>
      <point x="1013" y="291" type="curve" smooth="yes"/>
      <point x="1013" y="396"/>
      <point x="1002" y="465"/>
      <point x="972" y="560" type="curve"/>
      <point x="878" y="583"/>
      <point x="703" y="598"/>
      <point x="532" y="598" type="curve" smooth="yes"/>
      <point x="364" y="598"/>
      <point x="184" y="583"/>
      <point x="92" y="560" type="curve"/>
      <point x="62" y="468"/>
      <point x="51" y="397"/>
      <point x="51" y="291" type="curve" smooth="yes"/>
      <point x="51" y="183"/>
      <point x="61" y="119"/>
      <point x="92" y="22" type="curve"/>
      <point x="184" y="-1"/>
      <point x="361" y="-16"/>
    </contour>
    <contour>
      <point x="496" y="78" type="line"/>
      <point x="737" y="332" type="line"/>
      <point x="698" y="366" type="line"/>
      <point x="459" y="111" type="line"/>
    </contour>
    <contour>
      <point x="532" y="55" type="curve" smooth="yes"/>
      <point x="409" y="55"/>
      <point x="229" y="66"/>
      <point x="151" y="84" type="curve"/>
      <point x="132" y="136"/>
      <point x="122" y="205"/>
      <point x="122" y="291" type="curve" smooth="yes"/>
      <point x="122" y="377"/>
      <point x="132" y="446"/>
      <point x="151" y="498" type="curve"/>
      <point x="230" y="516"/>
      <point x="411" y="527"/>
      <point x="532" y="527" type="curve" smooth="yes"/>
      <point x="653" y="527"/>
      <point x="831" y="516"/>
      <point x="913" y="498" type="curve"/>
      <point x="932" y="446"/>
      <point x="942" y="377"/>
      <point x="942" y="291" type="curve" smooth="yes"/>
      <point x="942" y="205"/>
      <point x="932" y="136"/>
      <point x="913" y="84" type="curve"/>
      <point x="831" y="66"/>
      <point x="653" y="55"/>
    </contour>
    <contour>
      <point x="357" y="72" type="line"/>
      <point x="743" y="480" type="line"/>
      <point x="704" y="514" type="line"/>
      <point x="319" y="105" type="line"/>
    </contour>
    <contour>
      <point x="362" y="218" type="line"/>
      <point x="603" y="471" type="line"/>
      <point x="564" y="506" type="line"/>
      <point x="326" y="250" type="line"/>
    </contour>
  </outline>
</glyph>
<glyph name="downandhorizontalcircle-dentistry" format="2">
  <advance width="699"/>
  <unicode hex="23C1"/>
  <outline>
    <contour>
      <point x="314" y="0" type="line"/>
      <point x="385" y="0" type="line"/>
      <point x="385" y="143" type="line"/>
      <point x="485" y="161"/>
      <point x="558" y="248"/>
      <point x="558" y="349" type="curve" smooth="yes"/>
      <point x="558" y="452"/>
      <point x="484" y="539"/>
      <point x="385" y="554" type="curve"/>
      <point x="385" y="643" type="line"/>
      <point x="709" y="643" type="line"/>
      <point x="709" y="714" type="line"/>
      <point x="-10" y="714" type="line"/>
      <point x="-10" y="643" type="line"/>
      <point x="314" y="643" type="line"/>
      <point x="314" y="554" type="line"/>
      <point x="215" y="537"/>
      <point x="141" y="451"/>
      <point x="141" y="349" type="curve" smooth="yes"/>
      <point x="141" y="248"/>
      <point x="215" y="161"/>
      <point x="314" y="144" type="curve"/>
    </contour>
    <contour>
      <point x="314" y="210" type="line"/>
      <point x="250" y="226"/>
      <point x="206" y="283"/>
      <point x="206" y="349" type="curve" smooth="yes"/>
      <point x="206" y="416"/>
      <point x="252" y="473"/>
      <point x="314" y="487" type="curve"/>
    </contour>
    <contour>
      <point x="385" y="210" type="curve"/>
      <point x="385" y="488" type="line"/>
      <point x="448" y="472"/>
      <point x="493" y="417"/>
      <point x="493" y="349" type="curve" smooth="yes"/>
      <point x="493" y="282"/>
      <point x="450" y="226"/>
    </contour>
  </outline>
</glyph>
<glyph name="upandhorizontalcircle-dentistry" format="2">
  <advance width="699"/>
  <unicode hex="23C2"/>
  <outline>
    <contour>
      <point x="-10" y="0" type="line"/>
      <point x="709" y="0" type="line"/>
      <point x="709" y="71" type="line"/>
      <point x="385" y="71" type="line"/>
      <point x="385" y="160" type="line"/>
      <point x="484" y="176"/>
      <point x="558" y="263"/>
      <point x="558" y="365" type="curve" smooth="yes"/>
      <point x="558" y="466"/>
      <point x="486" y="553"/>
      <point x="385" y="571" type="curve"/>
      <point x="385" y="714" type="line"/>
      <point x="314" y="714" type="line"/>
      <point x="314" y="570" type="line"/>
      <point x="216" y="553"/>
      <point x="141" y="467"/>
      <point x="141" y="365" type="curve" smooth="yes"/>
      <point x="141" y="262"/>
      <point x="216" y="177"/>
      <point x="314" y="160" type="curve"/>
      <point x="314" y="71" type="line"/>
      <point x="-10" y="71" type="line"/>
    </contour>
    <contour>
      <point x="314" y="227" type="line"/>
      <point x="249" y="243"/>
      <point x="206" y="299"/>
      <point x="206" y="365" type="curve" smooth="yes"/>
      <point x="206" y="432"/>
      <point x="251" y="488"/>
      <point x="314" y="504" type="curve"/>
    </contour>
    <contour>
      <point x="385" y="226" type="curve"/>
      <point x="385" y="504" type="line"/>
      <point x="450" y="488"/>
      <point x="493" y="432"/>
      <point x="493" y="365" type="curve" smooth="yes"/>
      <point x="493" y="298"/>
      <point x="449" y="242"/>
    </contour>
  </outline>
</glyph>
<glyph name="downandhorizontaltriangle-dentistry" format="2">
  <advance width="699"/>
  <unicode hex="23C4"/>
  <outline>
    <contour>
      <point x="314" y="0" type="line"/>
      <point x="385" y="0" type="line"/>
      <point x="385" y="141" type="line"/>
      <point x="588" y="141" type="line"/>
      <point x="588" y="193" type="line"/>
      <point x="385" y="569" type="line"/>
      <point x="385" y="643" type="line"/>
      <point x="709" y="643" type="line"/>
      <point x="709" y="714" type="line"/>
      <point x="-10" y="714" type="line"/>
      <point x="-10" y="643" type="line"/>
      <point x="314" y="643" type="line"/>
      <point x="314" y="569" type="line"/>
      <point x="112" y="193" type="line"/>
      <point x="112" y="141" type="line"/>
      <point x="314" y="141" type="line"/>
    </contour>
    <contour>
      <point x="190" y="206" type="line"/>
      <point x="314" y="452" type="line"/>
      <point x="314" y="206" type="line"/>
    </contour>
    <contour>
      <point x="385" y="206" type="line"/>
      <point x="385" y="454" type="line"/>
      <point x="509" y="206" type="line"/>
    </contour>
  </outline>
</glyph>
<glyph name="upandhorizontaltriangle-dentistry" format="2">
  <advance width="699"/>
  <unicode hex="23C5"/>
  <outline>
    <contour>
      <point x="-10" y="0" type="line"/>
      <point x="709" y="0" type="line"/>
      <point x="709" y="71" type="line"/>
      <point x="384" y="71" type="line"/>
      <point x="384" y="141" type="line"/>
      <point x="587" y="141" type="line"/>
      <point x="587" y="193" type="line"/>
      <point x="384" y="569" type="line"/>
      <point x="384" y="714" type="line"/>
      <point x="313" y="714" type="line"/>
      <point x="313" y="569" type="line"/>
      <point x="111" y="193" type="line"/>
      <point x="111" y="141" type="line"/>
      <point x="313" y="141" type="line"/>
      <point x="313" y="71" type="line"/>
      <point x="-10" y="71" type="line"/>
    </contour>
    <contour>
      <point x="189" y="206" type="line"/>
      <point x="313" y="452" type="line"/>
      <point x="313" y="206" type="line"/>
    </contour>
    <contour>
      <point x="384" y="206" type="line"/>
      <point x="384" y="454" type="line"/>
      <point x="508" y="206" type="line"/>
    </contour>
  </outline>
</glyph>
<glyph name="downandhorizontalwave-dentistry" format="2">
  <advance width="699"/>
  <unicode hex="23C7"/>
  <outline>
    <contour>
      <point x="314" y="0" type="line"/>
      <point x="385" y="0" type="line"/>
      <point x="385" y="313" type="line"/>
      <point x="443" y="298"/>
      <point x="485" y="290"/>
      <point x="512" y="290" type="curve" smooth="yes"/>
      <point x="577" y="290"/>
      <point x="627" y="309"/>
      <point x="676" y="350" type="curve"/>
      <point x="676" y="426" type="line"/>
      <point x="621" y="382"/>
      <point x="569" y="360"/>
      <point x="519" y="360" type="curve" smooth="yes"/>
      <point x="490" y="360"/>
      <point x="445" y="369"/>
      <point x="385" y="386" type="curve"/>
      <point x="385" y="643" type="line"/>
      <point x="709" y="643" type="line"/>
      <point x="709" y="714" type="line"/>
      <point x="-10" y="714" type="line"/>
      <point x="-10" y="643" type="line"/>
      <point x="314" y="643" type="line"/>
      <point x="314" y="405" type="line"/>
      <point x="277" y="415"/>
      <point x="217" y="426"/>
      <point x="190" y="426" type="curve" smooth="yes"/>
      <point x="119" y="426"/>
      <point x="70" y="406"/>
      <point x="23" y="367" type="curve"/>
      <point x="23" y="290" type="line"/>
      <point x="79" y="334"/>
      <point x="132" y="356"/>
      <point x="181" y="356" type="curve" smooth="yes"/>
      <point x="210" y="356"/>
      <point x="254" y="348"/>
      <point x="314" y="333" type="curve"/>
    </contour>
  </outline>
</glyph>
<glyph name="downandhorizontal-dentistry" format="2">
  <advance width="699"/>
  <unicode hex="23C9"/>
  <outline>
    <contour>
      <point x="314" y="0" type="line"/>
      <point x="385" y="0" type="line"/>
      <point x="385" y="643" type="line"/>
      <point x="709" y="643" type="line"/>
      <point x="709" y="714" type="line"/>
      <point x="-10" y="714" type="line"/>
      <point x="-10" y="643" type="line"/>
      <point x="314" y="643" type="line"/>
    </contour>
  </outline>
</glyph>
<glyph name="upandhorizontal-dentistry" format="2">
  <advance width="699"/>
  <unicode hex="23CA"/>
  <outline>
    <contour>
      <point x="-10" y="0" type="line"/>
      <point x="709" y="0" type="line"/>
      <point x="709" y="71" type="line"/>
      <point x="385" y="71" type="line"/>
      <point x="385" y="714" type="line"/>
      <point x="314" y="714" type="line"/>
      <point x="314" y="71" type="line"/>
      <point x="-10" y="71" type="line"/>
    </contour>
  </outline>
</glyph>
<glyph name="squarefoot" format="2">
  <advance width="788"/>
  <unicode hex="23CD"/>
  <note>
uni23CD
</note>
  <outline>
    <contour>
      <point x="51" y="0" type="line"/>
      <point x="737" y="0" type="line"/>
      <point x="737" y="714" type="line"/>
      <point x="496" y="714" type="line"/>
      <point x="479" y="643" type="line"/>
      <point x="666" y="643" type="line"/>
      <point x="666" y="71" type="line"/>
      <point x="122" y="71" type="line"/>
      <point x="122" y="643" type="line"/>
      <point x="292" y="643" type="line"/>
      <point x="310" y="714" type="line"/>
      <point x="51" y="714" type="line"/>
    </contour>
    <contour>
      <point x="324" y="534" type="line"/>
      <point x="387" y="534" type="line"/>
      <point x="477" y="792" type="line"/>
      <point x="388" y="792" type="line"/>
    </contour>
  </outline>
</glyph>
<glyph name="metricallongovershort" format="2">
  <advance width="438"/>
  <unicode hex="23D2"/>
  <note>
uni23D2
</note>
  <outline>
    <contour>
      <point x="219" y="184" type="curve" smooth="yes"/>
      <point x="308" y="184"/>
      <point x="379" y="254"/>
      <point x="387" y="344" type="curve"/>
      <point x="322" y="344" type="line"/>
      <point x="315" y="290"/>
      <point x="274" y="252"/>
      <point x="219" y="252" type="curve" smooth="yes"/>
      <point x="155" y="252"/>
      <point x="124" y="282"/>
      <point x="116" y="344" type="curve"/>
      <point x="51" y="344" type="line"/>
      <point x="59" y="254"/>
      <point x="131" y="184"/>
    </contour>
    <contour>
      <point x="51" y="388" type="line"/>
      <point x="387" y="388" type="line"/>
      <point x="387" y="452" type="line"/>
      <point x="51" y="452" type="line"/>
    </contour>
  </outline>
</glyph>
<glyph name="metricallongovertwoshorts" format="2">
  <advance width="808"/>
  <unicode hex="23D4"/>
  <note>
uni23D4
</note>
  <outline>
    <contour>
      <point x="51" y="388" type="line"/>
      <point x="757" y="388" type="line"/>
      <point x="757" y="452" type="line"/>
      <point x="51" y="452" type="line"/>
    </contour>
    <contour>
      <point x="589" y="184" type="curve" smooth="yes"/>
      <point x="675" y="184"/>
      <point x="749" y="252"/>
      <point x="757" y="344" type="curve"/>
      <point x="692" y="344" type="line"/>
      <point x="686" y="290"/>
      <point x="644" y="252"/>
      <point x="589" y="252" type="curve" smooth="yes"/>
      <point x="526" y="252"/>
      <point x="495" y="279"/>
      <point x="486" y="344" type="curve"/>
      <point x="421" y="344" type="line"/>
      <point x="429" y="254"/>
      <point x="501" y="184"/>
    </contour>
    <contour>
      <point x="219" y="184" type="curve" smooth="yes"/>
      <point x="308" y="184"/>
      <point x="379" y="254"/>
      <point x="387" y="344" type="curve"/>
      <point x="322" y="344" type="line"/>
      <point x="315" y="290"/>
      <point x="274" y="252"/>
      <point x="219" y="252" type="curve" smooth="yes"/>
      <point x="155" y="252"/>
      <point x="124" y="282"/>
      <point x="116" y="344" type="curve"/>
      <point x="51" y="344" type="line"/>
      <point x="59" y="254"/>
      <point x="131" y="184"/>
    </contour>
  </outline>
</glyph>
<glyph name="metricaltwoshortsoverlong" format="2">
  <advance width="808"/>
  <unicode hex="23D5"/>
  <note>
uni23D5
</note>
  <outline>
    <contour>
      <point x="51" y="280" type="line"/>
      <point x="757" y="280" type="line"/>
      <point x="757" y="344" type="line"/>
      <point x="51" y="344" type="line"/>
    </contour>
    <contour>
      <point x="589" y="388" type="curve" smooth="yes"/>
      <point x="675" y="388"/>
      <point x="749" y="456"/>
      <point x="757" y="548" type="curve"/>
      <point x="692" y="548" type="line"/>
      <point x="686" y="494"/>
      <point x="644" y="456"/>
      <point x="589" y="456" type="curve" smooth="yes"/>
      <point x="528" y="456"/>
      <point x="495" y="483"/>
      <point x="486" y="548" type="curve"/>
      <point x="421" y="548" type="line"/>
      <point x="429" y="458"/>
      <point x="501" y="388"/>
    </contour>
    <contour>
      <point x="219" y="388" type="curve" smooth="yes"/>
      <point x="308" y="388"/>
      <point x="379" y="458"/>
      <point x="387" y="548" type="curve"/>
      <point x="322" y="548" type="line"/>
      <point x="315" y="494"/>
      <point x="274" y="456"/>
      <point x="219" y="456" type="curve" smooth="yes"/>
      <point x="154" y="456"/>
      <point x="124" y="487"/>
      <point x="116" y="548" type="curve"/>
      <point x="51" y="548" type="line"/>
      <point x="59" y="458"/>
      <point x="131" y="388"/>
    </contour>
  </outline>
</glyph>
<glyph name="metricaltwoshortsjoined" format="2">
  <advance width="705"/>
  <unicode hex="23D6"/>
  <note>
uni23D6
</note>
  <outline>
    <contour>
      <point x="486" y="184" type="curve" smooth="yes"/>
      <point x="572" y="184"/>
      <point x="646" y="252"/>
      <point x="654" y="344" type="curve"/>
      <point x="589" y="344" type="line"/>
      <point x="583" y="290"/>
      <point x="541" y="252"/>
      <point x="486" y="252" type="curve" smooth="yes"/>
      <point x="423" y="252"/>
      <point x="392" y="279"/>
      <point x="383" y="344" type="curve"/>
      <point x="328" y="344" type="line"/>
      <point x="330" y="242"/>
      <point x="400" y="184"/>
    </contour>
    <contour>
      <point x="219" y="184" type="curve" smooth="yes"/>
      <point x="305" y="184"/>
      <point x="375" y="242"/>
      <point x="377" y="344" type="curve"/>
      <point x="322" y="344" type="line"/>
      <point x="315" y="290"/>
      <point x="274" y="252"/>
      <point x="219" y="252" type="curve" smooth="yes"/>
      <point x="155" y="252"/>
      <point x="124" y="282"/>
      <point x="116" y="344" type="curve"/>
      <point x="51" y="344" type="line"/>
      <point x="59" y="254"/>
      <point x="131" y="184"/>
    </contour>
  </outline>
</glyph>
<glyph name="metricaltriseme" format="2">
  <advance width="769"/>
  <unicode hex="23D7"/>
  <note>
uni23D7
</note>
  <outline>
    <contour>
      <point x="51" y="379" type="line"/>
      <point x="718" y="379" type="line"/>
      <point x="718" y="700" type="line"/>
      <point x="654" y="700" type="line"/>
      <point x="654" y="450" type="line"/>
      <point x="51" y="450" type="line"/>
    </contour>
  </outline>
</glyph>
<glyph name="metricalpentaseme" format="2">
  <advance width="769"/>
  <unicode hex="23D9"/>
  <note>
uni23D9
</note>
  <outline>
    <contour>
      <point x="51" y="379" type="line"/>
      <point x="718" y="379" type="line"/>
      <point x="718" y="700" type="line"/>
      <point x="654" y="700" type="line"/>
      <point x="654" y="450" type="line"/>
      <point x="416" y="450" type="line"/>
      <point x="416" y="700" type="line"/>
      <point x="352" y="700" type="line"/>
      <point x="352" y="450" type="line"/>
      <point x="115" y="450" type="line"/>
      <point x="115" y="700" type="line"/>
      <point x="51" y="700" type="line"/>
    </contour>
  </outline>
</glyph>
<glyph name="earthground" format="2">
  <advance width="755"/>
  <unicode hex="23DA"/>
  <note>
uni23DA
</note>
  <outline>
    <contour>
      <point x="51" y="286" type="line"/>
      <point x="704" y="286" type="line"/>
      <point x="704" y="357" type="line"/>
      <point x="413" y="357" type="line"/>
      <point x="413" y="714" type="line"/>
      <point x="342" y="714" type="line"/>
      <point x="342" y="357" type="line"/>
      <point x="51" y="357" type="line"/>
    </contour>
    <contour>
      <point x="231" y="1" type="line"/>
      <point x="524" y="1" type="line"/>
      <point x="524" y="72" type="line"/>
      <point x="231" y="72" type="line"/>
    </contour>
    <contour>
      <point x="141" y="144" type="line"/>
      <point x="614" y="144" type="line"/>
      <point x="614" y="215" type="line"/>
      <point x="141" y="215" type="line"/>
    </contour>
  </outline>
</glyph>
<glyph name="fuse" format="2">
  <advance width="1131"/>
  <unicode hex="23DB"/>
  <note>
uni23DB
</note>
  <outline>
    <contour>
      <point x="191" y="-3" type="line"/>
      <point x="940" y="-3" type="line"/>
      <point x="940" y="169" type="line"/>
      <point x="1080" y="169" type="line"/>
      <point x="1080" y="240" type="line"/>
      <point x="940" y="240" type="line"/>
      <point x="940" y="412" type="line"/>
      <point x="191" y="412" type="line"/>
      <point x="191" y="240" type="line"/>
      <point x="51" y="240" type="line"/>
      <point x="51" y="169" type="line"/>
      <point x="191" y="169" type="line"/>
    </contour>
    <contour>
      <point x="262" y="68" type="line"/>
      <point x="262" y="169" type="line"/>
      <point x="869" y="169" type="line"/>
      <point x="869" y="68" type="line"/>
    </contour>
    <contour>
      <point x="262" y="240" type="line"/>
      <point x="262" y="341" type="line"/>
      <point x="869" y="341" type="line"/>
      <point x="869" y="240" type="line"/>
    </contour>
  </outline>
</glyph>
<glyph name="whitetrapezium" format="2">
  <advance width="1016"/>
  <unicode hex="23E2"/>
  <note>
uni23E2
</note>
  <outline>
    <contour>
      <point x="51" y="0" type="line"/>
      <point x="965" y="0" type="line"/>
      <point x="684" y="619" type="line"/>
      <point x="51" y="619" type="line"/>
    </contour>
    <contour>
      <point x="122" y="71" type="line"/>
      <point x="122" y="548" type="line"/>
      <point x="638" y="548" type="line"/>
      <point x="855" y="71" type="line"/>
    </contour>
  </outline>
</glyph>
<glyph name="benzeneringcircle" format="2">
  <advance width="756"/>
  <unicode hex="23E3"/>
  <note>
uni23E3
</note>
  <outline>
    <contour>
      <point x="378" y="-6" type="line"/>
      <point x="705" y="182" type="line"/>
      <point x="705" y="564" type="line"/>
      <point x="378" y="752" type="line"/>
      <point x="51" y="564" type="line"/>
      <point x="51" y="182" type="line"/>
    </contour>
    <contour>
      <point x="378" y="67" type="line"/>
      <point x="113" y="222" type="line"/>
      <point x="113" y="524" type="line"/>
      <point x="378" y="680" type="line"/>
      <point x="643" y="524" type="line"/>
      <point x="643" y="222" type="line"/>
    </contour>
    <contour>
      <point x="377" y="160" type="curve" smooth="yes"/>
      <point x="496" y="160"/>
      <point x="593" y="258"/>
      <point x="593" y="376" type="curve" smooth="yes"/>
      <point x="593" y="494"/>
      <point x="495" y="592"/>
      <point x="377" y="592" type="curve" smooth="yes"/>
      <point x="258" y="592"/>
      <point x="161" y="494"/>
      <point x="161" y="376" type="curve" smooth="yes"/>
      <point x="161" y="257"/>
      <point x="258" y="160"/>
    </contour>
    <contour>
      <point x="377" y="216" type="curve" smooth="yes"/>
      <point x="290" y="216"/>
      <point x="217" y="289"/>
      <point x="217" y="376" type="curve" smooth="yes"/>
      <point x="217" y="463"/>
      <point x="290" y="536"/>
      <point x="377" y="536" type="curve" smooth="yes"/>
      <point x="464" y="536"/>
      <point x="537" y="463"/>
      <point x="537" y="376" type="curve" smooth="yes"/>
      <point x="537" y="289"/>
      <point x="464" y="216"/>
    </contour>
  </outline>
</glyph>
<glyph name="straightness" format="2">
  <advance width="1025"/>
  <unicode hex="23E4"/>
  <note>
uni23E4
</note>
  <outline>
    <contour>
      <point x="51" y="285" type="line"/>
      <point x="974" y="285" type="line"/>
      <point x="974" y="356" type="line"/>
      <point x="51" y="356" type="line"/>
    </contour>
  </outline>
</glyph>
<glyph name="flatness" format="2">
  <advance width="1366"/>
  <unicode hex="23E5"/>
  <note>
uni23E5
</note>
  <outline>
    <contour>
      <point x="51" y="0" type="line"/>
      <point x="1000" y="0" type="line"/>
      <point x="1315" y="510" type="line"/>
      <point x="368" y="510" type="line"/>
    </contour>
    <contour>
      <point x="186" y="71" type="line"/>
      <point x="414" y="439" type="line"/>
      <point x="1180" y="439" type="line"/>
      <point x="954" y="71" type="line"/>
    </contour>
  </outline>
</glyph>
<glyph name="accurrent" format="2">
  <advance width="1025"/>
  <unicode hex="23E6"/>
  <note>
uni23E6
</note>
  <outline>
    <contour>
      <point x="669" y="0" type="curve" smooth="yes"/>
      <point x="749" y="0"/>
      <point x="824" y="42"/>
      <point x="925" y="148" type="curve"/>
      <point x="901" y="169" type="line"/>
      <point x="974" y="169" type="line"/>
      <point x="974" y="240" type="line"/>
      <point x="531" y="240" type="line"/>
      <point x="477" y="358"/>
      <point x="417" y="411"/>
      <point x="324" y="411" type="curve" smooth="yes"/>
      <point x="256" y="411"/>
      <point x="203" y="386"/>
      <point x="103" y="259" type="curve"/>
      <point x="128" y="240" type="line"/>
      <point x="51" y="240" type="line"/>
      <point x="51" y="169" type="line"/>
      <point x="475" y="169" type="line"/>
      <point x="527" y="53"/>
      <point x="561" y="0"/>
    </contour>
    <contour>
      <point x="183" y="240" type="line"/>
      <point x="207" y="267" type="line" smooth="yes"/>
      <point x="242" y="307"/>
      <point x="283" y="337"/>
      <point x="324" y="337" type="curve" smooth="yes"/>
      <point x="369" y="337"/>
      <point x="408" y="305"/>
      <point x="440" y="240" type="curve"/>
    </contour>
    <contour>
      <point x="669" y="74" type="curve" smooth="yes"/>
      <point x="628" y="74"/>
      <point x="598" y="100"/>
      <point x="565" y="169" type="curve"/>
      <point x="840" y="169" type="line"/>
      <point x="773" y="106"/>
      <point x="722" y="74"/>
    </contour>
  </outline>
</glyph>
<glyph name="electricalintersection" format="2">
  <advance width="862"/>
  <unicode hex="23E7"/>
  <note>
uni23E7
</note>
  <outline>
    <contour>
      <point x="130" y="-261" type="line"/>
      <point x="323" y="133" type="line"/>
      <point x="344" y="120"/>
      <point x="367" y="114"/>
      <point x="392" y="114" type="curve" smooth="yes"/>
      <point x="418" y="114"/>
      <point x="441" y="121"/>
      <point x="462" y="134" type="curve"/>
      <point x="657" y="-261" type="line"/>
      <point x="693" y="-244" type="line"/>
      <point x="493" y="161" type="line"/>
      <point x="514" y="186"/>
      <point x="524" y="214"/>
      <point x="524" y="246" type="curve" smooth="yes"/>
      <point x="524" y="274"/>
      <point x="516" y="300"/>
      <point x="499" y="323" type="curve"/>
      <point x="811" y="568" type="line"/>
      <point x="787" y="599" type="line"/>
      <point x="472" y="351" type="line"/>
      <point x="449" y="369"/>
      <point x="422" y="378"/>
      <point x="392" y="378" type="curve" smooth="yes"/>
      <point x="374" y="378"/>
      <point x="357" y="375"/>
      <point x="341" y="367" type="curve"/>
      <point x="236" y="782" type="line"/>
      <point x="198" y="772" type="line"/>
      <point x="306" y="346" type="line"/>
      <point x="275" y="319"/>
      <point x="260" y="286"/>
      <point x="260" y="246" type="curve" smooth="yes"/>
      <point x="260" y="212"/>
      <point x="271" y="184"/>
      <point x="292" y="159" type="curve"/>
      <point x="94" y="-244" type="line"/>
    </contour>
    <contour>
      <point x="174" y="325" type="line"/>
      <point x="229" y="430" type="line"/>
      <point x="172" y="406" type="line"/>
      <point x="89" y="740" type="line"/>
      <point x="51" y="730" type="line"/>
      <point x="134" y="396" type="line"/>
      <point x="75" y="391" type="line"/>
    </contour>
  </outline>
</glyph>
<glyph name="decimalExponentSymbol" format="2">
  <advance width="561"/>
  <unicode hex="23E8"/>
  <note>
uni23E8
</note>
  <outline>
    <contour>
      <point x="388" y="-5" type="curve" smooth="yes"/>
      <point x="466" y="-5"/>
      <point x="510" y="57"/>
      <point x="510" y="168" type="curve" smooth="yes"/>
      <point x="510" y="277"/>
      <point x="464" y="341"/>
      <point x="388" y="341" type="curve" smooth="yes"/>
      <point x="311" y="341"/>
      <point x="267" y="279"/>
      <point x="267" y="168" type="curve" smooth="yes"/>
      <point x="267" y="58"/>
      <point x="312" y="-5"/>
    </contour>
    <contour>
      <point x="135" y="0" type="line"/>
      <point x="186" y="0" type="line"/>
      <point x="186" y="336" type="line"/>
      <point x="142" y="336" type="line"/>
      <point x="51" y="265" type="line"/>
      <point x="76" y="231" type="line"/>
      <point x="106" y="255"/>
      <point x="127" y="272"/>
      <point x="138" y="282" type="curve"/>
      <point x="136" y="261"/>
      <point x="135" y="242"/>
      <point x="135" y="225" type="curve" smooth="yes"/>
    </contour>
    <contour>
      <point x="388" y="40" type="curve" smooth="yes"/>
      <point x="337" y="40"/>
      <point x="318" y="84"/>
      <point x="318" y="168" type="curve" smooth="yes"/>
      <point x="318" y="251"/>
      <point x="337" y="296"/>
      <point x="388" y="296" type="curve" smooth="yes"/>
      <point x="439" y="296"/>
      <point x="458" y="251"/>
      <point x="458" y="168" type="curve" smooth="yes"/>
      <point x="458" y="84"/>
      <point x="439" y="40"/>
    </contour>
  </outline>
</glyph>
<glyph name="three.circled" format="2">
  <advance width="1000"/>
  <unicode hex="2462"/>
  <note>
uni2462
</note>
  <outline>
    <contour>
      <point x="495" y="135" type="curve" smooth="yes"/>
      <point x="611" y="135"/>
      <point x="665" y="188"/>
      <point x="665" y="266" type="curve" smooth="yes"/>
      <point x="665" y="326"/>
      <point x="631" y="361"/>
      <point x="563" y="373" type="curve"/>
      <point x="564" y="363" type="line"/>
      <point x="623" y="379"/>
      <point x="652" y="416"/>
      <point x="652" y="470" type="curve" smooth="yes"/>
      <point x="652" y="534"/>
      <point x="605" y="580"/>
      <point x="512" y="580" type="curve" smooth="yes"/>
      <point x="459" y="580"/>
      <point x="412" y="563"/>
      <point x="369" y="531" type="curve"/>
      <point x="404" y="485" type="line"/>
      <point x="444" y="510"/>
      <point x="480" y="523"/>
      <point x="513" y="523" type="curve" smooth="yes"/>
      <point x="552" y="523"/>
      <point x="582" y="505"/>
      <point x="582" y="462" type="curve" smooth="yes"/>
      <point x="582" y="416"/>
      <point x="550" y="392"/>
      <point x="487" y="392" type="curve" smooth="yes"/>
      <point x="431" y="392" type="line"/>
      <point x="431" y="337" type="line"/>
      <point x="487" y="337" type="line" smooth="yes"/>
      <point x="559" y="337"/>
      <point x="594" y="314"/>
      <point x="594" y="268" type="curve" smooth="yes"/>
      <point x="594" y="217"/>
      <point x="562" y="192"/>
      <point x="496" y="192" type="curve" smooth="yes"/>
      <point x="456" y="192"/>
      <point x="413" y="203"/>
      <point x="367" y="226" type="curve"/>
      <point x="367" y="163" type="line"/>
      <point x="403" y="144"/>
      <point x="446" y="135"/>
    </contour>
    <component base="_circledComp"/>
  </outline>
</glyph>
<glyph name="four.circled" format="2">
  <advance width="1000"/>
  <unicode hex="2463"/>
  <note>
uni2463
</note>
  <outline>
    <contour>
      <point x="501" y="144" type="line"/>
      <point x="571" y="144" type="line"/>
      <point x="571" y="241" type="line"/>
      <point x="631" y="241" type="line"/>
      <point x="631" y="299" type="line"/>
      <point x="571" y="299" type="line"/>
      <point x="571" y="572" type="line"/>
      <point x="500" y="572" type="line"/>
      <point x="309" y="291" type="line"/>
      <point x="309" y="241" type="line"/>
      <point x="501" y="241" type="line"/>
    </contour>
    <contour>
      <point x="378" y="299" type="line"/>
      <point x="489" y="471" type="line" smooth="yes"/>
      <point x="495" y="480"/>
      <point x="499" y="489"/>
      <point x="503" y="499" type="curve"/>
      <point x="504" y="499" type="line"/>
      <point x="502" y="466"/>
      <point x="501" y="431"/>
      <point x="501" y="398" type="curve" smooth="yes"/>
      <point x="501" y="299" type="line"/>
    </contour>
    <component base="_circledComp"/>
  </outline>
</glyph>
<glyph name="five.circled" format="2">
  <advance width="1000"/>
  <unicode hex="2464"/>
  <note>
uni2464
</note>
  <outline>
    <contour>
      <point x="490" y="136" type="curve" smooth="yes"/>
      <point x="598" y="136"/>
      <point x="653" y="188"/>
      <point x="653" y="282" type="curve" smooth="yes"/>
      <point x="653" y="360"/>
      <point x="593" y="414"/>
      <point x="499" y="414" type="curve" smooth="yes"/>
      <point x="485" y="414"/>
      <point x="466" y="412"/>
      <point x="442" y="408" type="curve"/>
      <point x="451" y="518" type="line"/>
      <point x="633" y="518" type="line"/>
      <point x="633" y="573" type="line"/>
      <point x="394" y="573" type="line"/>
      <point x="379" y="364" type="line"/>
      <point x="409" y="344" type="line"/>
      <point x="439" y="352"/>
      <point x="465" y="356"/>
      <point x="486" y="356" type="curve" smooth="yes"/>
      <point x="549" y="356"/>
      <point x="584" y="327"/>
      <point x="584" y="276" type="curve" smooth="yes"/>
      <point x="584" y="221"/>
      <point x="552" y="193"/>
      <point x="488" y="193" type="curve" smooth="yes"/>
      <point x="453" y="193"/>
      <point x="404" y="205"/>
      <point x="369" y="228" type="curve"/>
      <point x="369" y="161" type="line"/>
      <point x="396" y="145"/>
      <point x="436" y="136"/>
    </contour>
    <component base="_circledComp"/>
  </outline>
</glyph>
<glyph name="six.circled" format="2">
  <advance width="1000"/>
  <unicode hex="2465"/>
  <note>
uni2465
</note>
  <outline>
    <contour>
      <point x="500" y="135" type="curve" smooth="yes"/>
      <point x="592" y="135"/>
      <point x="648" y="193"/>
      <point x="648" y="285" type="curve" smooth="yes"/>
      <point x="648" y="371"/>
      <point x="596" y="419"/>
      <point x="518" y="419" type="curve" smooth="yes"/>
      <point x="467" y="419"/>
      <point x="432" y="402"/>
      <point x="411" y="369" type="curve"/>
      <point x="407" y="369" type="line"/>
      <point x="414" y="477"/>
      <point x="462" y="522"/>
      <point x="550" y="522" type="curve" smooth="yes"/>
      <point x="575" y="522"/>
      <point x="596" y="519"/>
      <point x="613" y="513" type="curve"/>
      <point x="613" y="572" type="line"/>
      <point x="596" y="577"/>
      <point x="576" y="579"/>
      <point x="554" y="579" type="curve" smooth="yes"/>
      <point x="413" y="579"/>
      <point x="342" y="495"/>
      <point x="342" y="327" type="curve" smooth="yes"/>
      <point x="342" y="207"/>
      <point x="402" y="135"/>
    </contour>
    <contour>
      <point x="498" y="192" type="curve" smooth="yes"/>
      <point x="447" y="192"/>
      <point x="410" y="234"/>
      <point x="410" y="293" type="curve" smooth="yes"/>
      <point x="410" y="328"/>
      <point x="444" y="364"/>
      <point x="501" y="364" type="curve" smooth="yes"/>
      <point x="554" y="364"/>
      <point x="581" y="337"/>
      <point x="581" y="283" type="curve" smooth="yes"/>
      <point x="581" y="221"/>
      <point x="549" y="192"/>
    </contour>
    <component base="_circledComp"/>
  </outline>
</glyph>
<glyph name="seven.circled" format="2">
  <advance width="1000"/>
  <unicode hex="2466"/>
  <note>
uni2466
</note>
  <outline>
    <contour>
      <point x="420" y="144" type="line"/>
      <point x="492" y="144" type="line"/>
      <point x="659" y="523" type="line"/>
      <point x="659" y="572" type="line"/>
      <point x="370" y="572" type="line"/>
      <point x="370" y="512" type="line"/>
      <point x="587" y="512" type="line"/>
    </contour>
    <component base="_circledComp"/>
  </outline>
</glyph>
<glyph name="one_one.circled" format="2">
  <advance width="1000"/>
  <unicode hex="246A"/>
  <note>
uni246A
</note>
  <outline>
    <contour>
      <point x="607" y="144" type="line"/>
      <point x="675" y="144" type="line"/>
      <point x="675" y="572" type="line"/>
      <point x="603" y="572" type="line"/>
      <point x="489" y="489" type="line"/>
      <point x="523" y="440" type="line"/>
      <point x="547" y="458"/>
      <point x="567" y="474"/>
      <point x="582" y="485" type="curve" smooth="yes"/>
      <point x="595" y="495"/>
      <point x="604" y="503"/>
      <point x="609" y="509" type="curve"/>
      <point x="608" y="495"/>
      <point x="607" y="481"/>
      <point x="607" y="467" type="curve" smooth="yes"/>
    </contour>
    <contour>
      <point x="368" y="144" type="line"/>
      <point x="436" y="144" type="line"/>
      <point x="436" y="572" type="line"/>
      <point x="364" y="572" type="line"/>
      <point x="250" y="489" type="line"/>
      <point x="284" y="440" type="line"/>
      <point x="308" y="458"/>
      <point x="326" y="472"/>
      <point x="340" y="483" type="curve" smooth="yes"/>
      <point x="354" y="494"/>
      <point x="364" y="503"/>
      <point x="370" y="509" type="curve"/>
      <point x="370" y="495"/>
      <point x="368" y="481"/>
      <point x="368" y="467" type="curve" smooth="yes"/>
    </contour>
    <component base="_circledComp"/>
  </outline>
</glyph>
<glyph name="one_two.circled" format="2">
  <advance width="1000"/>
  <unicode hex="246B"/>
  <note>
uni246B
</note>
  <outline>
    <contour>
      <point x="466" y="143" type="line"/>
      <point x="728" y="143" type="line"/>
      <point x="728" y="205" type="line"/>
      <point x="525" y="205" type="line"/>
      <point x="532" y="189" type="line"/>
      <point x="604" y="265" type="line" smooth="yes"/>
      <point x="682" y="348"/>
      <point x="729" y="398"/>
      <point x="729" y="462" type="curve" smooth="yes"/>
      <point x="729" y="536"/>
      <point x="681" y="580"/>
      <point x="601" y="580" type="curve" smooth="yes"/>
      <point x="554" y="580"/>
      <point x="510" y="562"/>
      <point x="469" y="525" type="curve"/>
      <point x="502" y="479" type="line"/>
      <point x="535" y="508"/>
      <point x="566" y="522"/>
      <point x="598" y="522" type="curve" smooth="yes"/>
      <point x="635" y="522"/>
      <point x="660" y="498"/>
      <point x="660" y="460" type="curve" smooth="yes"/>
      <point x="660" y="406"/>
      <point x="627" y="370"/>
      <point x="570" y="309" type="curve" smooth="yes"/>
      <point x="466" y="197" type="line"/>
    </contour>
    <contour>
      <point x="346" y="144" type="line"/>
      <point x="414" y="144" type="line"/>
      <point x="414" y="572" type="line"/>
      <point x="342" y="572" type="line"/>
      <point x="228" y="489" type="line"/>
      <point x="262" y="440" type="line"/>
      <point x="287" y="458"/>
      <point x="307" y="474"/>
      <point x="322" y="486" type="curve" smooth="yes"/>
      <point x="334" y="496"/>
      <point x="343" y="503"/>
      <point x="348" y="509" type="curve"/>
      <point x="348" y="495"/>
      <point x="346" y="481"/>
      <point x="346" y="467" type="curve" smooth="yes"/>
    </contour>
    <component base="_circledComp"/>
  </outline>
</glyph>
<glyph name="one_three.circled" format="2">
  <advance width="1000"/>
  <unicode hex="246C"/>
  <note>
uni246C
</note>
  <outline>
    <contour>
      <point x="594" y="135" type="curve" smooth="yes"/>
      <point x="685" y="135"/>
      <point x="748" y="176"/>
      <point x="748" y="266" type="curve" smooth="yes"/>
      <point x="748" y="328"/>
      <point x="708" y="363"/>
      <point x="636" y="372" type="curve"/>
      <point x="640" y="367" type="line"/>
      <point x="692" y="372"/>
      <point x="735" y="415"/>
      <point x="735" y="470" type="curve" smooth="yes"/>
      <point x="735" y="544"/>
      <point x="681" y="580"/>
      <point x="605" y="580" type="curve" smooth="yes"/>
      <point x="560" y="580"/>
      <point x="517" y="563"/>
      <point x="477" y="531" type="curve"/>
      <point x="509" y="485" type="line"/>
      <point x="542" y="508"/>
      <point x="566" y="523"/>
      <point x="602" y="523" type="curve" smooth="yes"/>
      <point x="637" y="523"/>
      <point x="666" y="505"/>
      <point x="666" y="462" type="curve" smooth="yes"/>
      <point x="666" y="416"/>
      <point x="638" y="392"/>
      <point x="583" y="392" type="curve" smooth="yes"/>
      <point x="539" y="392" type="line"/>
      <point x="539" y="337" type="line"/>
      <point x="583" y="337" type="line" smooth="yes"/>
      <point x="647" y="337"/>
      <point x="679" y="314"/>
      <point x="679" y="268" type="curve" smooth="yes"/>
      <point x="679" y="217"/>
      <point x="649" y="192"/>
      <point x="588" y="192" type="curve" smooth="yes"/>
      <point x="558" y="192"/>
      <point x="523" y="203"/>
      <point x="483" y="226" type="curve"/>
      <point x="483" y="163" type="line"/>
      <point x="517" y="144"/>
      <point x="554" y="135"/>
    </contour>
    <contour>
      <point x="356" y="144" type="line"/>
      <point x="424" y="144" type="line"/>
      <point x="424" y="572" type="line"/>
      <point x="352" y="572" type="line"/>
      <point x="238" y="489" type="line"/>
      <point x="272" y="440" type="line"/>
      <point x="297" y="459"/>
      <point x="317" y="474"/>
      <point x="332" y="486" type="curve" smooth="yes"/>
      <point x="344" y="496"/>
      <point x="353" y="503"/>
      <point x="358" y="509" type="curve"/>
      <point x="357" y="495"/>
      <point x="356" y="481"/>
      <point x="356" y="467" type="curve" smooth="yes"/>
    </contour>
    <component base="_circledComp"/>
  </outline>
</glyph>
<glyph name="one_six.circled" format="2">
  <advance width="1000"/>
  <unicode hex="246F"/>
  <note>
uni246F
</note>
  <outline>
    <contour>
      <point x="618" y="135" type="curve" smooth="yes"/>
      <point x="698" y="135"/>
      <point x="756" y="201"/>
      <point x="756" y="285" type="curve" smooth="yes"/>
      <point x="756" y="371"/>
      <point x="708" y="419"/>
      <point x="637" y="419" type="curve" smooth="yes"/>
      <point x="591" y="419"/>
      <point x="558" y="402"/>
      <point x="539" y="369" type="curve"/>
      <point x="535" y="369" type="line"/>
      <point x="542" y="476"/>
      <point x="584" y="522"/>
      <point x="664" y="522" type="curve" smooth="yes"/>
      <point x="685" y="522"/>
      <point x="704" y="519"/>
      <point x="721" y="513" type="curve"/>
      <point x="721" y="572" type="line"/>
      <point x="704" y="577"/>
      <point x="685" y="579"/>
      <point x="666" y="579" type="curve" smooth="yes"/>
      <point x="536" y="579"/>
      <point x="470" y="495"/>
      <point x="470" y="327" type="curve" smooth="yes"/>
      <point x="470" y="208"/>
      <point x="524" y="135"/>
    </contour>
    <contour>
      <point x="345" y="144" type="line"/>
      <point x="413" y="144" type="line"/>
      <point x="413" y="572" type="line"/>
      <point x="341" y="572" type="line"/>
      <point x="227" y="489" type="line"/>
      <point x="261" y="440" type="line"/>
      <point x="288" y="459"/>
      <point x="308" y="476"/>
      <point x="323" y="488" type="curve"/>
      <point x="331" y="495"/>
      <point x="339" y="502"/>
      <point x="347" y="509" type="curve"/>
      <point x="347" y="495"/>
      <point x="345" y="481"/>
      <point x="345" y="467" type="curve" smooth="yes"/>
    </contour>
    <contour>
      <point x="616" y="192" type="curve" smooth="yes"/>
      <point x="571" y="192"/>
      <point x="538" y="236"/>
      <point x="538" y="293" type="curve" smooth="yes"/>
      <point x="538" y="328"/>
      <point x="567" y="364"/>
      <point x="618" y="364" type="curve" smooth="yes"/>
      <point x="665" y="364"/>
      <point x="689" y="333"/>
      <point x="689" y="283" type="curve" smooth="yes"/>
      <point x="689" y="221"/>
      <point x="660" y="192"/>
    </contour>
    <component base="_circledComp"/>
  </outline>
</glyph>
<glyph name="one_seven.circled" format="2">
  <advance width="1000"/>
  <unicode hex="2470"/>
  <note>
uni2470
</note>
  <outline>
    <contour>
      <point x="508" y="144" type="line"/>
      <point x="577" y="144" type="line"/>
      <point x="737" y="524" type="line"/>
      <point x="737" y="573" type="line"/>
      <point x="468" y="573" type="line"/>
      <point x="468" y="513" type="line"/>
      <point x="665" y="513" type="line"/>
    </contour>
    <contour>
      <point x="348" y="144" type="line"/>
      <point x="416" y="144" type="line"/>
      <point x="416" y="572" type="line"/>
      <point x="344" y="572" type="line"/>
      <point x="230" y="489" type="line"/>
      <point x="264" y="440" type="line"/>
      <point x="289" y="458"/>
      <point x="309" y="474"/>
      <point x="324" y="486" type="curve" smooth="yes"/>
      <point x="336" y="496"/>
      <point x="345" y="503"/>
      <point x="350" y="509" type="curve"/>
      <point x="350" y="495"/>
      <point x="348" y="481"/>
      <point x="348" y="467" type="curve" smooth="yes"/>
    </contour>
    <component base="_circledComp"/>
  </outline>
</glyph>
<glyph name="one_eight.circled" format="2">
  <advance width="1000"/>
  <unicode hex="2471"/>
  <note>
uni2471
</note>
  <outline>
    <contour>
      <point x="618" y="135" type="curve" smooth="yes"/>
      <point x="699" y="135"/>
      <point x="754" y="183"/>
      <point x="754" y="258" type="curve" smooth="yes"/>
      <point x="754" y="307"/>
      <point x="726" y="345"/>
      <point x="670" y="370" type="curve"/>
      <point x="717" y="396"/>
      <point x="740" y="430"/>
      <point x="740" y="471" type="curve" smooth="yes"/>
      <point x="740" y="537"/>
      <point x="690" y="580"/>
      <point x="618" y="580" type="curve" smooth="yes"/>
      <point x="544" y="580"/>
      <point x="493" y="536"/>
      <point x="493" y="468" type="curve" smooth="yes"/>
      <point x="493" y="417"/>
      <point x="515" y="394"/>
      <point x="555" y="367" type="curve"/>
      <point x="505" y="340"/>
      <point x="480" y="303"/>
      <point x="480" y="255" type="curve" smooth="yes"/>
      <point x="480" y="179"/>
      <point x="528" y="135"/>
    </contour>
    <contour>
      <point x="348" y="144" type="line"/>
      <point x="416" y="144" type="line"/>
      <point x="416" y="572" type="line"/>
      <point x="344" y="572" type="line"/>
      <point x="230" y="489" type="line"/>
      <point x="264" y="440" type="line"/>
      <point x="288" y="458"/>
      <point x="308" y="473"/>
      <point x="322" y="485" type="curve" smooth="yes"/>
      <point x="334" y="496"/>
      <point x="344" y="503"/>
      <point x="350" y="509" type="curve"/>
      <point x="350" y="495"/>
      <point x="348" y="481"/>
      <point x="348" y="467" type="curve" smooth="yes"/>
    </contour>
    <contour>
      <point x="616" y="191" type="curve" smooth="yes"/>
      <point x="569" y="191"/>
      <point x="546" y="216"/>
      <point x="546" y="255" type="curve" smooth="yes"/>
      <point x="546" y="291"/>
      <point x="565" y="319"/>
      <point x="604" y="340" type="curve"/>
      <point x="618" y="334" type="line" smooth="yes"/>
      <point x="668" y="313"/>
      <point x="689" y="289"/>
      <point x="689" y="255" type="curve" smooth="yes"/>
      <point x="689" y="216"/>
      <point x="664" y="191"/>
    </contour>
    <contour>
      <point x="619" y="397" type="curve"/>
      <point x="579" y="416"/>
      <point x="558" y="440"/>
      <point x="558" y="469" type="curve" smooth="yes"/>
      <point x="558" y="504"/>
      <point x="581" y="525"/>
      <point x="617" y="525" type="curve" smooth="yes"/>
      <point x="652" y="525"/>
      <point x="676" y="504"/>
      <point x="676" y="469" type="curve" smooth="yes"/>
      <point x="676" y="438"/>
      <point x="657" y="414"/>
    </contour>
    <component base="_circledComp"/>
  </outline>
</glyph>
<glyph name="one_nine.circled" format="2">
  <advance width="1000"/>
  <unicode hex="2472"/>
  <note>
uni2472
</note>
  <outline>
    <contour>
      <point x="560" y="135" type="curve" smooth="yes"/>
      <point x="690" y="135"/>
      <point x="756" y="219"/>
      <point x="756" y="387" type="curve" smooth="yes"/>
      <point x="756" y="516"/>
      <point x="692" y="579"/>
      <point x="608" y="579" type="curve" smooth="yes"/>
      <point x="526" y="579"/>
      <point x="470" y="519"/>
      <point x="470" y="429" type="curve" smooth="yes"/>
      <point x="470" y="344"/>
      <point x="519" y="295"/>
      <point x="589" y="295" type="curve" smooth="yes"/>
      <point x="635" y="295"/>
      <point x="668" y="312"/>
      <point x="687" y="345" type="curve"/>
      <point x="691" y="345" type="line"/>
      <point x="685" y="240"/>
      <point x="644" y="192"/>
      <point x="562" y="192" type="curve" smooth="yes"/>
      <point x="541" y="192"/>
      <point x="521" y="195"/>
      <point x="505" y="201" type="curve"/>
      <point x="505" y="142" type="line"/>
      <point x="522" y="137"/>
      <point x="541" y="135"/>
    </contour>
    <contour>
      <point x="348" y="144" type="line"/>
      <point x="416" y="144" type="line"/>
      <point x="416" y="572" type="line"/>
      <point x="344" y="572" type="line"/>
      <point x="230" y="489" type="line"/>
      <point x="264" y="440" type="line"/>
      <point x="286" y="457"/>
      <point x="304" y="471"/>
      <point x="318" y="482" type="curve" smooth="yes"/>
      <point x="333" y="494"/>
      <point x="344" y="503"/>
      <point x="350" y="509" type="curve"/>
      <point x="350" y="495"/>
      <point x="348" y="481"/>
      <point x="348" y="467" type="curve" smooth="yes"/>
    </contour>
    <contour>
      <point x="608" y="350" type="curve" smooth="yes"/>
      <point x="562" y="350"/>
      <point x="537" y="380"/>
      <point x="537" y="431" type="curve" smooth="yes"/>
      <point x="537" y="492"/>
      <point x="566" y="522"/>
      <point x="610" y="522" type="curve" smooth="yes"/>
      <point x="655" y="522"/>
      <point x="688" y="478"/>
      <point x="688" y="421" type="curve" smooth="yes"/>
      <point x="688" y="386"/>
      <point x="659" y="350"/>
    </contour>
    <component base="_circledComp"/>
  </outline>
</glyph>
<glyph name="two_zero.circled" format="2">
  <advance width="1000"/>
  <unicode hex="2473"/>
  <note>
uni2473
</note>
  <outline>
    <contour>
      <point x="228" y="143" type="line"/>
      <point x="490" y="143" type="line"/>
      <point x="490" y="205" type="line"/>
      <point x="287" y="205" type="line"/>
      <point x="294" y="189" type="line"/>
      <point x="361" y="259" type="line" smooth="yes"/>
      <point x="443" y="345"/>
      <point x="491" y="396"/>
      <point x="491" y="462" type="curve" smooth="yes"/>
      <point x="491" y="536"/>
      <point x="442" y="580"/>
      <point x="363" y="580" type="curve" smooth="yes"/>
      <point x="316" y="580"/>
      <point x="272" y="562"/>
      <point x="231" y="525" type="curve"/>
      <point x="264" y="479" type="line"/>
      <point x="297" y="508"/>
      <point x="329" y="522"/>
      <point x="360" y="522" type="curve" smooth="yes"/>
      <point x="397" y="522"/>
      <point x="422" y="498"/>
      <point x="422" y="462" type="curve" smooth="yes"/>
      <point x="422" y="405"/>
      <point x="389" y="370"/>
      <point x="332" y="309" type="curve" smooth="yes"/>
      <point x="228" y="197" type="line"/>
    </contour>
    <contour>
      <point x="650" y="135" type="curve" smooth="yes"/>
      <point x="742" y="135"/>
      <point x="788" y="209"/>
      <point x="788" y="359" type="curve" smooth="yes"/>
      <point x="788" y="506"/>
      <point x="742" y="580"/>
      <point x="650" y="580" type="curve" smooth="yes"/>
      <point x="552" y="580"/>
      <point x="513" y="500"/>
      <point x="513" y="359" type="curve" smooth="yes"/>
      <point x="513" y="209"/>
      <point x="559" y="135"/>
    </contour>
    <contour>
      <point x="650" y="194" type="curve" smooth="yes"/>
      <point x="592" y="194"/>
      <point x="582" y="272"/>
      <point x="582" y="358" type="curve" smooth="yes"/>
      <point x="582" y="441"/>
      <point x="592" y="522"/>
      <point x="650" y="522" type="curve" smooth="yes"/>
      <point x="697" y="522"/>
      <point x="720" y="468"/>
      <point x="720" y="359" type="curve" smooth="yes"/>
      <point x="720" y="249"/>
      <point x="697" y="194"/>
    </contour>
    <component base="_circledComp"/>
  </outline>
</glyph>
<glyph name="two.paren" format="2">
  <advance width="1000"/>
  <unicode hex="2475"/>
  <note>
uni2475
</note>
  <outline>
    <contour>
      <point x="369" y="143" type="line"/>
      <point x="645" y="143" type="line"/>
      <point x="645" y="203" type="line"/>
      <point x="429" y="203" type="line"/>
      <point x="436" y="188" type="line"/>
      <point x="533" y="282" type="line" smooth="yes"/>
      <point x="601" y="348"/>
      <point x="646" y="394"/>
      <point x="646" y="462" type="curve" smooth="yes"/>
      <point x="646" y="536"/>
      <point x="596" y="580"/>
      <point x="512" y="580" type="curve" smooth="yes"/>
      <point x="463" y="580"/>
      <point x="417" y="562"/>
      <point x="374" y="525" type="curve"/>
      <point x="408" y="479" type="line"/>
      <point x="444" y="508"/>
      <point x="479" y="522"/>
      <point x="511" y="522" type="curve" smooth="yes"/>
      <point x="550" y="522"/>
      <point x="577" y="501"/>
      <point x="577" y="458" type="curve" smooth="yes"/>
      <point x="577" y="410"/>
      <point x="556" y="383"/>
      <point x="482" y="309" type="curve" smooth="yes"/>
      <point x="369" y="197" type="line"/>
    </contour>
    <component base="_parenComp"/>
  </outline>
</glyph>
<glyph name="four.paren" format="2">
  <advance width="1000"/>
  <unicode hex="2477"/>
  <note>
uni2477
</note>
  <outline>
    <contour>
      <point x="519" y="144" type="line"/>
      <point x="589" y="144" type="line"/>
      <point x="589" y="241" type="line"/>
      <point x="649" y="241" type="line"/>
      <point x="649" y="299" type="line"/>
      <point x="589" y="299" type="line"/>
      <point x="589" y="572" type="line"/>
      <point x="518" y="572" type="line"/>
      <point x="327" y="291" type="line"/>
      <point x="327" y="241" type="line"/>
      <point x="519" y="241" type="line"/>
    </contour>
    <contour>
      <point x="396" y="299" type="line"/>
      <point x="509" y="469" type="line" smooth="yes"/>
      <point x="517" y="481"/>
      <point x="521" y="498"/>
      <point x="527" y="511" type="curve"/>
      <point x="522" y="512" type="line"/>
      <point x="521" y="474"/>
      <point x="519" y="436"/>
      <point x="519" y="398" type="curve" smooth="yes"/>
      <point x="519" y="299" type="line"/>
    </contour>
    <component base="_parenComp"/>
  </outline>
</glyph>
<glyph name="eight.paren" format="2">
  <advance width="1000"/>
  <unicode hex="247B"/>
  <note>
uni247B
</note>
  <outline>
    <contour>
      <point x="500" y="135" type="curve" smooth="yes"/>
      <point x="587" y="135"/>
      <point x="646" y="183"/>
      <point x="646" y="258" type="curve" smooth="yes"/>
      <point x="646" y="307"/>
      <point x="618" y="345"/>
      <point x="562" y="370" type="curve"/>
      <point x="608" y="396"/>
      <point x="632" y="430"/>
      <point x="632" y="471" type="curve" smooth="yes"/>
      <point x="632" y="538"/>
      <point x="579" y="580"/>
      <point x="500" y="580" type="curve" smooth="yes"/>
      <point x="422" y="580"/>
      <point x="365" y="536"/>
      <point x="365" y="468" type="curve" smooth="yes"/>
      <point x="365" y="417"/>
      <point x="387" y="394"/>
      <point x="427" y="367" type="curve"/>
      <point x="377" y="340"/>
      <point x="352" y="303"/>
      <point x="352" y="255" type="curve" smooth="yes"/>
      <point x="352" y="179"/>
      <point x="404" y="135"/>
    </contour>
    <contour>
      <point x="498" y="191" type="curve" smooth="yes"/>
      <point x="445" y="191"/>
      <point x="419" y="212"/>
      <point x="419" y="255" type="curve" smooth="yes"/>
      <point x="419" y="291"/>
      <point x="440" y="319"/>
      <point x="484" y="340" type="curve"/>
      <point x="497" y="335" type="line" smooth="yes"/>
      <point x="551" y="316"/>
      <point x="578" y="290"/>
      <point x="578" y="255" type="curve" smooth="yes"/>
      <point x="578" y="212"/>
      <point x="551" y="191"/>
    </contour>
    <contour>
      <point x="501" y="397" type="curve"/>
      <point x="455" y="416"/>
      <point x="432" y="440"/>
      <point x="432" y="469" type="curve" smooth="yes"/>
      <point x="432" y="504"/>
      <point x="456" y="525"/>
      <point x="499" y="525" type="curve" smooth="yes"/>
      <point x="540" y="525"/>
      <point x="566" y="504"/>
      <point x="566" y="469" type="curve" smooth="yes"/>
      <point x="566" y="438"/>
      <point x="544" y="414"/>
    </contour>
    <component base="_parenComp"/>
  </outline>
</glyph>
<glyph name="one_zero.paren" format="2">
  <advance width="1000"/>
  <unicode hex="247D"/>
  <note>
uni247D
</note>
  <outline>
    <contour>
      <point x="622" y="135" type="curve" smooth="yes"/>
      <point x="714" y="135"/>
      <point x="760" y="209"/>
      <point x="760" y="359" type="curve" smooth="yes"/>
      <point x="760" y="506"/>
      <point x="714" y="580"/>
      <point x="622" y="580" type="curve" smooth="yes"/>
      <point x="531" y="580"/>
      <point x="485" y="506"/>
      <point x="485" y="359" type="curve" smooth="yes"/>
      <point x="485" y="209"/>
      <point x="531" y="135"/>
    </contour>
    <contour>
      <point x="337" y="144" type="line"/>
      <point x="405" y="144" type="line"/>
      <point x="405" y="572" type="line"/>
      <point x="333" y="572" type="line"/>
      <point x="219" y="489" type="line"/>
      <point x="253" y="440" type="line"/>
      <point x="279" y="459"/>
      <point x="299" y="475"/>
      <point x="314" y="487" type="curve" smooth="yes"/>
      <point x="326" y="496"/>
      <point x="333" y="504"/>
      <point x="339" y="509" type="curve"/>
      <point x="338" y="495"/>
      <point x="337" y="481"/>
      <point x="337" y="467" type="curve" smooth="yes"/>
    </contour>
    <contour>
      <point x="622" y="194" type="curve" smooth="yes"/>
      <point x="565" y="194"/>
      <point x="554" y="272"/>
      <point x="554" y="358" type="curve" smooth="yes"/>
      <point x="554" y="441"/>
      <point x="564" y="522"/>
      <point x="622" y="522" type="curve" smooth="yes"/>
      <point x="668" y="522"/>
      <point x="692" y="468"/>
      <point x="692" y="359" type="curve" smooth="yes"/>
      <point x="692" y="249"/>
      <point x="668" y="194"/>
    </contour>
    <component base="_parenComp"/>
  </outline>
</glyph>
<glyph name="one_one.paren" format="2">
  <advance width="1000"/>
  <unicode hex="247E"/>
  <note>
uni247E
</note>
  <outline>
    <contour>
      <point x="606" y="144" type="line"/>
      <point x="674" y="144" type="line"/>
      <point x="674" y="572" type="line"/>
      <point x="602" y="572" type="line"/>
      <point x="488" y="489" type="line"/>
      <point x="522" y="440" type="line"/>
      <point x="548" y="460"/>
      <point x="569" y="476"/>
      <point x="584" y="488" type="curve" smooth="yes"/>
      <point x="595" y="497"/>
      <point x="603" y="504"/>
      <point x="608" y="509" type="curve"/>
      <point x="607" y="495"/>
      <point x="606" y="481"/>
      <point x="606" y="467" type="curve" smooth="yes"/>
    </contour>
    <contour>
      <point x="367" y="144" type="line"/>
      <point x="435" y="144" type="line"/>
      <point x="435" y="572" type="line"/>
      <point x="363" y="572" type="line"/>
      <point x="249" y="489" type="line"/>
      <point x="283" y="440" type="line"/>
      <point x="311" y="461"/>
      <point x="334" y="477"/>
      <point x="348" y="490" type="curve" smooth="yes"/>
      <point x="357" y="498"/>
      <point x="364" y="504"/>
      <point x="369" y="509" type="curve"/>
      <point x="369" y="495"/>
      <point x="367" y="481"/>
      <point x="367" y="467" type="curve" smooth="yes"/>
    </contour>
    <component base="_parenComp"/>
  </outline>
</glyph>
<glyph name="one_two.paren" format="2">
  <advance width="1000"/>
  <unicode hex="247F"/>
  <note>
uni247F
</note>
  <outline>
    <contour>
      <point x="466" y="143" type="line"/>
      <point x="728" y="143" type="line"/>
      <point x="728" y="205" type="line"/>
      <point x="525" y="205" type="line"/>
      <point x="532" y="189" type="line"/>
      <point x="623" y="285" type="line" smooth="yes"/>
      <point x="690" y="355"/>
      <point x="729" y="403"/>
      <point x="729" y="462" type="curve" smooth="yes"/>
      <point x="729" y="536"/>
      <point x="681" y="580"/>
      <point x="601" y="580" type="curve" smooth="yes"/>
      <point x="554" y="580"/>
      <point x="510" y="562"/>
      <point x="469" y="525" type="curve"/>
      <point x="502" y="479" type="line"/>
      <point x="535" y="508"/>
      <point x="566" y="522"/>
      <point x="598" y="522" type="curve" smooth="yes"/>
      <point x="635" y="522"/>
      <point x="660" y="498"/>
      <point x="660" y="462" type="curve" smooth="yes"/>
      <point x="660" y="406"/>
      <point x="627" y="370"/>
      <point x="570" y="309" type="curve" smooth="yes"/>
      <point x="466" y="197" type="line"/>
    </contour>
    <contour>
      <point x="346" y="144" type="line"/>
      <point x="414" y="144" type="line"/>
      <point x="414" y="572" type="line"/>
      <point x="342" y="572" type="line"/>
      <point x="228" y="489" type="line"/>
      <point x="262" y="440" type="line"/>
      <point x="286" y="458"/>
      <point x="305" y="473"/>
      <point x="320" y="485" type="curve" smooth="yes"/>
      <point x="333" y="495"/>
      <point x="342" y="503"/>
      <point x="348" y="509" type="curve"/>
      <point x="348" y="495"/>
      <point x="346" y="481"/>
      <point x="346" y="467" type="curve" smooth="yes"/>
    </contour>
    <component base="_parenComp"/>
  </outline>
</glyph>
<glyph name="one_three.paren" format="2">
  <advance width="1000"/>
  <unicode hex="2480"/>
  <note>
uni2480
</note>
  <outline>
    <contour>
      <point x="584" y="135" type="curve" smooth="yes"/>
      <point x="674" y="135"/>
      <point x="738" y="176"/>
      <point x="738" y="266" type="curve" smooth="yes"/>
      <point x="738" y="328"/>
      <point x="699" y="363"/>
      <point x="626" y="372" type="curve"/>
      <point x="629" y="367" type="line"/>
      <point x="684" y="372"/>
      <point x="725" y="415"/>
      <point x="725" y="470" type="curve" smooth="yes"/>
      <point x="725" y="544"/>
      <point x="671" y="580"/>
      <point x="595" y="580" type="curve" smooth="yes"/>
      <point x="550" y="580"/>
      <point x="507" y="563"/>
      <point x="467" y="531" type="curve"/>
      <point x="499" y="485" type="line"/>
      <point x="531" y="508"/>
      <point x="556" y="523"/>
      <point x="592" y="523" type="curve" smooth="yes"/>
      <point x="627" y="523"/>
      <point x="656" y="505"/>
      <point x="656" y="462" type="curve" smooth="yes"/>
      <point x="656" y="416"/>
      <point x="628" y="392"/>
      <point x="573" y="392" type="curve" smooth="yes"/>
      <point x="529" y="392" type="line"/>
      <point x="529" y="337" type="line"/>
      <point x="573" y="337" type="line" smooth="yes"/>
      <point x="637" y="337"/>
      <point x="669" y="314"/>
      <point x="669" y="268" type="curve" smooth="yes"/>
      <point x="669" y="217"/>
      <point x="639" y="192"/>
      <point x="578" y="192" type="curve" smooth="yes"/>
      <point x="548" y="192"/>
      <point x="513" y="203"/>
      <point x="473" y="226" type="curve"/>
      <point x="473" y="163" type="line"/>
      <point x="506" y="144"/>
      <point x="543" y="135"/>
    </contour>
    <contour>
      <point x="346" y="144" type="line"/>
      <point x="414" y="144" type="line"/>
      <point x="414" y="572" type="line"/>
      <point x="342" y="572" type="line"/>
      <point x="228" y="489" type="line"/>
      <point x="262" y="440" type="line"/>
      <point x="290" y="461"/>
      <point x="313" y="477"/>
      <point x="327" y="490" type="curve" smooth="yes"/>
      <point x="336" y="498"/>
      <point x="343" y="504"/>
      <point x="348" y="509" type="curve"/>
      <point x="348" y="495"/>
      <point x="346" y="481"/>
      <point x="346" y="467" type="curve" smooth="yes"/>
    </contour>
    <component base="_parenComp"/>
  </outline>
</glyph>
